<svg width="393" height="333" viewBox="0 0 393 333" fill="none" xmlns="http://www.w3.org/2000/svg">
<g clip-path="url(#clip0_358_14550)">
<path d="M86.7102 302C250.739 302 383.71 294.389 383.71 285C383.71 275.611 250.739 268 86.7102 268C-77.3184 268 -210.29 275.611 -210.29 285C-210.29 294.389 -77.3184 302 86.7102 302Z" fill="#E9EAEB"/>
<path d="M261.356 125.035V143.835C261.356 145.51 260.964 147.121 260.253 148.529C258.533 151.986 254.956 154.366 250.87 154.366H247.516C241.773 154.366 237.04 149.639 237.04 143.835V125.035C237.04 123.051 237.602 121.216 238.557 119.626C238.557 119.594 238.557 119.594 238.557 119.594C240.415 116.532 243.737 114.494 247.516 114.494H250.87C256.654 114.505 261.356 119.263 261.356 125.035Z" fill="#E5F0ED"/>
<g opacity="0.3">
<path d="M260.264 148.551C258.545 152.008 254.968 154.387 250.881 154.387H247.527C241.785 154.387 237.051 149.66 237.051 143.856V125.046C237.051 123.062 237.614 121.226 238.569 119.637C238.771 120.8 243.218 146.588 260.264 148.551Z" fill="#E5F0ED"/>
</g>
<path d="M95.2574 257.999H147.054V210.084H93.0178L95.2574 257.999Z" fill="#083431"/>
<path d="M258.564 151.566L4.12305 157.871V23H171.21C187.142 23 201.726 31.9623 208.986 46.2059L219.919 67.662L258.564 151.566Z" fill="white"/>
<path d="M114.023 254.083C114.023 268.348 121.347 284.075 121.347 284.075C121.347 284.075 132.227 284.075 133.734 284.075C144.613 284.075 153.444 270.642 153.444 254.083C153.444 237.525 132.227 224.092 121.347 224.092C110.468 224.092 114.023 237.514 114.023 254.083Z" fill="#2B5451"/>
<path d="M121.335 284.075C132.22 284.075 141.045 270.647 141.045 254.083C141.045 237.519 132.22 224.092 121.335 224.092C110.449 224.092 101.624 237.519 101.624 254.083C101.624 270.647 110.449 284.075 121.335 284.075Z" fill="#199F97"/>
<path d="M121.59 276.678C129.791 276.678 136.439 266.561 136.439 254.08C136.439 241.6 129.791 231.482 121.59 231.482C113.389 231.482 106.741 241.6 106.741 254.08C106.741 266.561 113.389 276.678 121.59 276.678Z" fill="white"/>
<path d="M256.485 254.083C256.485 268.348 263.809 284.075 263.809 284.075C263.809 284.075 274.688 284.075 276.195 284.075C287.085 284.075 295.906 270.642 295.906 254.083C295.906 237.525 274.688 224.092 263.809 224.092C252.919 224.092 256.485 237.514 256.485 254.083Z" fill="#2B5451"/>
<path d="M244.097 254.083C244.097 270.653 252.918 284.075 263.808 284.075C274.687 284.075 283.518 270.642 283.518 254.083C283.518 237.525 274.698 224.092 263.808 224.092C252.918 224.092 244.097 237.514 244.097 254.083Z" fill="#199F97"/>
<path d="M315.532 239.933C315.564 252.47 305.905 257.623 293.455 257.623L153.433 258.839C153.858 256.375 147.691 257.623 147.691 254.988C147.691 235.591 136.111 219.853 121.867 219.853C107.591 219.853 94.0263 230.395 94.0263 249.792C94.0263 252.427 90.9164 256.023 91.341 258.487L16.3204 251.872C16.3204 251.872 7.91406 224.356 8.33862 205.162C8.67827 188.453 8.67827 155.731 7.69116 147.75C7.69116 146.555 89.9293 146.416 110.69 146.331C113.503 146.299 115.191 146.299 115.361 146.299L115.647 146.502L115.955 146.726C119.787 149.414 141.249 164.533 154.569 173.399C166.319 181.188 253.004 184.356 287.001 185.317C295.45 185.541 300.662 185.626 300.662 185.626C300.662 185.626 305.311 190.406 309.418 197.971C312.571 203.828 315.384 211.361 315.447 219.597C315.479 224.719 315.5 230.896 315.5 236.956C315.532 237.949 315.532 238.941 315.532 239.933Z" fill="white"/>
<path d="M238.048 146.299H123.702C121.059 146.299 118.661 144.741 117.567 142.33L89.2594 79.0284C88.3254 76.9586 89.8538 74.6113 92.104 74.6113H212.733C215.376 74.6113 217.807 76.2011 218.879 78.655L239.152 125.227L244.225 136.867C246.136 141.316 242.888 146.299 238.048 146.299Z" fill="#B6DFF0"/>
<path d="M184.788 236.96C184.767 238.955 184.682 240.822 184.565 242.476C183.748 253.497 172.73 258.169 172.73 258.169H147.044C147.469 255.705 147.691 257.616 147.691 254.991C147.691 248.397 146.343 242.22 144.03 236.96C139.487 226.717 131.271 219.857 121.867 219.857C112.421 219.857 104.205 226.717 99.6626 236.96C97.3593 242.23 91.9355 247.992 91.9355 254.586C91.9355 257.221 89.6959 251.814 90.1205 254.279L4.10376 257.288V23.0176H78.3813L78.7316 67.6689C78.7316 67.6689 79.984 74.3586 82.5208 80.3441C84.7922 85.6788 87.8066 92.7952 91.097 100.541C97.8582 116.417 105.755 134.939 110.691 146.345C113.164 152.117 114.915 156.054 115.361 156.907C116.751 159.564 137.353 170.788 154.782 180.754C159.133 183.239 163.284 185.64 166.882 187.817C172.008 190.921 176.02 193.546 177.92 195.264C182.676 199.574 185.042 221.937 184.788 236.96Z" fill="#E5F0ED"/>
<path d="M300.661 185.634H165.129L115.646 146.499L115.36 146.307H252.08L291.002 177.792L300.661 185.634Z" fill="white"/>
<path d="M182.675 208.608L170.426 207.391C166.149 206.965 162.678 203.743 161.924 199.496L159.111 183.93C159.058 183.673 159.027 183.449 159.058 183.193C167.794 188.229 175.139 192.732 177.93 195.25C179.947 197.085 181.55 202.185 182.675 208.608Z" fill="#A8302D"/>
<path d="M219.929 67.6689H78.7405C78.7405 67.6689 78.1992 58.5892 74.654 48.2186C71.5016 39.0536 66.046 28.8431 56.5039 23.0176H171.879C190.687 23.0176 207.352 33.1108 213.975 48.2186C214.283 48.8481 214.559 49.4669 214.792 50.0964C216.777 55.3458 218.571 61.2139 219.929 67.6689Z" fill="white"/>
<path d="M182.707 208.611L170.426 207.394C166.149 206.967 162.678 203.745 161.924 199.499L159.111 183.932C159.058 183.676 159.027 183.42 159.058 183.164C167.794 188.232 175.139 192.734 177.93 195.252C179.947 197.088 181.55 202.188 182.707 208.611Z" fill="#A2C2DD"/>
<path d="M315.531 247.308C315.563 253.211 308.101 258.557 291.745 258.256L145.43 258.266C145.854 257.105 146.99 255.432 146.99 254.191C146.99 251.086 146.353 248.388 144.05 245.906H315.51C315.531 246.374 315.531 246.841 315.531 247.308Z" fill="#2B5451"/>
<path d="M96.0104 254.402C96.0104 255.643 96.212 256.844 96.626 258H4.10278V245.906H94.7752C96.0901 248.757 96.0104 251.292 96.0104 254.402Z" fill="#2B5451"/>
<path d="M220.11 202.236H275.537C277.309 202.236 278.657 203.662 278.392 205.241L276.428 216.745C276.142 218.438 274.528 219.686 272.629 219.686H226.967C224.037 219.686 221.458 217.956 220.609 215.427L217.318 205.646C216.745 203.948 218.146 202.236 220.11 202.236Z" fill="#083431"/>
<path d="M239.141 125.248C173.768 121.877 129.55 86.7212 116.198 74.6328H212.722C215.365 74.6328 217.796 76.2225 218.868 78.6765L239.141 125.248Z" fill="#D6F3FF"/>
<path d="M30.2663 23V250.834L-217 254.088V23H30.2663Z" fill="white"/>
<path d="M219.93 67.6631H78.7412C78.7412 67.6631 78.1999 58.5835 74.6548 48.2129H213.976C214.283 48.8424 214.559 49.4612 214.793 50.0907C216.778 55.34 218.571 61.2082 219.93 67.6631Z" fill="#E5F0ED"/>
<path d="M309.418 197.974C308.632 199.275 307.613 200.129 306.52 200.321L287.51 203.863C285.907 204.172 284.666 201.377 285.09 198.486L286.948 185.629L287.001 185.32L287.372 182.684C287.712 180.422 288.699 178.694 289.909 178.214L291.013 177.787L300.672 185.629C300.661 185.629 305.31 190.409 309.418 197.974Z" fill="#FFA865"/>
<path d="M177.909 180.732H-217V200.93H177.909V180.732Z" fill="#E13D51"/>
<path d="M30.2663 64.5254H-217V84.7225H30.2663V64.5254Z" fill="#E13D51"/>
<path d="M205.941 210.94L182.707 208.625H182.675L170.426 207.408C166.149 206.982 162.678 203.76 161.924 199.513L159.111 183.947C159.058 183.69 159.027 183.466 159.058 183.21V183.178C158.92 179.892 161.903 177.236 165.257 177.918L201.451 185.302C203.765 185.782 205.591 187.51 206.206 189.772L210.463 205.573C211.237 208.443 208.902 211.249 205.941 210.94Z" fill="#FFA865"/>
<path d="M79.2186 86.0083L103.578 146.312H61.7796C61.7796 146.312 53.2034 144.871 52.1102 127.256C50.932 108.457 50.9426 76.0111 50.9426 76.0111L69.2838 75.9258C76.2679 76.982 77.3717 80.8444 79.2186 86.0083Z" fill="#B6DFF0"/>
<path d="M91.1808 115.355C91.1808 115.355 93.293 139.724 81.3203 146.403H103.684L91.1808 115.355Z" fill="white"/>
<path d="M94.4607 131.651C94.4607 131.651 89.4083 128.034 88.9731 125.047V142.097H95.5751L94.4607 131.651Z" fill="#E5F0ED"/>
<path d="M88.9732 125.035V143.835C88.9732 145.51 88.5805 147.121 87.8693 148.529C86.1498 151.986 82.5729 154.366 78.4865 154.366H75.1324C69.3902 154.366 64.6562 149.639 64.6562 143.835V125.035C64.6562 123.051 65.2188 121.216 66.1741 119.626C66.1741 119.594 66.1741 119.594 66.1741 119.594C68.0316 116.532 71.3538 114.494 75.1324 114.494H78.4865C84.2712 114.505 88.9732 119.263 88.9732 125.035Z" fill="white"/>
<path d="M30.5 254.402C30.5 255.643 30.8609 256.844 31.6357 258H-138.604V245.906H37.24C32.9943 248.388 30.5 251.292 30.5 254.402Z" fill="#2B5451"/>
<g clip-path="url(#clip1_358_14550)">
<path d="M324.375 100.683C324.375 100.683 320.862 92.8511 321.57 88.7212C322.278 84.5912 322.114 79.1084 327.365 76.9899C332.616 74.8714 333.08 76.912 338.786 76.2761C344.315 75.6597 346.291 83.0048 346.813 86.1257C347.92 92.7181 346.028 96.8481 344.361 99.0736C342.92 100.997 342.268 101.961 342.268 101.961L324.375 100.683Z" fill="#293331"/>
<path d="M309.785 321.997C309.785 321.997 309.785 318.133 310.311 316.848C310.836 315.564 312.76 310.334 312.76 310.334H320.281C320.281 310.334 321.681 315.106 321.768 316.664C321.855 318.224 321.768 321.994 321.768 321.994H309.785V321.997Z" fill="#147973"/>
<path d="M357.544 321.997C357.544 321.997 357.544 318.133 357.018 316.848C356.492 315.564 354.569 310.334 354.569 310.334H347.048C347.048 310.334 345.647 315.106 345.561 316.664C345.474 318.224 345.561 321.994 345.561 321.994H357.544V321.997Z" fill="#147973"/>
<path d="M310.728 188.213C310.728 188.213 312.043 230.372 310.076 254.428C308.109 278.485 310.088 311.959 310.088 311.959C310.088 311.959 316.381 315.599 323.203 311.959C323.203 311.959 330.684 265.488 330.637 254.428C330.588 242.652 338.779 190.052 338.779 190.052L310.728 188.213Z" fill="#199F97"/>
<path d="M357.272 311.962C357.272 311.962 350.979 315.602 344.157 311.962C344.157 311.962 336.676 265.491 336.723 254.431C336.745 249.458 335.294 237.198 333.615 224.701C331.314 207.604 328.581 190.055 328.581 190.055L357.723 188.145C357.723 188.145 355.321 230.375 357.287 254.431C359.254 278.488 357.272 311.962 357.272 311.962Z" fill="#199F97"/>
<path d="M316.391 119.662C316.391 119.662 305.549 121.012 303.171 131.231C300.789 141.451 291.429 167.418 300.789 173.283C300.789 173.283 310.707 159.343 314.473 148.108C318.243 136.87 316.391 119.662 316.391 119.662Z" fill="#88D0EF"/>
<path d="M353.245 125.118C353.245 125.118 364.152 123.678 366.533 133.897C368.914 144.117 376.522 166.934 367.161 172.803C367.161 172.803 356.576 159.349 352.809 148.111C349.043 136.872 353.245 125.118 353.245 125.118Z" fill="#88D0EF"/>
<path d="M327.409 105.169C327.409 105.169 327.143 113.773 326.094 117.624L317.788 123.704L349.055 128.612L341.6 117.802C341.6 117.802 339.348 106.269 340.53 102.003C341.711 97.7364 327.409 105.169 327.409 105.169Z" fill="#FFC49B"/>
<path d="M327.365 106.357C327.365 106.354 329.839 112.603 334.496 112.463C339.153 112.327 340.214 106.799 340.214 106.799L327.365 106.357Z" fill="#E1B291"/>
<path d="M333.961 110.053C330.588 109.992 324.375 105.278 324.375 99.438V90.3281C324.375 88.1966 325.791 86.4512 327.523 86.4512H340.397C342.128 86.4512 343.545 88.1966 343.545 90.3281V98.9221C343.545 105.044 337.83 110.125 333.961 110.053Z" fill="#FFC49B"/>
<path d="M358.156 206.994C334.011 211.364 308.124 207.824 308.124 207.824L310.527 156.633C310.462 155.893 310.416 155.131 310.397 154.352C310.369 153.327 310.388 152.117 310.45 150.77C310.935 140.032 314.028 120.703 316.39 119.661C316.39 119.661 319.897 118.295 326.097 117.627C326.097 117.757 329.694 123.275 333.964 123.888C336.618 122.789 338.702 121.848 341.606 117.805C343.307 118.013 345.097 118.273 346.996 118.649C347.135 118.675 347.277 118.704 347.419 118.733C349.501 119.161 351.718 119.732 354.093 120.531C354.093 120.531 357.157 121.78 356.48 144.204L358.156 206.994Z" fill="white"/>
<path d="M331.271 104.184C331.271 104.184 332.322 105.676 334.156 105.621C335.993 105.569 336.856 104.184 336.856 104.184C336.856 104.184 333.76 103.652 331.271 104.184Z" fill="white"/>
<path d="M308.128 167.745L306.779 243.969C306.779 243.969 317.665 246.922 327.022 247.548L329.444 154.369L326.113 122.831L323.086 117.631C323.086 117.631 313.075 118.452 307.082 123.574C302.994 127.068 301.105 138.988 301.105 138.988L310.527 149.373L308.128 167.745Z" fill="#88D0EF"/>
<path d="M359.647 167.744L360.995 243.969C360.995 243.969 350.11 246.921 340.752 247.547L338.782 157.145L341.658 122.828L344.686 117.627C344.686 117.627 354.668 118.487 360.689 123.57C367.149 129.024 368.445 142.452 368.445 142.452L357.244 149.369L359.647 167.744Z" fill="#88D0EF"/>
<path d="M300.789 173.283C311.745 176.378 317.909 168.381 343.548 157.321L342.772 153.029C342.772 153.029 313.295 153.389 308.13 156.322C301.411 160.141 299.889 173.03 300.789 173.283Z" fill="#FFC49B"/>
<path d="M322.17 150.1C322.17 150.1 311.099 149.441 310.982 155.365L321.218 154.879L322.17 150.1Z" fill="#FFC49B"/>
<path d="M351.471 153.122C351.471 153.122 359.755 150.919 361.144 156.739C362.532 162.559 349.232 156.739 349.232 156.739L351.471 153.122Z" fill="#E1B291"/>
<path d="M330.702 163.299C330.702 163.299 327.551 159.322 319.928 154.283L332.87 156.846L336.819 160.243L335.019 161.203L330.702 163.299Z" fill="#E1B291"/>
<path d="M343.789 153.56L354.823 152.713L354.052 156.019L343.789 153.56Z" fill="#E1B291"/>
<path d="M310.982 155.36C310.982 155.36 318.552 154 318.419 153.897C318.286 153.793 315.667 152.959 315.067 153.274C314.467 153.585 310.982 155.36 310.982 155.36Z" fill="#E1B291"/>
<path d="M326.849 113.17C326.849 113.17 322.266 115.83 321.462 118.322C321.462 118.322 319.242 128.467 322.17 135.296L326.849 134.105L324.446 137.203C324.446 137.203 325.686 151.297 329.444 154.362C329.444 154.366 326.512 116.946 326.849 113.17Z" fill="#6CAFCC"/>
<path d="M340.836 113.17C340.836 113.17 345.419 115.83 346.223 118.322C346.223 118.322 349.151 127.75 346.223 134.582L340.836 134.105L344.689 137.44C344.689 137.44 342.543 154.074 338.785 157.14C338.785 157.143 341.173 116.946 340.836 113.17Z" fill="#6CAFCC"/>
<path d="M367.164 172.798C367.164 172.798 344.423 170.209 317.788 152.58L322.17 150.098C322.17 150.098 357.099 154.075 361.478 157.527C368.346 162.938 372.313 171.536 367.164 172.798Z" fill="#FFC49B"/>
<path d="M322.17 138.398H314.702V141.841H322.17V138.398Z" fill="white"/>
<path d="M329.644 86.4497C329.644 86.4497 333.077 89.72 337.468 89.0744C341.859 88.4287 341.757 86.5016 342.37 87.316C342.985 88.1303 343.05 94.7486 343.903 95.1801L344.358 86.4497L335.65 81.1973L323.156 82.7059L324.372 95.4948C324.372 95.4948 324.14 90.8068 326.032 89.4572C327.928 88.1108 329.644 86.4497 329.644 86.4497Z" fill="#293331"/>
</g>
</g>
<defs>
<clipPath id="clip0_358_14550">
<rect width="393" height="333" fill="white"/>
</clipPath>
<clipPath id="clip1_358_14550">
<rect width="75" height="246" fill="white" transform="translate(296.71 76)"/>
</clipPath>
</defs>
</svg>
