<svg width="186" height="185" viewBox="0 0 186 185" fill="none" xmlns="http://www.w3.org/2000/svg">
<path d="M93 182C129.451 182 159 177.299 159 171.5C159 165.701 129.451 161 93 161C56.5492 161 27 165.701 27 171.5C27 177.299 56.5492 182 93 182Z" fill="#E9EAEB"/>
<path d="M95.2038 171.872C139.704 171.872 175.778 135.798 175.778 91.298C175.778 46.7983 139.704 10.7241 95.2038 10.7241C50.704 10.7241 14.6299 46.7983 14.6299 91.298C14.6299 135.798 50.704 171.872 95.2038 171.872Z" fill="#199F97"/>
<path opacity="0.3" d="M95.2038 171.872C139.704 171.872 175.778 135.798 175.778 91.298C175.778 46.7983 139.704 10.7241 95.2038 10.7241C50.704 10.7241 14.6299 46.7983 14.6299 91.298C14.6299 135.798 50.704 171.872 95.2038 171.872Z" fill="#293331"/>
<path d="M93.03 166.717C137.53 166.717 173.604 130.642 173.604 86.1427C173.604 41.643 137.53 5.56885 93.03 5.56885C48.5302 5.56885 12.4561 41.643 12.4561 86.1427C12.4561 130.642 48.5302 166.717 93.03 166.717Z" fill="#199F97"/>
<path d="M117.442 143.873C149.325 130.39 164.241 93.6125 150.757 61.7294C137.274 29.8462 100.497 14.9305 68.6134 28.4142C36.7302 41.8979 21.8145 78.675 35.2982 110.558C48.7819 142.441 85.559 157.357 117.442 143.873Z" fill="white"/>
<path d="M47.8711 87.7853L59.8155 75.7427L82.8638 96.3732L128.093 52.5454L139.183 64.5741L81.1555 119.584L47.8711 87.7853Z" fill="#199F97"/>
</svg>
