<svg width="184" height="40" viewBox="0 0 184 40" fill="none" xmlns="http://www.w3.org/2000/svg">
<path d="M13.1165 24.6473C10.6305 24.6473 8.3931 24.1345 6.40429 23.1088C4.43807 22.0608 2.88996 20.6114 1.75995 18.7607C0.629946 16.91 0.0649414 14.814 0.0649414 12.4727C0.0649414 10.1314 0.629946 8.03544 1.75995 6.18472C2.88996 4.334 4.43807 2.89579 6.40429 1.87009C8.3931 0.822094 10.6305 0.298096 13.1165 0.298096C15.2862 0.298096 17.2411 0.677159 18.9813 1.43529C20.7215 2.19341 22.1679 3.286 23.3205 4.71306L19.0491 8.52599C17.5123 6.69757 15.6478 5.78336 13.4555 5.78336C12.1673 5.78336 11.0147 6.06208 9.99771 6.61953C9.00331 7.17697 8.2236 7.96855 7.6586 8.99425C7.11619 9.99765 6.84499 11.1571 6.84499 12.4727C6.84499 13.7883 7.11619 14.9589 7.6586 15.9846C8.2236 16.988 9.00331 17.7684 9.99771 18.3259C11.0147 18.8833 12.1673 19.1621 13.4555 19.1621C15.6478 19.1621 17.5123 18.2478 19.0491 16.4194L23.3205 20.2323C22.1679 21.6594 20.7215 22.752 18.9813 23.5101C17.2411 24.2683 15.2862 24.6473 13.1165 24.6473Z" fill="#F8F8F8"/>
<path fill-rule="evenodd" clip-rule="evenodd" d="M35.7807 19.6303H41.8152L43.6797 24.1791H50.6632L40.1541 0.766357H33.5435L23.0684 24.1791H29.9162L31.7807 19.6303H31.7816L33.747 14.7471H33.7469L36.798 7.25502L39.849 14.7471H37.4735L35.7807 19.6303Z" fill="#F8F8F8"/>
<path fill-rule="evenodd" clip-rule="evenodd" d="M59.2782 17.958H62.9394L67.2447 24.1791H74.4316L69.3126 16.8208C70.8042 16.1073 71.9456 15.1262 72.7366 13.8775C73.5502 12.6065 73.957 11.1237 73.957 9.42906C73.957 7.66753 73.5276 6.14013 72.6688 4.84686C71.81 3.53129 70.5895 2.52789 69.0075 1.83665C67.4255 1.12312 65.561 0.766357 63.414 0.766357H52.5659V5.98162H60.0296V5.98405H63.0072C64.3858 5.98405 65.4254 6.28507 66.126 6.88711C66.8266 7.48915 67.1769 8.33647 67.1769 9.42906C67.1769 10.5217 66.8266 11.369 66.126 11.971C65.4254 12.5508 64.3858 12.8406 63.0072 12.8406H59.2782V12.8406H52.5659V24.1791H59.2782V17.958Z" fill="#F8F8F8"/>
<path d="M96.7121 19.0617V24.1791H77.6602V0.766357H96.7459V5.88371H84.3046V9.83042H94.8476V14.7805H84.3046V19.0617H96.7121Z" fill="#F8F8F8"/>
<path d="M110.81 17.958H107.149V24.1791H100.437V0.766357H111.285C113.432 0.766357 115.297 1.12312 116.879 1.83665C118.461 2.52789 119.681 3.53129 120.54 4.84686C121.399 6.14013 121.828 7.66753 121.828 9.42906C121.828 11.1237 121.421 12.6065 120.608 13.8775C119.817 15.1262 118.675 16.1073 117.184 16.8208L122.303 24.1791H115.116L110.81 17.958ZM115.048 9.42906C115.048 8.33647 114.698 7.48915 113.997 6.88711C113.297 6.28507 112.257 5.98405 110.878 5.98405H107.149V12.8406H110.878C112.257 12.8406 113.297 12.5508 113.997 11.971C114.698 11.369 115.048 10.5217 115.048 9.42906Z" fill="#199F97"/>
<path d="M125.531 0.766357H132.243V24.1791H125.531V0.766357Z" fill="#199F97"/>
<path fill-rule="evenodd" clip-rule="evenodd" d="M148.24 0.766357H137.019V6.04348H144.401V6.05094H147.968C150.002 6.05094 151.63 6.61953 152.85 7.75672C154.093 8.89391 154.714 10.4659 154.714 12.4727C154.714 14.4795 154.093 16.0515 152.85 17.1887C151.63 18.3259 150.002 18.8945 147.968 18.8945H143.731V12.9067H137.019V24.1791H148.24C150.839 24.1791 153.144 23.6997 155.155 22.7409C157.167 21.7821 158.726 20.4219 159.833 18.6604C160.941 16.8988 161.495 14.8363 161.495 12.4727C161.495 10.1091 160.941 8.0466 159.833 6.28507C158.726 4.52354 157.167 3.16337 155.155 2.20457C153.144 1.24576 150.839 0.766357 148.24 0.766357Z" fill="#199F97"/>
<path fill-rule="evenodd" clip-rule="evenodd" d="M162.092 0.766357H182.771V5.86884H165.766L162.092 0.766357ZM162.092 24.1791H182.771V19.0766H165.766L162.092 24.1791ZM180.86 9.85663H165.755L165.76 14.7757H180.86V9.85663Z" fill="#199F97"/>
<path d="M3.53722 33.273H1.16357V32.3073H7.09768V33.273H4.72404V39.1639H3.53722V33.273Z" fill="#F8F8F8"/>
<path d="M22.1124 38.1861V39.1639H16.9002V32.3073H21.9778V33.273H18.087V35.2044H21.5496V36.1581H18.087V38.1861H22.1124Z" fill="#F8F8F8"/>
<path d="M35.5269 39.2605C34.8173 39.2605 34.1729 39.1076 33.5938 38.8018C33.0228 38.496 32.5742 38.0775 32.2479 37.5463C31.9216 37.0071 31.7585 36.4036 31.7585 35.7356C31.7585 35.0676 31.9216 34.4681 32.2479 33.9369C32.5742 33.3977 33.0228 32.9752 33.5938 32.6694C34.1729 32.3636 34.8173 32.2107 35.5269 32.2107C36.726 32.2107 37.6396 32.5688 38.2676 33.2851L37.509 34.0456C36.987 33.4983 36.3385 33.2247 35.5636 33.2247C35.0661 33.2247 34.6174 33.3334 34.2178 33.5506C33.8262 33.7599 33.5163 34.0576 33.2879 34.4439C33.0676 34.8222 32.9575 35.2527 32.9575 35.7356C32.9575 36.2104 33.0676 36.641 33.2879 37.0273C33.5163 37.4055 33.8262 37.7033 34.2178 37.9206C34.6174 38.1378 35.0661 38.2465 35.5636 38.2465C36.3304 38.2465 36.9789 37.9688 37.509 37.4136L38.2676 38.1741C37.6314 38.8984 36.7178 39.2605 35.5269 39.2605Z" fill="#F8F8F8"/>
<path d="M48.4275 32.3073H49.6143V35.2044H53.4195V32.3073H54.6063V39.1639H53.4195V36.1702H49.6143V39.1639H48.4275V32.3073Z" fill="#F8F8F8"/>
<path d="M71.7262 32.3073V39.1639H70.7473L66.7342 34.3232V39.1639H65.5473V32.3073H66.5262L70.5393 37.1721V32.3073H71.7262Z" fill="#F8F8F8"/>
<path d="M85.7994 39.2605C85.0898 39.2605 84.4454 39.1076 83.8662 38.8018C83.2871 38.496 82.8344 38.0775 82.5081 37.5463C82.1818 37.0071 82.0187 36.4036 82.0187 35.7356C82.0187 35.0676 82.1818 34.4681 82.5081 33.9369C82.8344 33.3977 83.2871 32.9752 83.8662 32.6694C84.4454 32.3636 85.0898 32.2107 85.7994 32.2107C86.5172 32.2107 87.1616 32.3636 87.7326 32.6694C88.3117 32.9752 88.7644 33.3977 89.0907 33.9369C89.417 34.4681 89.5801 35.0676 89.5801 35.7356C89.5801 36.4036 89.417 37.0071 89.0907 37.5463C88.7644 38.0775 88.3117 38.496 87.7326 38.8018C87.1616 39.1076 86.5172 39.2605 85.7994 39.2605ZM85.7994 38.2465C86.2888 38.2465 86.7293 38.1378 87.1208 37.9206C87.5123 37.7033 87.8182 37.4055 88.0385 37.0273C88.2669 36.649 88.381 36.2185 88.381 35.7356C88.381 35.2527 88.2669 34.8222 88.0385 34.4439C87.8182 34.0657 87.5123 33.7679 87.1208 33.5506C86.7293 33.3334 86.2888 33.2247 85.7994 33.2247C85.31 33.2247 84.8695 33.3334 84.478 33.5506C84.0865 33.7679 83.7765 34.0657 83.5481 34.4439C83.3279 34.8222 83.2178 35.2527 83.2178 35.7356C83.2178 36.2185 83.3279 36.649 83.5481 37.0273C83.7765 37.4055 84.0865 37.7033 84.478 37.9206C84.8695 38.1378 85.31 38.2465 85.7994 38.2465Z" fill="#F8F8F8"/>
<path d="M99.8706 32.3073H101.057V38.1861H104.789V39.1639H99.8706V32.3073Z" fill="#F8F8F8"/>
<path d="M117.614 39.2605C116.904 39.2605 116.259 39.1076 115.68 38.8018C115.101 38.496 114.648 38.0775 114.322 37.5463C113.996 37.0071 113.833 36.4036 113.833 35.7356C113.833 35.0676 113.996 34.4681 114.322 33.9369C114.648 33.3977 115.101 32.9752 115.68 32.6694C116.259 32.3636 116.904 32.2107 117.614 32.2107C118.331 32.2107 118.976 32.3636 119.547 32.6694C120.126 32.9752 120.579 33.3977 120.905 33.9369C121.231 34.4681 121.394 35.0676 121.394 35.7356C121.394 36.4036 121.231 37.0071 120.905 37.5463C120.579 38.0775 120.126 38.496 119.547 38.8018C118.976 39.1076 118.331 39.2605 117.614 39.2605ZM117.614 38.2465C118.103 38.2465 118.543 38.1378 118.935 37.9206C119.326 37.7033 119.632 37.4055 119.853 37.0273C120.081 36.649 120.195 36.2185 120.195 35.7356C120.195 35.2527 120.081 34.8222 119.853 34.4439C119.632 34.0657 119.326 33.7679 118.935 33.5506C118.543 33.3334 118.103 33.2247 117.614 33.2247C117.124 33.2247 116.684 33.3334 116.292 33.5506C115.901 33.7679 115.591 34.0657 115.362 34.4439C115.142 34.8222 115.032 35.2527 115.032 35.7356C115.032 36.2185 115.142 36.649 115.362 37.0273C115.591 37.4055 115.901 37.7033 116.292 37.9206C116.684 38.1378 117.124 38.2465 117.614 38.2465Z" fill="#F8F8F8"/>
<path d="M136.395 35.6994H137.545V38.3793C137.211 38.6609 136.807 38.8782 136.334 39.0311C135.861 39.1841 135.372 39.2605 134.866 39.2605C134.14 39.2605 133.483 39.1076 132.896 38.8018C132.317 38.496 131.86 38.0775 131.526 37.5463C131.199 37.0071 131.036 36.4036 131.036 35.7356C131.036 35.0676 131.199 34.4681 131.526 33.9369C131.852 33.3977 132.305 32.9752 132.884 32.6694C133.463 32.3636 134.107 32.2107 134.817 32.2107C136.041 32.2107 136.974 32.5688 137.619 33.2851L136.86 34.0456C136.33 33.4983 135.657 33.2247 134.841 33.2247C134.344 33.2247 133.895 33.3334 133.496 33.5506C133.104 33.7599 132.794 34.0576 132.566 34.4439C132.345 34.8222 132.235 35.2527 132.235 35.7356C132.235 36.2104 132.345 36.641 132.566 37.0273C132.794 37.4055 133.108 37.7033 133.508 37.9206C133.916 38.1378 134.372 38.2465 134.878 38.2465C135.465 38.2465 135.971 38.1177 136.395 37.8602V35.6994Z" fill="#F8F8F8"/>
<path d="M148.255 32.3073H149.442V39.1639H148.255V32.3073Z" fill="#F8F8F8"/>
<path d="M165.581 38.1861V39.1639H160.368V32.3073H165.446V33.273H161.555V35.2044H165.018V36.1581H161.555V38.1861H165.581Z" fill="#F8F8F8"/>
<path d="M177.942 39.2605C177.404 39.2605 176.878 39.1881 176.364 39.0432C175.858 38.8903 175.462 38.6891 175.177 38.4396L175.642 37.5222C175.919 37.7475 176.266 37.9286 176.682 38.0654C177.106 38.2022 177.542 38.2706 177.991 38.2706C178.537 38.2706 178.937 38.1821 179.19 38.0051C179.451 37.828 179.582 37.5986 179.582 37.317C179.582 37.0997 179.504 36.9226 179.349 36.7858C179.202 36.649 179.015 36.5444 178.786 36.472C178.558 36.3995 178.248 36.3231 177.856 36.2426C177.326 36.1299 176.894 36.0132 176.559 35.8925C176.233 35.7718 175.952 35.5827 175.715 35.3252C175.487 35.0596 175.373 34.7015 175.373 34.2508C175.373 33.6392 175.621 33.1483 176.119 32.7781C176.625 32.3998 177.31 32.2107 178.175 32.2107C178.615 32.2107 179.039 32.263 179.447 32.3676C179.863 32.4642 180.218 32.6091 180.511 32.8022L180.083 33.7438C179.553 33.3816 178.905 33.2006 178.138 33.2006C177.608 33.2006 177.212 33.2931 176.951 33.4782C176.69 33.6553 176.559 33.8886 176.559 34.1784C176.559 34.3957 176.633 34.5727 176.78 34.7095C176.935 34.8463 177.126 34.9509 177.355 35.0234C177.591 35.0958 177.905 35.1723 178.297 35.2527C178.835 35.3735 179.263 35.4942 179.582 35.6149C179.908 35.7276 180.185 35.9126 180.414 36.1702C180.65 36.4277 180.768 36.7738 180.768 37.2083C180.768 37.8361 180.516 38.335 180.01 38.7052C179.512 39.0754 178.823 39.2605 177.942 39.2605Z" fill="#F8F8F8"/>
</svg>
