<svg width="118" height="26" viewBox="0 0 118 26" fill="none" xmlns="http://www.w3.org/2000/svg">
<path d="M8.41179 16.0208C6.8175 16.0208 5.38263 15.6874 4.1072 15.0207C2.84626 14.3395 1.85345 13.3975 1.12877 12.1945C0.404088 10.9915 0.041748 9.62912 0.041748 8.1073C0.041748 6.58547 0.404088 5.22307 1.12877 4.02011C1.85345 2.81714 2.84626 1.8823 4.1072 1.2156C5.38263 0.534401 6.8175 0.193802 8.41179 0.193802C9.80318 0.193802 11.0569 0.440193 12.1729 0.932975C13.2889 1.42576 14.2165 2.13594 14.9556 3.06353L12.2164 5.54193C11.2308 4.35346 10.0351 3.75922 8.6292 3.75922C7.80306 3.75922 7.06389 3.94039 6.41168 4.30273C5.77396 4.66507 5.27393 5.17959 4.91159 5.8463C4.56375 6.49851 4.38982 7.25218 4.38982 8.1073C4.38982 8.96242 4.56375 9.72333 4.91159 10.39C5.27393 11.0422 5.77396 11.5495 6.41168 11.9119C7.06389 12.2742 7.80306 12.4554 8.6292 12.4554C10.0351 12.4554 11.2308 11.8611 12.2164 10.6727L14.9556 13.1511C14.2165 14.0787 13.2889 14.7888 12.1729 15.2816C11.0569 15.7744 9.80318 16.0208 8.41179 16.0208Z" fill="white"/>
<path fill-rule="evenodd" clip-rule="evenodd" d="M22.9464 12.7597H26.8164L28.0121 15.7164H32.4906L25.7511 0.498169H21.5117L14.7939 15.7164H19.1855L20.3812 12.7597H20.3818L21.6422 9.58565H21.6422L23.5988 4.7158L25.5554 9.58565H24.032L22.9464 12.7597Z" fill="white"/>
<path fill-rule="evenodd" clip-rule="evenodd" d="M38.0155 11.6727H40.3635L43.1245 15.7164H47.7335L44.4507 10.9335C45.4073 10.4698 46.1392 9.83204 46.6465 9.0204C47.1682 8.19426 47.4291 7.23044 47.4291 6.12893C47.4291 4.98393 47.1537 3.99112 46.603 3.1505C46.0522 2.29537 45.2696 1.64316 44.255 1.19386C43.2405 0.730066 42.0447 0.498169 40.6679 0.498169H33.7109V3.88809H38.4974V3.88967H40.407C41.2911 3.88967 41.9578 4.08533 42.4071 4.47666C42.8564 4.86798 43.081 5.41874 43.081 6.12893C43.081 6.83911 42.8564 7.38987 42.4071 7.78119C41.9578 8.15803 41.2911 8.34644 40.407 8.34644H38.0155V8.34641H33.7109V15.7164H38.0155V11.6727Z" fill="white"/>
<path d="M62.0218 12.3902V15.7164H49.8037V0.498169H62.0435V3.82445H54.0648V6.38981H60.8261V9.60739H54.0648V12.3902H62.0218Z" fill="white"/>
<path d="M71.0632 11.6727H68.7152V15.7164H64.4106V0.498169H71.3676C72.7445 0.498169 73.9402 0.730066 74.9547 1.19386C75.9693 1.64316 76.7519 2.29537 77.3027 3.1505C77.8534 3.99112 78.1288 4.98393 78.1288 6.12893C78.1288 7.23044 77.8679 8.19426 77.3462 9.0204C76.8389 9.83204 76.107 10.4698 75.1504 10.9335L78.4332 15.7164H73.8242L71.0632 11.6727ZM73.7807 6.12893C73.7807 5.41874 73.5561 4.86798 73.1068 4.47666C72.6575 4.08533 71.9908 3.88967 71.1067 3.88967H68.7152V8.34644H71.1067C71.9908 8.34644 72.6575 8.15803 73.1068 7.78119C73.5561 7.38987 73.7807 6.83911 73.7807 6.12893Z" fill="white"/>
<path d="M80.5037 0.498169H84.8083V15.7164H80.5037V0.498169Z" fill="white"/>
<path fill-rule="evenodd" clip-rule="evenodd" d="M95.0667 0.498169H87.8706V3.9283H92.6052V3.93315H94.8927C96.1972 3.93315 97.2407 4.30273 98.0234 5.04191C98.8205 5.78108 99.2191 6.80288 99.2191 8.1073C99.2191 9.41172 98.8205 10.4335 98.0234 11.1727C97.2407 11.9119 96.1972 12.2815 94.8927 12.2815H92.1752V8.38937H87.8706V15.7164H95.0667C96.7334 15.7164 98.2118 15.4048 99.5017 14.7816C100.792 14.1584 101.792 13.2743 102.502 12.1293C103.212 10.9843 103.567 9.64362 103.567 8.1073C103.567 6.57098 103.212 5.23032 102.502 4.08533C101.792 2.94034 100.792 2.05623 99.5017 1.43301C98.2118 0.809781 96.7334 0.498169 95.0667 0.498169Z" fill="white"/>
<path fill-rule="evenodd" clip-rule="evenodd" d="M103.95 0.498169H117.212V3.81478H106.306L103.95 0.498169ZM103.95 15.7164H117.212V12.3998H106.306L103.95 15.7164ZM115.986 6.40685H106.3L106.303 9.60422H115.986V6.40685Z" fill="white"/>
<path d="M2.26832 21.6274H0.746094V20.9997H4.55166V21.6274H3.02944V25.4566H2.26832V21.6274Z" fill="#F8F8F8"/>
<path d="M14.1807 24.821V25.4566H10.838V20.9997H14.0943V21.6274H11.5991V22.8829H13.8197V23.5028H11.5991V24.821H14.1807Z" fill="#F8F8F8"/>
<path d="M22.7835 25.5193C22.3284 25.5193 21.9151 25.4199 21.5437 25.2212C21.1775 25.0224 20.8898 24.7504 20.6806 24.4051C20.4713 24.0546 20.3667 23.6623 20.3667 23.2281C20.3667 22.794 20.4713 22.4043 20.6806 22.059C20.8898 21.7085 21.1775 21.4339 21.5437 21.2351C21.9151 21.0363 22.3284 20.937 22.7835 20.937C23.5524 20.937 24.1383 21.1697 24.5411 21.6353L24.0546 22.1296C23.7198 21.7739 23.304 21.5961 22.807 21.5961C22.4879 21.5961 22.2002 21.6667 21.9439 21.8079C21.6928 21.9439 21.494 22.1375 21.3475 22.3886C21.2063 22.6344 21.1357 22.9143 21.1357 23.2281C21.1357 23.5368 21.2063 23.8166 21.3475 24.0677C21.494 24.3136 21.6928 24.5071 21.9439 24.6484C22.2002 24.7896 22.4879 24.8602 22.807 24.8602C23.2987 24.8602 23.7146 24.6797 24.0546 24.3188L24.5411 24.8131C24.1331 25.2839 23.5472 25.5193 22.7835 25.5193Z" fill="#F8F8F8"/>
<path d="M31.0567 20.9997H31.8178V22.8829H34.258V20.9997H35.0192V25.4566H34.258V23.5106H31.8178V25.4566H31.0567V20.9997Z" fill="#F8F8F8"/>
<path d="M45.9982 20.9997V25.4566H45.3705L42.7968 22.3101V25.4566H42.0357V20.9997H42.6634L45.2371 24.1619V20.9997H45.9982Z" fill="#F8F8F8"/>
<path d="M55.0234 25.5193C54.5683 25.5193 54.1551 25.4199 53.7837 25.2212C53.4123 25.0224 53.1219 24.7504 52.9127 24.4051C52.7035 24.0546 52.5988 23.6623 52.5988 23.2281C52.5988 22.794 52.7035 22.4043 52.9127 22.059C53.1219 21.7085 53.4123 21.4339 53.7837 21.2351C54.1551 21.0363 54.5683 20.937 55.0234 20.937C55.4837 20.937 55.897 21.0363 56.2632 21.2351C56.6346 21.4339 56.9249 21.7085 57.1341 22.059C57.3434 22.4043 57.448 22.794 57.448 23.2281C57.448 23.6623 57.3434 24.0546 57.1341 24.4051C56.9249 24.7504 56.6346 25.0224 56.2632 25.2212C55.897 25.4199 55.4837 25.5193 55.0234 25.5193ZM55.0234 24.8602C55.3373 24.8602 55.6197 24.7896 55.8708 24.6484C56.1219 24.5071 56.3181 24.3136 56.4593 24.0677C56.6058 23.8219 56.679 23.542 56.679 23.2281C56.679 22.9143 56.6058 22.6344 56.4593 22.3886C56.3181 22.1427 56.1219 21.9492 55.8708 21.8079C55.6197 21.6667 55.3373 21.5961 55.0234 21.5961C54.7096 21.5961 54.4271 21.6667 54.176 21.8079C53.9249 21.9492 53.7261 22.1427 53.5797 22.3886C53.4384 22.6344 53.3678 22.9143 53.3678 23.2281C53.3678 23.542 53.4384 23.8219 53.5797 24.0677C53.7261 24.3136 53.9249 24.5071 54.176 24.6484C54.4271 24.7896 54.7096 24.8602 55.0234 24.8602Z" fill="#F8F8F8"/>
<path d="M64.0474 20.9997H64.8085V24.821H67.2017V25.4566H64.0474V20.9997Z" fill="#F8F8F8"/>
<path d="M75.4259 25.5193C74.9708 25.5193 74.5576 25.4199 74.1862 25.2212C73.8148 25.0224 73.5245 24.7504 73.3152 24.4051C73.106 24.0546 73.0014 23.6623 73.0014 23.2281C73.0014 22.794 73.106 22.4043 73.3152 22.059C73.5245 21.7085 73.8148 21.4339 74.1862 21.2351C74.5576 21.0363 74.9708 20.937 75.4259 20.937C75.8863 20.937 76.2995 21.0363 76.6657 21.2351C77.0371 21.4339 77.3274 21.7085 77.5367 22.059C77.7459 22.4043 77.8505 22.794 77.8505 23.2281C77.8505 23.6623 77.7459 24.0546 77.5367 24.4051C77.3274 24.7504 77.0371 25.0224 76.6657 25.2212C76.2995 25.4199 75.8863 25.5193 75.4259 25.5193ZM75.4259 24.8602C75.7398 24.8602 76.0223 24.7896 76.2734 24.6484C76.5245 24.5071 76.7206 24.3136 76.8619 24.0677C77.0083 23.8219 77.0816 23.542 77.0816 23.2281C77.0816 22.9143 77.0083 22.6344 76.8619 22.3886C76.7206 22.1427 76.5245 21.9492 76.2734 21.8079C76.0223 21.6667 75.7398 21.5961 75.4259 21.5961C75.1121 21.5961 74.8296 21.6667 74.5785 21.8079C74.3274 21.9492 74.1286 22.1427 73.9822 22.3886C73.8409 22.6344 73.7703 22.9143 73.7703 23.2281C73.7703 23.542 73.8409 23.8219 73.9822 24.0677C74.1286 24.3136 74.3274 24.5071 74.5785 24.6484C74.8296 24.7896 75.1121 24.8602 75.4259 24.8602Z" fill="#F8F8F8"/>
<path d="M87.4708 23.2046H88.2084V24.9465C87.9939 25.1296 87.735 25.2709 87.4316 25.3702C87.1282 25.4696 86.8143 25.5193 86.49 25.5193C86.0244 25.5193 85.6033 25.4199 85.2267 25.2212C84.8553 25.0224 84.5624 24.7504 84.3479 24.4051C84.1386 24.0546 84.034 23.6623 84.034 23.2281C84.034 22.794 84.1386 22.4043 84.3479 22.059C84.5571 21.7085 84.8474 21.4339 85.2188 21.2351C85.5903 21.0363 86.0035 20.937 86.4586 20.937C87.2433 20.937 87.8422 21.1697 88.2555 21.6353L87.769 22.1296C87.429 21.7739 86.9974 21.5961 86.4743 21.5961C86.1552 21.5961 85.8675 21.6667 85.6112 21.8079C85.3601 21.9439 85.1613 22.1375 85.0148 22.3886C84.8736 22.6344 84.803 22.9143 84.803 23.2281C84.803 23.5368 84.8736 23.8166 85.0148 24.0677C85.1613 24.3136 85.3627 24.5071 85.619 24.6484C85.8806 24.7896 86.1735 24.8602 86.4978 24.8602C86.8745 24.8602 87.1988 24.7765 87.4708 24.6091V23.2046Z" fill="#F8F8F8"/>
<path d="M95.0764 20.9997H95.8375V25.4566H95.0764V20.9997Z" fill="#F8F8F8"/>
<path d="M106.187 24.821V25.4566H102.845V20.9997H106.101V21.6274H103.606V22.8829H105.826V23.5028H103.606V24.821H106.187Z" fill="#F8F8F8"/>
<path d="M114.115 25.5193C113.77 25.5193 113.432 25.4722 113.103 25.3781C112.778 25.2787 112.525 25.1479 112.342 24.9858L112.64 24.3894C112.818 24.5359 113.04 24.6536 113.307 24.7425C113.579 24.8314 113.859 24.8759 114.146 24.8759C114.497 24.8759 114.753 24.8184 114.915 24.7033C115.083 24.5882 115.166 24.4391 115.166 24.256C115.166 24.1148 115.117 23.9997 115.017 23.9108C114.923 23.8219 114.803 23.7539 114.656 23.7068C114.51 23.6597 114.311 23.61 114.06 23.5577C113.72 23.4845 113.443 23.4086 113.228 23.3301C113.019 23.2517 112.839 23.1288 112.687 22.9614C112.54 22.7887 112.467 22.556 112.467 22.263C112.467 21.8655 112.627 21.5464 112.946 21.3057C113.27 21.0599 113.709 20.937 114.264 20.937C114.546 20.937 114.818 20.971 115.08 21.039C115.347 21.1017 115.574 21.1959 115.763 21.3214L115.488 21.9335C115.148 21.6981 114.732 21.5804 114.24 21.5804C113.9 21.5804 113.647 21.6405 113.479 21.7608C113.312 21.8759 113.228 22.0276 113.228 22.2159C113.228 22.3572 113.275 22.4723 113.369 22.5612C113.469 22.6501 113.592 22.7181 113.738 22.7652C113.89 22.8123 114.091 22.862 114.342 22.9143C114.688 22.9927 114.962 23.0712 115.166 23.1497C115.376 23.2229 115.553 23.3432 115.7 23.5106C115.852 23.678 115.927 23.9029 115.927 24.1854C115.927 24.5934 115.765 24.9178 115.441 25.1584C115.122 25.399 114.68 25.5193 114.115 25.5193Z" fill="#F8F8F8"/>
</svg>
