<svg width="497" height="333" viewBox="0 0 497 333" fill="none" xmlns="http://www.w3.org/2000/svg">
<g clip-path="url(#clip0_358_15532)">
<path d="M248.5 332.998C385.743 332.998 497 319.08 497 301.911C497 284.742 385.743 270.824 248.5 270.824C111.257 270.824 0 284.742 0 301.911C0 319.08 111.257 332.998 248.5 332.998Z" fill="#E9EAEB"/>
<path d="M235.475 33.6623C235.475 33.6623 231.603 22.6897 231.397 19.8392C231.192 16.9886 232.476 8.76623 242 7.89099C251.524 7.01576 255.07 6 255.07 6L253.255 8.1359C253.255 8.1359 255.903 7.31285 258.66 9.12355C261.418 10.9302 262.819 16.278 262.404 20.883C261.993 25.4881 258.387 30.5548 258.334 32.4618C258.286 34.3649 235.475 33.6623 235.475 33.6623Z" fill="#293331"/>
<path d="M209.505 147.516C209.505 147.516 209.287 150.025 206.663 155.473C206.663 155.473 205.459 159.179 213.329 164.739C221.198 170.3 213.546 147.516 213.546 147.516H209.505Z" fill="#FFC49B"/>
<path d="M237.274 50.6719C237.274 50.6719 232.863 74.239 228.045 98.858C222.812 125.617 217.108 153.621 216.086 153.962C214.117 154.616 211.11 152.055 209.798 148.783C208.743 146.153 206.936 124.533 208.168 110.561C208.466 107.153 208.816 104.35 209.202 102.62C211.171 93.7913 211.766 62.5518 217.667 57.6497C223.568 52.7435 237.274 50.6719 237.274 50.6719Z" fill="#FFC49B"/>
<path d="M237.274 50.6719C237.274 50.6719 234.731 64.2541 231.398 81.5661C230.343 87.0624 229.204 92.9281 228.045 98.858C223.327 108.08 219.278 114.351 218.03 113.171C215.478 110.77 211.002 110.473 208.164 110.561C208.462 107.153 208.812 104.35 209.198 102.62C209.355 101.921 209.5 101.086 209.641 100.131C211.291 89.0217 212.225 62.1624 217.663 57.6457C223.568 52.7435 237.274 50.6719 237.274 50.6719Z" fill="#88D0EF"/>
<path d="M231.398 81.5752C230.343 87.0715 229.204 92.9372 228.045 98.8672C223.327 108.089 219.278 114.36 218.03 113.18C215.478 110.779 211.002 110.482 208.164 110.57C208.462 107.162 208.812 104.359 209.198 102.629C209.355 101.93 209.5 101.095 209.641 100.14L223.786 66.0859L231.398 81.5752Z" fill="#6CAFCC"/>
<path d="M256.849 50.3278C256.954 45.5742 256.873 39.8972 256.229 35.1035L237.206 38.203C237.206 38.203 237.206 43.9924 237.291 50.4161C237.278 50.4161 237.27 50.4202 237.27 50.4202C237.27 50.4202 236.751 56.3782 244.109 57.2534C251.476 58.1246 257.047 54.9248 256.849 50.3278Z" fill="#FFC49B"/>
<path d="M237.157 39.373C237.157 39.373 241.638 48.5309 246.774 48.5309C251.91 48.5309 256.72 39.9191 256.72 39.9191L237.157 39.373Z" fill="#E1B291"/>
<path d="M249.833 301.841C249.833 301.841 250.525 296.461 252.127 293.266C253.729 290.07 263.929 292.101 263.929 292.101C263.929 292.101 265.97 293.844 266.405 301.986L249.833 301.841Z" fill="#293331"/>
<path d="M215.079 301.764C217.478 300.307 216.113 289.419 216.113 289.419C216.113 289.419 204.943 280.506 203.41 287.331C201.876 294.156 192.799 297.215 187.635 298.054C184.068 298.633 182.965 300.6 182.623 301.768H215.079V301.764Z" fill="#293331"/>
<path d="M237.773 40.0544C239.621 41.5037 245.043 42.9451 246.609 43.1137C246.609 43.1137 254.643 41.3271 256.104 40.4478C258.367 39.0788 258.222 36.3126 258.338 32.4623C258.479 27.9055 258.938 24.3282 258.427 21.7025C257.819 18.5589 255.823 16.7723 250.232 16.2865C239.967 15.3992 235.688 17.9607 235.511 21.3934C235.467 22.3168 235.423 23.192 235.395 24.0271C234.98 34.7307 235.829 38.5247 237.773 40.0544Z" fill="#FFC49B"/>
<path d="M238.216 220.873C237.761 223.37 237.471 225.421 237.395 226.891C236.356 247.09 220.348 293.276 217.482 294.356C213.05 296.022 206.074 292.477 202.424 291.317C200.91 290.835 199.892 289.314 200.226 287.772C208.155 251.418 211.066 199.072 212.128 168.077C212.664 152.468 215.349 141.684 215.349 141.684C215.349 141.684 254.394 131.293 254.627 144.438C254.836 156.069 241.698 201.686 238.216 220.873Z" fill="#199F97"/>
<path d="M238.216 220.873L212.133 168.077C212.668 152.468 215.353 141.684 215.353 141.684C215.353 141.684 254.398 131.293 254.631 144.438C254.837 156.069 241.698 201.686 238.216 220.873Z" fill="#147973"/>
<path d="M229.526 144.479L250.167 293.699C250.167 293.699 259.232 295.879 266.285 294.137C266.285 294.137 272.326 214.775 271.823 195.588C271.32 176.401 276.163 144.25 270.72 140.705C265.278 137.156 229.526 144.479 229.526 144.479Z" fill="#199F97"/>
<path d="M273.687 140.701C273.755 142.431 272.383 143.873 270.652 143.897L238.124 144.391L214.23 144.756C213.111 144.776 216.649 135.847 216.721 77.6357C216.738 64.6436 236.9 50.668 237.274 50.668L237.278 50.672C237.278 52.5429 240.233 55.9957 244.786 56.2928C250.187 56.6461 256.821 53.9642 256.821 50.8607C256.821 50.8245 257.449 51.5031 258.459 52.9685C261.156 56.887 266.59 66.4463 270.06 83.0878C272.797 96.2284 271.747 113.797 273.719 136.465C273.856 138.099 273.643 139.557 273.687 140.701Z" fill="white"/>
<path d="M272.483 144.077C272.483 144.077 268.16 146.008 260.073 147.683C254.06 148.927 245.969 150.031 236.027 150.092C220.215 150.192 214.23 144.756 214.23 144.756C213.111 144.776 216.649 135.847 216.721 77.6357C216.738 64.6436 236.9 50.668 237.274 50.668L237.278 50.672C237.278 50.672 236.759 67.972 242.008 73.0547C242.008 73.0547 249.366 67.3858 258.914 51.2541C261.611 55.1726 266.594 66.4463 270.06 83.0878C270.765 86.4724 271.219 90.15 271.537 94.1367C272.459 105.619 272.254 119.635 273.715 136.465C273.86 138.103 273.647 139.557 273.687 140.705C273.751 142.431 274.218 144.053 272.483 144.077Z" fill="#88D0EF"/>
<path d="M272.483 144.079C272.483 144.079 268.16 146.01 260.073 147.685C257.529 143.814 254.321 136.829 253.878 125.82C253.126 107.203 270.857 83.2344 270.857 83.2344L271.533 94.1347C272.455 105.617 272.25 119.633 273.711 136.463C273.856 138.101 273.642 139.555 273.683 140.703C273.751 142.433 274.218 144.055 272.483 144.079Z" fill="#6CAFCC"/>
<path d="M257.116 81.0469L226.897 98.4492L250.829 139.793L281.048 122.39L257.116 81.0469Z" fill="#147973"/>
<path d="M285.791 119.714C285.791 119.714 279.604 120.316 269.022 119.232C261.39 118.449 251.468 116.787 239.939 113.391L243.309 107.649C243.309 107.649 257.087 107.043 267.182 105.57C269.698 105.204 271.981 104.783 273.768 104.305C275.961 103.719 265.069 76.185 259.575 59.9932C258.262 56.1309 257.26 52.911 256.813 50.8594C256.813 50.8594 257.771 51.016 259.281 51.309C263.56 52.1522 272.25 54.1315 275.953 56.9218C280.961 60.6957 293.455 103.261 285.791 119.714Z" fill="#FFC49B"/>
<path d="M243.437 107.649C243.437 107.649 238.768 103.289 236.964 103.289C235.161 103.289 229.96 105.18 229.429 106.633C228.898 108.087 228.688 110.704 230.174 111.287C231.659 111.869 237.814 113.322 239.403 113.467C240.997 113.607 244.922 112.736 243.437 107.649Z" fill="#FFC49B"/>
<path d="M285.791 119.715C285.791 119.715 279.604 120.317 269.021 119.233C269.605 116.367 270.148 110.766 267.182 105.571C269.698 105.205 271.98 104.784 273.767 104.306C275.961 103.72 265.069 76.1861 259.574 59.9942C259.135 54.7589 258.902 51.2539 258.902 51.2539L259.28 51.3101C263.559 52.1532 272.25 54.1325 275.953 56.9229C280.96 60.6968 293.455 103.262 285.791 119.715Z" fill="#88D0EF"/>
<path d="M242 73.0588C242 73.0588 256.72 66.5909 256.938 66.081C257.155 65.5711 256.209 61.6486 255.191 60.4843C255.191 60.4843 262.259 61.1387 262.694 60.2675C263.132 59.3963 263.277 52.1294 263.277 52.1294C263.277 52.1294 260.508 49.2227 256.865 48.9336C256.865 48.9336 253.677 56.8228 252.494 59.1795C249.362 65.4266 242 73.0588 242 73.0588Z" fill="#6CAFCC"/>
<path d="M238.502 60.2706C238.502 60.2706 239.448 67.8306 242 73.0619C242 73.0619 234.312 67.7222 233.656 65.9757C233 64.2333 235.515 60.8528 235.515 60.8528C235.515 60.8528 230.927 60.7444 230.814 59.2187C230.705 57.6931 232.235 51.6989 232.235 51.6989C232.235 51.6989 236.184 48.8243 237.274 48.9327L238.502 60.2706Z" fill="#6CAFCC"/>
<path d="M235.302 27.4588C235.302 27.4588 235.7 20.6375 239.943 20.5532C244.19 20.4689 251.572 20.0594 254.639 17.1807C257.707 14.3021 236.405 15.619 236.405 15.619C236.405 15.619 233.833 23.8374 235.302 27.4588Z" fill="#293331"/>
<path d="M252.349 18.1969C252.349 18.1969 257.884 20.4452 258.66 23.9542C258.66 23.9502 260.484 11.0143 252.349 18.1969Z" fill="#293331"/>
<path d="M182.986 154.188C182.986 154.188 193.117 157.676 191.692 169.319C191.692 169.319 190.758 174.041 187.84 171.949C184.922 169.853 186.29 170.239 182.124 167.376C177.958 164.514 175.241 159.997 175.716 156.408L182.986 154.188Z" fill="#FFC49B"/>
<path d="M183.448 154.936L177.446 162.199C177.169 162.54 176.726 162.692 176.291 162.612C170.668 161.58 151.306 149.134 144.967 144.055C144.278 143.505 143.747 143.04 143.397 142.686C141.034 140.285 132.879 128.43 127.09 117.871C123.757 111.788 121.209 106.139 121.008 102.972C120.288 91.6697 126.249 75.8633 126.249 75.8633C143.884 81.9859 145.739 96.0258 145.739 96.0258L155.517 132.316L183.206 152.956C183.838 153.43 183.947 154.333 183.448 154.936Z" fill="#D0D0D0"/>
<path d="M144.967 144.058C144.278 143.508 143.747 143.042 143.397 142.689C141.034 140.288 132.879 128.432 127.09 117.873C126.342 111.494 126.857 105.508 129.494 101.324C129.498 101.324 144.488 127.634 144.967 144.058Z" fill="#BBBBBB"/>
<path d="M134.807 248.616L131.808 261.086L129.952 268.803L123.778 294.49C123.778 294.49 118.493 296.116 112.998 294.49C112.998 294.49 110.961 285.99 110.905 275.387C110.873 269.842 111.384 263.72 113.006 257.938C113.666 255.586 114.512 253.293 115.582 251.117C124.297 233.368 134.807 248.616 134.807 248.616Z" fill="#FFC49B"/>
<path d="M139.927 301.996H110.905C110.905 301.996 110.446 297.616 111.726 293.425C111.916 292.802 112.141 292.184 112.415 291.586C112.415 291.586 118.895 293.051 124.482 291.586C124.482 291.586 129.735 296.05 132.911 297.415C136.083 298.785 139.589 298.042 139.927 301.996Z" fill="#293331"/>
<path d="M131.808 261.078L129.952 268.794C126.797 270.802 119.99 274.439 110.901 275.379C110.869 269.834 111.38 263.712 113.002 257.93C115.671 256.581 118.388 255.875 120.702 256.276C126.466 257.28 129.892 259.38 131.808 261.078Z" fill="#E1B291"/>
<path d="M124.853 301.994H110.905C110.905 301.994 110.446 297.613 111.726 293.422C115.224 294.51 122.349 297.236 124.853 301.994Z" fill="#293331"/>
<path d="M111.674 248.616L108.675 261.086L106.819 268.803L100.644 294.49C100.644 294.49 95.3593 296.116 89.8648 294.49C89.8648 294.49 87.828 285.99 87.7717 275.387C87.7395 269.842 88.2507 263.72 89.8729 257.938C90.533 255.586 91.3783 253.293 92.449 251.117C101.16 233.368 111.674 248.616 111.674 248.616Z" fill="#FFC49B"/>
<path d="M89.2735 291.586C89.2735 291.586 95.7542 293.051 101.341 291.586C101.341 291.586 106.594 296.05 109.77 297.419C112.946 298.789 116.456 298.046 116.79 302H87.7681C87.7681 301.996 87.1603 296.219 89.2735 291.586Z" fill="#293331"/>
<path d="M108.675 261.078L106.819 268.794C103.664 270.802 96.8568 274.439 87.7678 275.379C87.7356 269.834 88.2468 263.712 89.869 257.93C92.5377 256.581 95.2548 255.875 97.5693 256.276C103.333 257.28 106.755 259.38 108.675 261.078Z" fill="#E1B291"/>
<path d="M140.865 260.255C140.169 262.828 137.826 264.611 135.157 264.611H88.6173C85.1113 264.611 82.354 261.64 82.6196 258.155C83.1067 251.832 84.8537 241.505 85.6144 234.536C85.9324 231.637 86.0773 229.32 85.8922 228.112C81.1947 197.109 77.25 160.594 77.729 153.612C77.7974 152.629 77.8457 152.123 77.8457 152.123C77.8457 152.123 81.235 151.838 86.3913 151.637C101.377 151.047 131.293 151.151 136.264 160.923C141.328 170.88 144.383 237.001 144.383 237.001C145.128 243.18 142.515 254.168 140.865 260.255Z" fill="#E13D51"/>
<path d="M85.6144 234.539C85.9324 231.64 86.0773 229.324 85.8922 228.115C81.1947 197.113 77.25 160.598 77.729 153.616C77.7974 152.632 77.8457 152.126 77.8457 152.126C77.8457 152.126 81.235 151.841 86.3913 151.641C94.144 156.197 99.1916 163.958 99.1916 163.958C99.1916 163.958 97.6298 221.973 85.6144 234.539Z" fill="#C13042"/>
<path d="M108.635 29.8588C108.635 26.4181 110.796 23.4993 114.512 24.4227C117.857 25.2578 121.125 25.2217 121.125 28.6584C121.125 32.0991 118.328 36.0858 114.878 36.0858C111.432 36.0898 108.635 33.2995 108.635 29.8588Z" fill="#DFDFDF"/>
<path d="M112.596 60.098C112.596 60.098 93.2304 42.7017 110.76 30.3841C110.76 30.3841 115.993 28.995 118.65 29.4888C118.65 29.4888 128.182 26.7065 133.757 33.1624C139.332 39.6183 141.755 44.2875 136.977 50.0488C132.199 55.8102 112.596 60.098 112.596 60.098Z" fill="#DFDFDF"/>
<path d="M90.3725 165.169C90.3725 165.169 95.1545 174.736 85.9608 182.051C85.9608 182.051 81.9758 184.769 81.364 181.236C80.7522 177.703 81.4566 178.936 80.4945 173.981C79.5325 169.027 80.7642 163.904 83.6222 161.672L90.3725 165.169Z" fill="#FFC49B"/>
<path d="M128.459 59.9384C128.459 59.9384 128.222 62.544 127.779 66.065C127.561 67.7834 127.3 69.7265 126.99 71.6858C126.768 73.095 126.523 74.5122 126.257 75.8693L120.26 96.068L106.179 73.3439C106.179 73.3439 109.488 70.6138 113.972 55.8151C114.016 55.6585 114.045 55.5742 114.045 55.5742L128.459 59.9384Z" fill="#FFC49B"/>
<path d="M136.663 159.583C136.848 161.851 136.268 162.265 136.268 162.265C136.268 162.265 127.61 165.396 105.838 164.312C103.483 164.196 101.261 164.075 99.1918 163.951C85.1598 163.124 77.6567 162.265 77.6567 162.265C77.6567 162.265 66.1646 135.807 87.7561 103.206C90.1994 99.5208 93.0613 95.7548 96.4144 91.9447C99.9123 87.966 100.681 82.6464 102.005 77.5877C102.384 76.1383 101.289 75.8171 101.836 74.4481C101.836 74.4481 105.773 73.3359 106.18 73.3359C108.414 75.3032 111.364 79.1213 118.686 79.8761C123.637 80.39 125.573 77.6077 126.278 75.9416C128.166 76.6201 130.122 77.7964 131.724 78.5633C144.991 84.9148 146.211 97.2363 146.211 97.2363C146.211 97.2363 134.018 137.224 133.262 142.215C132.919 144.439 135.717 147.892 136.663 159.583Z" fill="#D0D0D0"/>
<path d="M127.779 66.065C127.562 67.7834 126.833 72.4928 126.523 74.452C111.614 68.6546 113.566 57.3568 113.973 55.8151C114.017 55.6585 114.045 55.5742 114.045 55.5742C114.045 55.5742 121.931 61.1589 127.779 66.065Z" fill="#E1B291"/>
<path d="M130.971 68.0555C130.971 68.0555 113.751 68.6056 113.574 57.906C113.397 47.2064 111.054 40.068 122.039 39.2651C133.024 38.4621 135.23 42.5091 136.164 46.0662C137.094 49.6234 135.447 67.638 130.971 68.0555Z" fill="#FFC49B"/>
<path d="M132.477 37.6612C132.477 37.6612 131.394 55.5272 110.402 53.6122C110.402 53.6122 110.849 28.8687 132.477 37.6612Z" fill="#DFDFDF"/>
<path d="M128.46 39.4434C128.46 39.4434 134.341 46.7062 137.009 49.0228C137.009 49.0228 143.554 39.6561 128.46 39.4434Z" fill="#C65447"/>
<path d="M128.46 39.443C128.46 39.443 133.745 48.3439 136.414 50.6604C136.414 50.6604 144.974 38.9477 128.46 39.443Z" fill="#DFDFDF"/>
<path d="M99.1918 163.956C85.1598 163.128 77.6567 162.269 77.6567 162.269C77.6567 162.269 66.1646 135.811 87.7561 103.211C92.1275 113.373 102.436 140.533 99.1918 163.956Z" fill="#BBBBBB"/>
<path d="M106.18 73.3398C106.18 73.3398 89.519 76.7484 82.1004 85.3201C76.4087 91.8884 70.1897 124.003 70.1897 129.307C70.1897 134.378 76.0344 161.337 79.6813 166.504C79.9348 166.862 80.3575 167.062 80.7962 167.014L90.1791 166.023C90.964 165.942 91.5155 165.22 91.3947 164.445L86.1217 130.367L104.626 97.6337C104.626 97.6377 115.534 84.738 106.18 73.3398Z" fill="#D0D0D0"/>
<path d="M177.644 292.765C177.644 292.765 179.057 295.511 182.18 296.19C184.149 296.619 185.835 297.639 186.886 299.073C187.771 300.285 186.914 301.987 185.413 301.987H169.541C168.189 301.987 167.134 300.823 167.271 299.482C167.387 298.31 167.512 296.945 167.565 295.897C167.681 293.608 169.98 291.77 169.98 291.77L177.644 292.765Z" fill="#293331"/>
<path d="M181.238 252.844C181.903 264.88 180.256 292.241 180.256 292.241C180.256 292.241 179.149 295.293 172.161 296.019C168.418 296.409 165.049 295.441 165.049 295.441C163.64 288.965 162.336 282.778 161.136 276.897C152.51 234.681 149.145 208.608 149.145 208.608L183.199 200.711C183.199 200.711 181.705 224.543 181.267 240.795C181.13 245.87 181.093 250.206 181.238 252.844Z" fill="#88D0EF"/>
<path d="M183.195 200.711C183.195 200.711 181.701 224.543 181.262 240.795L161.132 276.897C152.506 234.681 149.141 208.608 149.141 208.608L183.195 200.711Z" fill="#6CAFCC"/>
<path d="M148.96 146.126C148.96 146.126 135.781 140.144 125.815 145.376C115.844 150.611 121.938 193.807 136.196 197.994C136.196 197.994 162.903 206.514 148.96 146.126Z" fill="#147973"/>
<path d="M187.075 210.783C187.035 210.723 186.994 210.666 186.946 210.614C186.403 209.787 185.215 206.824 185.215 206.824L183.078 209.615C183.021 209.675 182.176 209.016 182.132 209.089L182.341 216.311L184.466 215.809C184.559 215.785 184.648 215.753 184.732 215.717C184.99 215.597 185.219 215.408 185.38 215.151L187.095 212.437C187.429 211.915 187.397 211.265 187.075 210.783Z" fill="#E1B291"/>
<path d="M177.253 139.414C177.253 139.414 181.452 139.426 183.955 145.308C189.152 157.505 186.894 183.826 186.58 187.596C186.58 187.596 188.363 195.08 185.715 208.024L182.261 210.063C182.261 210.063 176.939 158.922 177.592 153.868C178.236 148.817 177.253 139.414 177.253 139.414Z" fill="#E1B291"/>
<path d="M150.014 292.765C150.014 292.765 151.427 295.511 154.551 296.19C156.519 296.619 158.206 297.639 159.256 299.073C160.142 300.285 159.285 301.987 157.783 301.987H141.912C140.559 301.987 139.505 300.823 139.641 299.482C139.758 298.31 139.883 296.945 139.935 295.897C140.052 293.608 142.346 291.77 142.346 291.77L150.014 292.765Z" fill="#293331"/>
<path d="M161.056 91.168C157.662 91.168 153.396 92.6254 151.109 94.8416C148.678 97.1983 146.15 97.3187 144.351 100.097C142.475 102.996 141.312 106.007 142.254 110.086C143.284 114.542 143.075 118.85 145.88 122.122C147.269 123.74 149.531 123.925 151.109 125.411C154.007 128.141 157.3 129.008 161.056 129.008C168.136 129.008 172.544 124.824 176.17 119.609C179.073 115.434 178.497 112.615 179.181 109.042C181.323 97.8005 171.916 91.168 161.056 91.168Z" fill="#293331"/>
<path d="M171.026 136.506L157.489 143.408L154.776 134.041C154.776 134.041 156.499 130.801 157.28 125.49C157.606 123.258 157.767 120.66 157.562 117.781L168.591 123.414C168.591 123.414 168.329 124.43 168.152 125.931C167.963 127.553 167.883 129.741 168.341 131.817C168.74 133.6 169.541 135.302 171.026 136.506Z" fill="#FFC49B"/>
<path d="M139.666 204.371C139.666 204.371 137.094 238.393 137.665 292.618C137.665 292.618 140.769 294.248 144.512 294.617C151.504 295.312 153.207 292.545 153.207 292.545C153.207 292.545 160.356 266.08 162.143 254.156C163.789 243.163 174.613 203.492 174.613 203.492L139.666 204.371Z" fill="#88D0EF"/>
<path d="M179.975 137.444C178.771 136.882 174.995 135.372 169.316 134.441C169.376 136.38 168.857 138.191 165.439 138.64C160.895 139.23 156.833 136.139 154.777 134.035C154.777 134.035 151.572 134.376 147.837 135.191C145.969 135.601 143.965 136.127 142.165 136.793C139.984 137.592 138.096 138.592 137.094 139.821C137.094 139.821 137.094 139.821 137.09 139.821C133.596 144.1 127.844 156.984 127.844 156.984C127.844 156.984 137.42 160.525 139.831 162.589L139.887 163.05L141.384 175.46L136.92 200.18C136.884 200.397 136.86 200.613 136.86 200.826C136.86 202.48 137.991 203.966 139.658 204.363C139.658 204.363 140.04 204.427 140.748 204.524C145.478 205.186 164.683 207.471 179.741 203.396C183.126 202.48 185.356 199.256 185.079 195.763L182.623 165.038C183.935 164.813 185.445 164.576 186.677 164.44C187.699 164.327 188.52 164.291 188.862 164.391C188.866 164.399 187.164 140.407 179.975 137.444Z" fill="#FFA561"/>
<path d="M151.561 183.049C151.371 191.673 145.704 201.807 140.757 204.541C140.048 204.445 139.666 204.38 139.666 204.38C138.004 203.983 136.868 202.493 136.868 200.843C136.868 200.631 136.889 200.414 136.929 200.197L141.393 175.478L139.895 163.068C139.968 162.851 140.008 162.734 140.008 162.734C140.008 162.734 151.899 167.809 151.561 183.049Z" fill="#FF8528"/>
<path d="M186.681 164.449C185.421 164.59 182.623 165.047 182.623 165.047L181.207 152.176C181.203 152.176 185.94 161.249 186.681 164.449Z" fill="#FF8528"/>
<path d="M137.725 195.775L138.885 189.356C158.512 161.031 159.997 155.948 151.17 143.233C148.642 139.592 144.045 137.315 142.169 136.797C143.969 136.131 145.969 135.605 147.841 135.195C149.705 136.067 151.415 136.926 152.748 138.074C179.685 161.336 137.725 195.775 137.725 195.775Z" fill="#147973"/>
<path d="M149.29 168.901C149.777 168.865 151.894 167.805 151.894 167.805C151.894 167.805 152.957 159.952 160.641 159.422C160.641 159.422 163.841 159.442 163.185 161.622C162.529 163.802 162.461 162.855 161.603 165.95C160.746 169.045 158.512 171.402 156.137 171.543L153.702 172.201C153.706 172.201 148.01 168.993 149.29 168.901Z" fill="#FFC49B"/>
<path d="M151.899 167.806C151.899 167.806 139.002 168.975 137.094 169.818C137.094 169.818 138.14 166.995 140 162.727C138.318 161.077 132.791 158.624 129.132 157.496C126.342 164.598 125.268 171.628 126.833 178.405C126.998 179.12 127.63 179.634 128.367 179.666C132.493 179.859 146.187 179.791 156.133 171.452L151.899 167.806Z" fill="#FFC49B"/>
<path d="M168.341 131.812C162.07 131.643 157.28 125.484 157.28 125.484L168.148 125.926C167.963 127.548 167.879 129.732 168.341 131.812Z" fill="#E1B291"/>
<path d="M168.941 128.037C168.941 128.037 155.086 129.723 154.788 119.983C154.494 110.247 160.271 103.94 164.123 104.012C171.811 104.157 173.079 107.256 173.968 110.48C174.858 113.704 175.317 127.351 168.941 128.037Z" fill="#FFC49B"/>
<path d="M165.234 122.424C165.234 122.424 165.536 123.636 168.571 123.416C168.571 123.416 171.119 123.227 171.026 121.89C171.022 121.89 168.539 120.967 165.234 122.424Z" fill="white"/>
<path d="M167.553 104.097C167.553 104.097 155.71 104.089 158.431 112.199C160.146 117.31 154.442 118.105 154.442 118.105L151.697 109.915L153.416 103.531L167.553 104.097Z" fill="#293331"/>
<path d="M283.766 133.338C270.724 130.026 256.39 109.847 256.39 109.847L260.061 106.671C263.861 111.14 279.668 118.84 279.668 118.84C279.584 114.749 279.693 111.019 279.95 107.623C281.705 84.5375 290.428 76.8491 292.811 75.1629C293.193 74.8899 293.415 74.7734 293.415 74.7734C293.415 74.7734 293.423 74.9421 293.439 75.2592C293.475 75.9458 293.535 77.3269 293.6 79.2219C294.087 93.3501 294.663 136.104 283.766 133.338Z" fill="#FFC49B"/>
<path d="M260.061 106.676C260.005 106.13 259.638 98.2007 258.061 96.6911C256.483 95.1815 253.363 93.1259 252.465 93.2905C251.568 93.4552 248.525 98.5058 249.962 101.987C251.399 105.464 256.39 109.856 256.39 109.856L260.061 106.676Z" fill="#FFC49B"/>
<path d="M263.302 107.591L254.712 107.949C254.426 107.961 254.184 107.74 254.172 107.455L253.488 91.1184C253.476 90.8334 253.697 90.5925 253.983 90.5804L262.573 90.2231C262.859 90.2111 263.1 90.4319 263.112 90.717L263.797 107.053C263.809 107.338 263.587 107.579 263.302 107.591Z" fill="#F1A34F"/>
<path d="M261.071 107.681L253.283 108.007C252.775 108.027 252.349 107.637 252.329 107.131L251.677 91.5939C251.656 91.088 252.047 90.6624 252.554 90.6424L260.343 90.3171C260.85 90.2971 261.277 90.6865 261.297 91.1924L261.949 106.73C261.969 107.236 261.575 107.661 261.071 107.681Z" fill="#D86713"/>
<path d="M251.813 93.8914C251.813 93.8914 254.156 91.2857 256.495 93.2771C258.838 95.2684 256.338 99.5242 254.309 100.688C252.276 101.853 251.624 102.459 251.624 102.459L251.813 93.8914Z" fill="#FFC49B"/>
<path d="M312.164 267.542C311.371 270.694 310.494 273.693 309.604 276.483C309.411 277.081 309.226 277.671 309.033 278.246C308.936 278.531 308.843 278.816 308.751 279.093C308.562 279.647 308.376 280.189 308.195 280.719C307.954 281.409 307.712 282.084 307.475 282.734C307.302 283.216 307.125 283.69 306.956 284.155C304.311 291.23 302.093 295.714 302.093 295.714L296.824 295.353C296.824 295.353 298.804 285.966 299.199 272.52C299.211 272.039 299.227 271.557 299.235 271.067C299.255 270.023 299.267 268.963 299.267 267.875C299.267 267.43 299.263 266.98 299.259 266.526C299.155 254.947 297.718 241.261 293.129 228.192C289.401 217.569 286.696 207.628 284.74 198.647C278.429 169.652 279.914 150.602 279.914 150.602L309.556 154.062L310.936 154.223C311.061 167.801 311.411 186.241 311.717 200.655C311.77 203.156 311.818 205.541 311.87 207.753C312.076 217.007 312.229 223.335 312.229 223.335C317.932 235.584 315.863 252.864 312.164 267.542Z" fill="#E1B291"/>
<path d="M303.675 49.089C303.675 49.089 310.687 55.043 304.258 61.9004C304.258 61.9004 309.616 62.4263 311.431 60.9448C311.431 60.9448 311.073 61.6675 310.743 61.9927C310.743 61.9927 316.733 62.2095 319.208 60.3426C321.68 58.4797 320.094 27.9067 303.465 31.3273C303.465 31.3273 289.373 30.2674 290.685 46.5315C291.997 62.7957 286.676 62.7957 286.676 62.7957C286.676 62.7957 288.157 63.5223 288.87 63.5223C288.87 63.5223 289.912 63.1249 290.122 62.5508C290.122 62.5508 289.916 63.4541 289.647 63.7432C289.647 63.7432 295.391 64.2852 298.257 62.1252C301.127 59.9572 304.496 52.4454 303.675 49.089Z" fill="#293331"/>
<path d="M326.309 147.289C320.705 134.759 318.025 131.213 317.932 127.271C317.86 124.151 319.401 120.787 322.392 112.54C323.096 110.597 323.583 108.598 323.881 106.578C326.248 90.6755 317.03 73.484 311.298 72.3116C309.704 71.8901 306.999 66.1489 307.036 56.8906L306.319 57.0311L294.251 59.416C294.251 59.416 294.525 63.202 294.533 66.7712C294.541 69.7462 294.38 72.7693 293.704 73.1267C292.835 73.207 292.046 73.3635 292.046 73.3635C292.046 73.3635 281.833 80.518 281.173 90.2179C280.292 103.178 289.453 118.543 281.33 144.442C273.038 170.9 329.404 154.214 326.309 147.289Z" fill="#FFC49B"/>
<path d="M294.252 59.4161C294.252 59.4161 294.525 63.2021 294.533 66.7713C301.288 66.5826 304.854 60.4358 306.319 57.0312L294.252 59.4161Z" fill="#E1B291"/>
<path d="M307.567 55.7212C307.567 55.7212 311.105 50.1446 311.955 45.375C312.562 41.9704 310.824 29.3517 298.108 31.1704C298.108 31.1704 294.417 31.5318 290.943 33.8724C288.181 35.7313 284.2 39.7462 288.652 50.7589L289.808 54.4806L307.567 55.7212Z" fill="#293331"/>
<path d="M291.997 62.792C291.997 62.792 307.974 63.057 307.986 53.1282C307.998 43.2036 310.067 36.551 299.867 35.9648C289.667 35.3786 287.682 39.1646 286.869 42.4769C286.056 45.7891 287.843 62.4708 291.997 62.792Z" fill="#FFC49B"/>
<path d="M292.589 35.7216C292.589 35.7216 296.964 47.3646 303.674 49.087C310.388 50.8094 313.299 49.0147 313.299 49.0147C313.299 49.0147 308.15 44.9357 307.08 37.8133C307.084 37.8133 295.889 30.1771 292.589 35.7216Z" fill="#293331"/>
<path d="M293.672 36.6672C293.672 36.6672 290.404 39.2689 289.611 41.7942C288.814 44.3195 288.455 49.5268 286.934 49.3501C286.934 49.3501 283.637 41.4369 287.34 36.9563C291.269 32.2108 293.672 36.6672 293.672 36.6672Z" fill="#293331"/>
<path d="M347.087 160.599L342.289 162.033C342.289 162.033 326.47 135.848 325.028 129.039C324.558 126.818 323.41 122.382 322.066 117.408C319.288 107.11 315.702 94.507 315.702 94.507L314.523 89.4041L310.497 72.0078C310.497 72.0078 318.21 72.7947 322.718 74.6737C324.211 75.296 325.351 76.0387 325.749 76.9099C329.062 84.1768 332.371 102.521 334.697 115.601C335.993 122.892 336.979 128.553 337.499 129.753C338.936 133.102 343.331 151.514 347.087 160.599Z" fill="#FFC49B"/>
<path d="M293.064 37.0628C293.064 37.0628 296.179 49.2559 304.653 53.1624C304.653 53.1624 296.184 45.6707 295.463 37.6209C294.742 29.5711 293.064 37.0628 293.064 37.0628Z" fill="#293331"/>
<path d="M346.745 159.801C346.745 159.801 348.202 163.229 349.724 164.185C351.241 165.141 352.686 167.437 353 169.288C353.58 172.68 350.971 174.788 349.051 174.788C347.135 174.788 345.3 172.179 344.173 165.952C344.112 165.61 342.289 162.037 342.289 162.037L346.745 159.801Z" fill="#FFC49B"/>
<path d="M329.167 264.993C327.46 283.136 319.957 294.871 319.957 294.871L317.393 297.196C317.393 297.196 315.058 283.911 313.372 268.703C311.765 254.249 309.564 238.953 307.072 234.279C303.349 227.302 300.607 213.037 298.631 197.961C295.367 173.017 294.207 145.86 294.207 145.86L324.264 144.375C327.287 149.442 328.603 157.756 328.917 167.211C329.247 177.148 328.462 188.35 327.375 198.359C325.854 212.37 323.737 224.05 323.245 226.671C323.245 226.675 323.245 226.679 323.241 226.683C323.177 227.029 323.278 227.374 323.439 227.687C329.428 239.499 330.294 253.005 329.167 264.993Z" fill="#FFC49B"/>
<path d="M294.094 105.631C293.418 122.1 290.947 138.404 283.761 137.356C274.95 136.072 272.656 127.873 272.189 121.775C271.899 117.981 272.318 114.998 272.318 114.998C272.318 114.998 276.653 114.978 277.357 114.331C280.686 111.264 279.7 81.1686 281.346 78.045C282.997 74.9215 293.692 72.9141 293.692 72.9141C293.692 72.9141 294.767 89.3549 294.094 105.631Z" fill="#D0D0D0"/>
<path d="M294.095 105.634C293.419 122.103 290.947 138.407 283.762 137.359C274.951 136.074 272.656 127.876 272.189 121.778C274.351 121.669 278.163 121.143 279.672 118.843C281.838 115.546 288.596 94.332 288.596 94.332C288.596 94.332 291.253 99.0936 294.095 105.634Z" fill="#BBBBBB"/>
<path d="M284.74 128.004C284.74 128.004 302.419 132.428 317.932 127.277C317.932 127.277 326.45 145.312 328.793 153.041C331.135 160.769 334.927 176.72 334.927 176.72C334.927 176.72 303.438 186.424 277.551 176.72C277.551 176.72 276.372 155.466 279.765 144.385C283.154 133.304 284.74 128.004 284.74 128.004Z" fill="#88D0EF"/>
<path d="M348.83 136.26C348.83 140.399 344.599 142.941 340.059 144.177C335.691 145.366 331.042 145.35 329.589 144.382C327.081 142.704 322.992 124.059 321.796 118.378C321.583 117.35 321.458 116.748 321.458 116.748C321.458 116.748 318.198 124.509 318.093 125.235C318.049 125.561 318.008 126.01 317.976 126.404C317.944 126.881 317.924 127.275 317.924 127.275C317.924 127.275 300.225 136.184 284.736 128.002C284.736 128.002 278.436 91.6993 281.173 85.4482C282.534 82.3447 289.618 75.9371 292.452 73.1748C293.088 72.5525 293.028 71.324 292.778 70.1998C292.573 69.2483 293.43 68.4132 294.372 68.6581C296.196 69.1319 299.476 69.0516 302.99 67.8993C304.741 67.3292 306.549 66.4941 308.259 65.3298C308.758 64.9926 309.435 65.3057 309.507 65.8999C309.773 68.0639 310.429 72.0186 311.628 72.0186C313.279 72.0105 324.529 73.3876 325.351 74.7728C325.636 75.2545 328.563 81.8589 332.254 90.6033C332.254 90.6033 332.258 90.6113 332.262 90.6274C339.205 107.028 348.83 130.969 348.83 136.26Z" fill="#D0D0D0"/>
<path d="M321.462 116.749C321.462 116.749 318.202 124.51 318.097 125.237C318.053 125.562 318.013 126.011 317.981 126.405C316.403 127.686 314.499 128.661 312.559 129.251C307.04 130.918 304.645 120.371 304.975 115.111C305.305 109.848 313.106 94.8281 315.706 94.515C318.299 94.2018 321.462 116.749 321.462 116.749Z" fill="#BBBBBB"/>
<path d="M321.796 118.384C321.583 117.356 321.458 116.754 321.458 116.754C321.631 117.308 321.744 117.85 321.796 118.384Z" fill="#E58638"/>
<path d="M299.021 131.359C288.95 131.359 284.957 128.541 284.647 128.304L283.995 123.574C284.091 123.646 297.604 131.736 318.515 123.988L318.072 127.573C310.034 130.556 304.25 131.359 299.021 131.359Z" fill="white"/>
<path d="M348.83 136.258C348.83 140.397 344.6 142.939 340.059 144.175C346.319 136.744 332.625 91.7654 332.274 90.6172C339.206 107.026 348.83 130.966 348.83 136.258Z" fill="#BBBBBB"/>
<path d="M311.641 72.0147C311.641 72.0147 303.216 77.3343 296.84 76.0777C296.84 76.0777 295.31 75.1141 297.419 74.1425C299.4 73.2352 304.013 70.5492 302.998 67.8954C304.749 67.3253 306.557 66.4902 308.268 65.3259C308.767 64.9887 309.443 65.3018 309.515 65.896C309.785 68.06 310.441 72.0147 311.641 72.0147Z" fill="#BBBBBB"/>
<path d="M305.124 300.122H301.758C300.631 299.945 299.798 299.62 298.643 299.467C296.888 299.239 296.079 299.953 295.918 300.122C295.898 300.142 295.886 300.154 295.886 300.154H281.596C281.238 299.644 281.58 298.456 281.918 297.585C282.147 296.99 282.643 296.541 283.254 296.364C284.768 295.926 287.755 295.537 290.492 293.068C292.029 291.679 297.922 287.969 297.922 287.969L297.955 287.961C298.083 287.965 298.699 288.154 301.38 290.41C302.765 291.574 305.128 288.764 305.128 288.764C305.128 288.764 305.57 289.129 305.9 289.812C306.166 290.35 306.359 291.089 306.206 292C305.993 293.285 306.681 295.669 307.229 297.283C307.563 298.263 307.841 298.954 307.841 298.954C307.841 298.954 308.018 299.761 305.124 300.122Z" fill="#293331"/>
<path d="M305.913 289.812C305.108 290.378 303.413 291.486 302.29 291.635C300.772 291.835 297.935 287.969 297.935 287.969L297.967 287.961C298.096 287.965 298.711 288.154 301.392 290.41C302.777 291.574 305.14 288.764 305.14 288.764C305.14 288.764 305.583 289.129 305.913 289.812Z" fill="#293331"/>
<path d="M305.124 300.12H301.758C300.631 299.943 299.798 299.618 298.643 299.465C296.888 299.236 296.079 299.951 295.918 300.12C295.898 300.14 295.886 300.152 295.886 300.152H281.596C281.238 299.642 281.58 298.454 281.918 297.582C282.353 297.197 282.473 299.253 282.715 299.582C282.956 299.911 294.372 299.702 295.028 299.224C295.688 298.747 297.665 297.912 300.422 298.566C302.821 299.136 306.359 297.671 307.233 297.281C307.567 298.261 307.845 298.951 307.845 298.951C307.845 298.951 308.018 299.758 305.124 300.12Z" fill="#293331"/>
<path d="M323.072 300.122H319.707C318.58 299.945 317.747 299.62 316.592 299.467C314.837 299.239 314.028 299.953 313.871 300.122C313.851 300.142 313.838 300.154 313.838 300.154H299.549C299.191 299.644 299.533 298.456 299.871 297.585C300.1 296.99 300.595 296.541 301.207 296.364C302.721 295.926 305.707 295.537 308.445 293.068C309.982 291.679 315.875 287.969 315.875 287.969L315.907 287.961C316.036 287.965 316.652 288.154 319.333 290.41C320.718 291.574 323.08 288.764 323.08 288.764C323.08 288.764 323.523 289.129 323.853 289.812C324.119 290.35 324.312 291.089 324.159 292C323.946 293.285 324.634 295.669 325.182 297.283C325.516 298.263 325.798 298.954 325.798 298.954C325.798 298.954 325.967 299.761 323.072 300.122Z" fill="#293331"/>
<path d="M323.861 289.812C323.056 290.378 321.361 291.486 320.238 291.635C318.721 291.835 315.883 287.969 315.883 287.969L315.915 287.961C316.044 287.965 316.66 288.154 319.341 290.41C320.725 291.574 323.088 288.764 323.088 288.764C323.088 288.764 323.531 289.129 323.861 289.812Z" fill="#293331"/>
<path d="M323.072 300.12H319.707C318.58 299.943 317.747 299.618 316.592 299.465C314.837 299.236 314.028 299.951 313.871 300.12C313.851 300.14 313.838 300.152 313.838 300.152H299.549C299.191 299.642 299.533 298.454 299.871 297.582C300.306 297.197 300.426 299.253 300.668 299.582C300.909 299.911 312.325 299.702 312.981 299.224C313.641 298.747 315.618 297.912 318.375 298.566C320.774 299.136 324.312 297.671 325.186 297.281C325.52 298.261 325.802 298.951 325.802 298.951C325.802 298.951 325.967 299.758 323.072 300.12Z" fill="#293331"/>
<path d="M348.285 300.11L347.806 158.695C347.806 158.695 346.723 148.506 337.816 148.449C328.312 148.393 327.704 158.575 327.704 158.575C327.704 158.575 327.837 159.458 328.811 159.462C329.833 159.466 330.007 158.587 330.007 158.587C330.007 158.587 330.473 150.738 337.803 150.782C344.671 150.822 345.504 158.679 345.504 158.679L344.662 300.086L348.285 300.11Z" fill="#505655"/>
<path d="M343.439 300.084L349.352 300.12L348.861 293.95C348.861 293.95 348.917 293.094 347.722 293.038C346.611 292.986 344.421 292.817 344.208 293.484C344.022 294.074 343.439 300.084 343.439 300.084Z" fill="#505655"/>
<path d="M337.787 140.961L337.372 142.98C337.372 142.98 327.35 142.884 324.942 153.584C324.942 153.584 324.278 158.036 327.507 157.105C330.735 156.173 330.248 153.893 334.816 152.676C339.389 151.456 342.364 150.52 343.076 147.212L343.845 143.53L337.787 140.961Z" fill="#FFC49B"/>
<path d="M373.753 53.4922C373.753 53.4922 371.04 63.8826 368.697 73.3817C367.755 77.2079 366.87 80.8895 366.246 83.6878C365.61 86.5625 365.248 88.5097 365.381 88.7305C367.349 91.9624 363.601 111.571 360.683 118.681C360.425 119.312 360.071 120.05 359.649 120.869C355.583 128.702 344.795 144.059 344.795 144.059C344.795 144.059 341.776 144.356 339.808 143.601C338.166 142.967 337.051 140.956 337.051 140.956C338.017 139.426 341.998 121.307 347.037 111.165C349.195 106.825 352.572 66.4722 356.73 61.0642C360.2 56.5475 373.753 53.4922 373.753 53.4922Z" fill="#E13D51"/>
<path d="M365.38 88.7338C367.348 91.9658 363.601 111.574 360.682 118.685C360.425 119.315 360.071 120.054 359.648 120.873C355.908 103.91 362.417 79.9453 362.417 79.9453C364.003 80.5837 365.263 81.8965 366.245 83.6912C365.609 86.5698 365.247 88.517 365.38 88.7338Z" fill="#C13042"/>
<path d="M392.035 284.796C392.035 284.796 392.965 300.136 390.059 300.333C389.672 300.357 375.334 300.273 375.334 300.273L356.838 300.164C356.838 300.164 357.177 295.664 362.53 294.764C367.888 293.865 376.864 290.167 380.145 283.133C383.602 275.734 392.035 284.796 392.035 284.796Z" fill="#293331"/>
<path d="M419.85 284.958C419.85 284.958 420.78 300.299 417.874 300.496C417.487 300.52 403.149 300.435 403.149 300.435L384.653 300.327C384.653 300.327 384.991 295.826 390.349 294.927C395.707 294.028 404.683 290.33 407.964 283.3C411.421 275.897 419.85 284.958 419.85 284.958Z" fill="#293331"/>
<path d="M393.131 247.84C393.549 254.328 394.427 262.671 394.048 270.182C393.521 280.689 393.139 289.55 393.139 289.55C386.179 291.862 373.451 288.932 373.451 288.932C373.451 288.932 369.088 262.349 365.489 241.127C363.875 231.62 362.539 223.393 362.044 219.511C360.442 206.961 364.298 140.294 364.298 140.294C364.298 140.294 383.164 128.39 390.893 134.629C398.621 140.868 403.363 146.951 390.446 214.733C389.468 219.872 392.197 233.31 393.131 247.84Z" fill="#FFA561"/>
<path d="M393.131 247.84C393.549 254.328 394.322 264.706 393.948 272.222C387.455 265.284 374.663 250.658 365.489 241.127C363.875 231.62 362.539 223.393 362.044 219.511C360.442 206.961 364.298 140.294 364.298 140.294C364.298 140.294 383.164 128.39 390.893 134.629C398.621 140.868 403.363 146.951 390.446 214.733C389.468 219.872 392.197 233.31 393.131 247.84Z" fill="#FF8528"/>
<path d="M381.276 141.752C381.276 141.752 382.568 208.515 385.128 220.908C387.692 233.302 401.121 290.04 401.121 290.04C401.121 290.04 414.018 291.289 420.78 288.446C420.78 288.446 420.506 262.205 418.313 246.772C416.26 232.359 412.508 219.166 413.088 213.967C420.744 145.397 415.547 139.696 407.36 134.067C399.172 128.439 381.276 141.752 381.276 141.752Z" fill="#FFA561"/>
<path d="M406.752 147.751C406.752 147.751 402.227 156.672 410.781 163.562C410.781 163.562 414.492 166.127 415.084 162.827C415.676 159.527 415.007 160.675 415.937 156.046C416.863 151.417 415.744 146.619 413.083 144.52L406.752 147.751Z" fill="#FFC49B"/>
<path d="M369.716 38.3451C369.716 38.3451 374.832 46.1981 373.757 53.4931L381.284 71.8891L395.188 50.9637C395.188 50.9637 387.958 43.0184 385.306 32.2305L369.716 38.3451Z" fill="#FFC49B"/>
<path d="M367.413 45.0068C367.413 45.0068 386.199 45.9302 386.61 34.6806C387.02 23.431 392.14 15.9755 378.092 14.9035C366.54 14.0203 362.667 18.8059 361.617 22.5277C360.558 26.2495 360.449 44.3645 367.413 45.0068Z" fill="#FFC49B"/>
<path d="M412.822 145.158C408.78 145.507 403.222 145.94 396.475 146.322C395.127 146.398 393.734 146.474 392.293 146.547C371.925 147.562 363.851 144.226 363.851 144.226C363.851 144.226 363.311 143.788 363.496 141.404C364.454 129.126 367.091 125.513 366.789 123.176C366.113 117.925 353.606 75.0423 353.606 75.0423C353.606 75.0423 353.441 61.5163 368.556 55.2612C370.114 54.6148 371.833 54.0487 373.729 53.5789C374.381 55.3334 376.172 58.2683 380.805 57.7544C387.656 56.9996 392.555 53.0048 394.656 50.9492C395.034 50.9492 395.183 50.9653 395.183 50.9653C395.686 52.4066 396.073 53.9082 396.419 55.4338C397.622 60.7575 398.315 66.3542 401.559 70.5537C404.763 74.701 407.5 78.7882 409.835 82.7829C411.779 86.1072 413.442 89.3713 414.859 92.547C428.037 122.056 417.576 144.74 412.822 145.158Z" fill="#E13D51"/>
<path d="M412.822 145.157C408.78 145.506 403.222 145.94 396.475 146.321C394.704 113.251 408.398 81.582 408.398 81.582C408.905 81.9394 409.384 82.3408 409.839 82.7865C412.178 85.079 413.796 88.4715 414.863 92.5506C418.795 107.562 415.285 131.896 412.822 145.157Z" fill="#C13042"/>
<path d="M361.415 34.2391C361.415 34.2391 357.672 48.6925 363.867 50.7682C370.061 52.8438 386.553 51.3062 386.654 33.5605C386.654 33.5605 377.975 38.6554 373.845 38.4988C369.715 38.3422 367.063 35.9494 363.235 37.7842C363.231 37.7882 361.834 37.6878 361.415 34.2391Z" fill="#DFDFDF"/>
<path d="M395.183 50.9609C395.183 50.9609 408.318 51.3343 415.205 60.3798C420.482 67.3134 425.884 104.378 425.852 109.955C425.819 115.532 419.649 146.269 416.276 149.594C416.276 149.594 414.102 150.14 411.212 149.562C408.141 148.951 406.341 147.169 406.341 147.169C406.341 147.169 408.213 112.918 408.233 109.706C408.261 105.053 393.847 76.4873 393.847 76.4873C393.847 76.4873 386.364 62.889 395.183 50.9609Z" fill="#E13D51"/>
<path d="M385.82 18.4473C385.51 17.2951 384.098 16.6848 384.098 16.6848C373.539 12.0236 365.779 17.01 365.779 17.01C372.316 8.36203 387.962 10.2811 391.214 18.1342C396.523 30.9576 386.658 33.5632 386.658 33.5632C386.658 33.5632 376.848 29.3838 382.572 24.2488C384.468 22.5465 385.39 21.0329 385.7 19.708C385.804 19.2623 385.84 18.8448 385.82 18.4473Z" fill="#DFDFDF"/>
</g>
<defs>
<clipPath id="clip0_358_15532">
<rect width="497" height="333" fill="white"/>
</clipPath>
</defs>
</svg>
