<svg width="334" height="333" viewBox="0 0 334 333" fill="none" xmlns="http://www.w3.org/2000/svg">
<path d="M167 332C259.232 332 334 320.359 334 306C334 291.641 259.232 280 167 280C74.7684 280 0 291.641 0 306C0 320.359 74.7684 332 167 332Z" fill="#E9EAEB"/>
<path d="M53.1389 0.00131008C53.0738 0.00131008 53.0141 -0.000257059 52.949 3.1252e-05C51.2195 0.00768775 25.9117 1.4942 39.982 82.6413C40.0185 82.8516 40.0717 83.0626 40.1376 83.2656C41.0175 85.9746 47.3233 106.62 40.9003 123.358C39.7514 126.352 41.7728 130.037 44.9796 130.037H217.113C219.322 130.037 221.113 128.246 221.113 126.037V4.00132C221.113 1.79218 219.322 0.00131008 217.113 0.00131008H53.1389Z" fill="#CDE6DF"/>
<path d="M252.44 49.9102H68.686C66.4769 49.9102 64.686 51.701 64.686 53.9102V295.724C64.686 297.934 66.4769 299.724 68.686 299.724H252.44C254.65 299.724 256.44 297.934 256.44 295.724V53.9102C256.44 51.701 254.65 49.9102 252.44 49.9102Z" fill="#ADD1C8"/>
<path d="M259.487 49.9102H70.9546V299.724H259.487V49.9102Z" fill="white"/>
<path d="M259.49 49.9078C259.487 49.9103 259.487 49.9103 259.487 49.9103H70.955C71.9981 35.6674 70.4261 25.3274 67.9084 17.8895C63.073 3.58823 54.7402 0.00195312 54.7402 0.00195312H232.544C247.721 0.00195312 259.487 9.1344 262.69 21.2566C262.809 21.7119 262.921 22.1672 263.016 22.62C266.058 36.4904 259.614 49.6546 259.49 49.9078Z" fill="white"/>
<path d="M259.49 49.907C259.487 49.9095 259.487 49.9095 259.487 49.9095H70.9547C71.9978 35.6666 70.4258 25.3266 67.9082 17.8887C87.1743 21.4141 134.895 28.9226 185.971 27.659C219.015 26.8409 245.127 24.6327 263.016 22.6217C266.058 36.4895 259.614 49.6538 259.49 49.907Z" fill="#DBEFEA"/>
<path d="M209.685 107.515H109.703C108.677 107.515 107.836 106.675 107.836 105.65V104.693C107.836 103.668 108.677 102.828 109.703 102.828H209.685C210.711 102.828 211.552 103.668 211.552 104.693V105.65C211.552 106.675 210.711 107.515 209.685 107.515Z" fill="#D8D8D8"/>
<path d="M170.987 115.397H109.311C108.502 115.397 107.839 114.734 107.839 113.926V112.185C107.839 111.375 108.502 110.715 109.311 110.715H170.989C171.798 110.715 172.461 111.377 172.461 112.185V113.926C172.461 114.734 171.798 115.397 170.987 115.397Z" fill="#D8D8D8"/>
<path d="M98.2071 114.638V105.069H96.9422C96.1745 105.069 95.7919 104.751 95.7919 104.113C95.7919 103.653 96.0916 103.329 96.6936 103.136C97.0007 103.034 97.4882 102.959 98.1584 102.908C98.8286 102.856 99.3672 102.832 99.7767 102.832C100.172 102.832 100.423 102.912 100.525 103.071C100.627 103.231 100.678 103.635 100.678 104.286V114.64H101.982C102.826 114.64 103.247 115.003 103.247 115.731C103.247 116.495 102.826 116.88 101.982 116.88H96.7326C96.3622 116.88 96.0526 116.78 95.8041 116.583C95.5555 116.386 95.4312 116.108 95.4312 115.75C95.4312 115.01 95.8601 114.64 96.7156 114.64H98.2071V114.638Z" fill="#199F97"/>
<path d="M209.685 156.853H109.704C108.678 156.853 107.837 156.013 107.837 154.988V154.031C107.837 153.006 108.678 152.166 109.704 152.166H209.685C210.711 152.166 211.552 153.006 211.552 154.031V154.988C211.552 156.013 210.711 156.853 209.685 156.853Z" fill="#D8D8D8"/>
<path d="M170.987 164.735H109.311C108.502 164.735 107.839 164.072 107.839 163.264V161.523C107.839 160.715 108.502 160.053 109.311 160.053H170.99C171.799 160.053 172.462 160.715 172.462 161.523V163.264C172.462 164.072 171.799 164.735 170.987 164.735Z" fill="#D8D8D8"/>
<path d="M103.445 163.779C103.445 164.417 102.999 164.736 102.107 164.736H96.5526C95.7508 164.736 95.3511 164.414 95.3511 163.772C95.3511 163.57 95.4583 163.331 95.6728 163.061C95.9872 162.7 96.4502 162.157 97.062 161.437C97.9881 160.275 98.7607 159.272 99.3822 158.425C99.5967 158.143 99.9013 157.714 100.296 157.14C100.623 156.565 100.786 156.08 100.786 155.686C100.786 155.245 100.645 154.883 100.362 154.595C100.079 154.308 99.7185 154.164 99.2774 154.164C98.8485 154.164 98.4756 154.298 98.1587 154.571C97.9443 154.751 97.7737 155.09 97.6518 155.586C97.4934 156.229 97.391 156.602 97.3471 156.701C97.179 157.062 96.9011 157.242 96.5185 157.242C96.1797 157.242 95.9141 157.118 95.7215 156.869C95.5412 156.655 95.451 156.373 95.451 156.024C95.451 155.63 95.5119 155.228 95.6362 154.824C95.9068 153.955 96.3869 153.29 97.0742 152.828C97.7298 152.387 98.5243 152.168 99.4626 152.168C100.489 152.168 101.347 152.48 102.036 153.1C102.748 153.755 103.104 154.59 103.104 155.608C103.104 156.365 102.85 157.144 102.341 157.945C102.058 158.386 101.478 159.165 100.596 160.283C100.145 160.86 99.4334 161.695 98.4634 162.79H102.122C103.004 162.788 103.445 163.119 103.445 163.779Z" fill="#199F97"/>
<path d="M209.685 198.007H109.704C108.678 198.007 107.837 197.167 107.837 196.142V195.185C107.837 194.16 108.678 193.32 109.704 193.32H209.685C210.711 193.32 211.552 194.16 211.552 195.185V196.142C211.552 197.17 210.711 198.007 209.685 198.007Z" fill="#D8D8D8"/>
<path d="M170.987 205.891H109.311C108.502 205.891 107.839 205.229 107.839 204.42V202.68C107.839 201.871 108.502 201.209 109.311 201.209H170.99C171.799 201.209 172.462 201.871 172.462 202.68V204.42C172.462 205.229 171.799 205.891 170.987 205.891Z" fill="#D8D8D8"/>
<path d="M103.445 201.966C103.445 203.164 103.024 204.128 102.183 204.854C101.386 205.545 100.377 205.891 99.1532 205.891C98.2076 205.891 97.3984 205.667 96.7306 205.217C95.668 204.503 95.1392 203.644 95.1392 202.641C95.1392 202.353 95.2318 202.105 95.417 201.898C95.6022 201.691 95.8386 201.587 96.1262 201.587C96.426 201.587 96.7087 201.789 96.9744 202.193C97.4009 202.862 97.6495 203.23 97.7177 203.301C98.0979 203.705 98.5878 203.904 99.1898 203.904C99.9965 203.904 100.574 203.605 100.92 203.006C101.081 202.706 101.161 202.327 101.161 201.864C101.161 200.734 100.499 200.106 99.1703 199.98C98.4196 199.911 98.0443 199.595 98.0443 199.028C98.0443 198.614 98.2612 198.319 98.6975 198.146C99.5115 197.847 99.9234 197.691 99.9356 197.679C100.372 197.392 100.589 196.89 100.589 196.174C100.589 195.748 100.462 195.412 100.209 195.164C99.9551 194.916 99.6163 194.791 99.1898 194.791C98.6609 194.791 98.2466 194.918 97.9492 195.171C97.6958 195.39 97.4837 195.765 97.3107 196.296C97.1718 196.7 96.9086 196.902 96.5186 196.902C96.2432 196.902 96.0141 196.78 95.8362 196.539C95.6583 196.296 95.5681 196.033 95.5681 195.743C95.5681 195.385 95.6656 195.028 95.863 194.672C96.1872 194.073 96.6819 193.606 97.3521 193.272C97.9639 192.961 98.6317 192.805 99.3604 192.805C100.34 192.805 101.157 193.102 101.81 193.696C102.461 194.29 102.787 195.071 102.787 196.038C102.787 197.202 102.302 198.124 101.335 198.804C102.741 199.366 103.445 200.42 103.445 201.966Z" fill="#199F97"/>
<path d="M198.04 66.5025H135.757C134.692 66.5025 133.82 65.6309 133.82 64.5645V62.9942C133.82 61.9302 134.692 61.0586 135.757 61.0586H198.04C199.108 61.0586 199.978 61.9302 199.978 62.9942V64.5645C199.978 65.6309 199.105 66.5025 198.04 66.5025Z" fill="#ADD1C8"/>
<path d="M214.279 74.8946H119.513C118.205 74.8946 117.137 73.8258 117.137 72.5208V71.8294C117.137 70.5219 118.207 69.4531 119.513 69.4531H214.279C215.588 69.4531 216.658 70.5219 216.658 71.8294V72.5208C216.658 73.8258 215.588 74.8946 214.279 74.8946Z" fill="#ADD1C8"/>
<path d="M159.593 132.776C139.055 132.776 119.564 130.203 105.036 126.522C90.357 122.804 82.4507 116.727 82.4507 111.337C82.4507 106.453 88.8946 101.958 101.086 98.3453C89.4016 101.81 83.155 106.896 83.155 111.337C83.155 116.264 91.2539 121.144 105.375 124.72C119.854 128.387 139.108 130.407 159.593 130.407C180.078 130.407 199.334 128.389 213.811 124.72C227.932 121.144 236.031 116.267 236.031 111.337C236.031 106.119 227.503 99.6308 213.775 94.4109C198.164 88.4727 178.923 86.2694 159.593 86.2694C123.303 86.2694 108.363 90.5008 95.402 95.806C108.419 90.4789 123.174 84.4434 159.593 84.4434C179.001 84.4434 198.328 87.7277 214.009 93.6951C228.027 99.027 236.736 105.788 236.736 111.339C236.736 116.73 228.651 121.745 213.972 125.463C199.441 129.141 180.129 132.776 159.593 132.776Z" fill="#E13D51"/>
<path d="M262.195 197.496C262.195 197.496 261.52 204.065 260.776 205.307C260.035 206.548 256.874 210.519 255.529 211.299C254.184 212.078 256.35 206.069 256.077 204.898C255.802 203.729 254.968 207.033 254.376 207.108C253.784 207.184 253.935 204.214 253.915 203.13C253.894 202.049 256.801 199.376 257.827 197.073C258.851 194.77 262.195 197.496 262.195 197.496Z" fill="#FFC49B"/>
<path d="M181.418 136.917L179.907 134.069C179.907 134.069 180.658 128.992 174.292 125.783C174.292 125.783 171.964 124.836 170.653 126.733C169.444 128.479 172.959 128.164 172.771 131.149C172.583 134.137 174.002 135.89 175.978 136.861L177.611 138.75L181.418 136.917Z" fill="#FFC49B"/>
<path d="M241.579 130.109C241.579 130.109 236.112 156.912 206.027 165.67C196.637 168.404 175.301 137.518 175.301 137.518C175.301 137.518 176.052 134.671 180.751 135.324C180.751 135.324 201.523 149.063 204.138 150.555C206.458 151.88 221.72 133.532 228.676 130.571C235.634 127.613 241.579 130.109 241.579 130.109Z" fill="#FF8528"/>
<path d="M161.523 124.837L160.669 130.387L188.606 134.673L189.459 129.124L161.523 124.837Z" fill="#E13D51"/>
<path d="M154.604 126.617L160.673 130.386L161.526 124.84L154.604 126.617Z" fill="#FFC49B"/>
<path d="M192.427 131.464L192.156 133.22C191.991 134.298 190.979 135.038 189.9 134.873L188.608 134.676L189.461 129.127L190.867 129.344C191.886 129.497 192.585 130.447 192.427 131.464Z" fill="#FFC49B"/>
<path d="M277.496 298.609C277.496 298.609 281.227 302.011 280.501 304.428C279.772 306.846 276.404 308.458 275.951 311.411C275.495 314.366 273.674 315.978 272.036 315.978C270.399 315.978 264.225 315.978 264.225 315.978C264.225 315.978 263.019 313.899 265.931 313.273C268.844 312.648 269.943 309.176 269.76 305.952C269.577 302.729 270.033 298.432 270.033 298.432L276.224 297L277.496 298.609Z" fill="#147973"/>
<path d="M231.708 307.409C231.708 307.409 232.378 315.151 230.74 315.957L209.771 315.913C209.771 315.913 209.771 313.495 213.139 312.957C216.507 312.419 222.424 310.449 223.424 306.062C224.425 301.677 231.708 307.409 231.708 307.409Z" fill="#147973"/>
<path d="M214.004 198.032C214.004 198.032 215.11 211.605 216.409 227.92C218.176 250.083 220.302 277.307 220.511 282.464C220.874 291.419 222.332 305.744 222.332 305.744C222.332 305.744 225.79 309.148 232.709 307.714C232.709 307.714 238.876 287.265 240.638 265.628C240.664 265.273 240.691 264.917 240.721 264.559C242.358 242.533 244.908 196.152 244.908 196.152L214.004 198.032Z" fill="#199F97"/>
<path d="M214.004 198.032C214.004 198.032 215.11 211.605 216.409 227.92L240.638 265.628C240.664 265.273 240.691 264.917 240.721 264.559C242.358 242.533 244.908 196.152 244.908 196.152L214.004 198.032Z" fill="#147973"/>
<path d="M219.056 199.642C219.056 199.642 238.99 248.798 252.1 271.898C265.207 294.998 269.304 301.445 269.304 301.445C269.304 301.445 276.813 298.49 277.495 296.476C277.495 296.476 272.482 251.88 263.706 241.007C258.746 234.864 252.919 216.429 252.646 209.982C252.373 203.535 250.871 190.777 250.871 190.777L219.056 199.642Z" fill="#199F97"/>
<path d="M245.285 123.89C245.285 123.89 231.798 130.39 224.021 127.978C224.021 127.978 225.934 125.565 229.285 123.771C229.017 122.212 228.807 120.859 228.685 119.712C228.356 117.063 228.356 115.563 228.356 115.563L233.56 111.473L238.495 107.561C238.105 118.565 245.285 123.89 245.285 123.89Z" fill="#FFC49B"/>
<path d="M252.393 193.294C252.422 194.117 250.657 195.059 249.88 195.413C244.108 197.942 238.725 199.707 232.624 200.296C225.418 201.032 216.892 199.413 213.963 199.474C213.663 199.474 213.395 199.357 213.156 199.15C212.946 199.001 212.798 190.324 212.946 179.409C212.946 178.969 212.946 178.526 212.976 178.085V177.939C213.037 173.673 213.185 169.201 213.395 164.731C213.814 154.904 214.591 145.431 215.908 140.197C217.492 134.02 221.082 129.93 224.34 126.959L227.031 124.605C229.722 125.136 232.563 124.987 235.405 123.604C238.515 122.105 241.864 120.486 242.402 120.897C246.47 123.867 249.222 130.546 250.686 139.077C251.525 143.99 251.944 149.49 251.912 155.257C251.912 157.376 251.851 159.552 251.732 161.7C251.016 173.35 251.732 183.468 252.151 189.323C252.273 191.03 252.363 192.352 252.393 193.294Z" fill="#FFA968"/>
<path d="M252.153 192.758C204.92 192.663 243.443 141.56 243.443 141.56L251.096 139.076C251.7 144.325 252.005 150.203 251.983 156.362C251.983 158.627 251.939 160.952 251.854 163.245C251.332 175.694 251.851 186.504 252.153 192.758Z" fill="#FF8528"/>
<path d="M238.585 111.768C238.585 111.768 235.176 117.974 228.685 119.71C228.356 117.061 228.356 115.561 228.356 115.561L233.56 111.471L238.585 111.768Z" fill="#E1B291"/>
<path d="M225.983 115.381C225.983 115.381 238.851 117.485 240.058 109.582C241.266 101.679 243.74 96.6295 235.576 94.952C227.411 93.2745 225.349 96.0549 224.294 98.5943C223.238 101.134 222.668 114.631 225.983 115.381Z" fill="#FFC49B"/>
<path d="M244.737 94.0084C244.854 93.8745 245.122 93.7674 245.722 93.7333C245.722 93.7333 245.242 93.4339 244.603 93.4193C244.476 92.5866 244.035 91.1112 242.6 90.7533C242.6 90.7533 243.37 91.1648 243.472 92.0485C241.81 90.3443 238.249 89.1026 228.388 89.8793C215.393 90.9043 219.675 99.2162 221.357 100.207C223.039 101.198 227.275 98.4809 230.409 98.7293C233.543 98.9776 234.14 103.504 235.203 104.125C236.265 104.745 235.849 103.647 237.287 102.997C238.725 102.347 238.863 104.728 238.447 106.277C238.03 107.825 240.009 109.868 240.009 109.868C240.009 109.868 240.009 109.868 242.007 107.718C244.006 105.568 245.888 96.465 244.981 94.5246C244.898 94.3566 244.818 94.1837 244.737 94.0084Z" fill="#293331"/>
<path d="M242.397 120.832C242.397 120.832 250.537 124.684 254.442 130.605C260.496 139.788 267.515 173.258 267.644 176.357C267.773 179.456 262.521 201.337 262.521 201.337C262.521 201.337 257.193 200.986 255.819 198.301C255.819 198.301 256.884 175.819 256.209 174.373C255.534 172.927 234.001 144.215 236.421 138.087C238.846 131.963 242.397 120.832 242.397 120.832Z" fill="#FFA968"/>
<path d="M179.878 133.935C179.878 133.935 180.322 132.189 179.108 131.403C177.894 130.616 176.778 128.481 176.266 128.771C175.206 129.37 176.846 131.235 176.546 133.558C176.442 134.373 178.34 136.506 179.878 133.935Z" fill="#FFC49B"/>
<path d="M216.741 245.397H100.808C100.033 245.397 99.397 244.764 99.397 243.988C99.397 243.214 100.031 242.578 100.808 242.578H216.739C217.514 242.578 218.15 243.211 218.15 243.988C218.15 244.762 217.516 245.397 216.741 245.397Z" fill="#D8D8D8"/>
<path d="M216.741 251.038H100.808C100.033 251.038 99.397 250.403 99.397 249.628C99.397 248.854 100.031 248.219 100.808 248.219H216.739C217.514 248.219 218.15 248.854 218.15 249.628C218.15 250.403 217.516 251.038 216.741 251.038Z" fill="#D8D8D8"/>
<path d="M216.741 257.29H100.808C100.033 257.29 99.397 256.657 99.397 255.88C99.397 255.106 100.031 254.471 100.808 254.471H216.739C217.514 254.471 218.15 255.104 218.15 255.88C218.15 256.655 217.516 257.29 216.741 257.29Z" fill="#D8D8D8"/>
<path d="M201.521 263.54H100.716C99.9917 263.54 99.3994 262.948 99.3994 262.225V262.037C99.3994 261.314 99.9917 260.723 100.716 260.723H201.521C202.245 260.723 202.837 261.314 202.837 262.037V262.225C202.837 262.948 202.245 263.54 201.521 263.54Z" fill="#D8D8D8"/>
</svg>
