<svg width="390" height="333" viewBox="0 0 390 333" fill="none" xmlns="http://www.w3.org/2000/svg">
<g clip-path="url(#clip0_358_13581)">
<path d="M199.478 333.001C304.301 333.001 389.276 319.772 389.276 303.452C389.276 287.132 304.301 273.902 199.478 273.902C94.6549 273.902 9.6792 287.132 9.6792 303.452C9.6792 319.772 94.6549 333.001 199.478 333.001Z" fill="#E9EAEB"/>
<path d="M201.684 297.44H61.18C56.7758 297.44 53.1711 293.83 53.1711 289.419V8.02331C53.1687 3.60999 56.7733 0 61.18 0H201.684C206.088 0 209.692 3.60999 209.692 8.02083V289.417C209.692 293.83 206.088 297.44 201.684 297.44Z" fill="#ADD1C8"/>
<g filter="url(#filter0_i_358_13581)">
<path d="M217.966 8.02331V289.419C217.966 293.83 214.362 297.44 209.955 297.44H69.4515C65.0448 297.44 61.4426 293.83 61.4426 289.419V8.02331C61.4426 3.60999 65.0448 0 69.4515 0H209.955C214.362 0 217.966 3.60999 217.966 8.02331Z" fill="#DBEFEA"/>
</g>
<path opacity="0.4" d="M162.642 11.2585H121.954C121.083 11.2585 120.372 10.5444 120.372 9.67417C120.372 8.80143 121.085 8.08984 121.954 8.08984H162.642C163.514 8.08984 164.224 8.80391 164.224 9.67417C164.224 10.5444 163.514 11.2585 162.642 11.2585Z" fill="#ADD1C8"/>
<path opacity="0.4" d="M114.727 11.2585C113.856 11.2585 113.145 10.5444 113.145 9.67417C113.145 8.80143 113.858 8.08984 114.727 8.08984C115.599 8.08984 116.309 8.80391 116.309 9.67417C116.309 10.5444 115.599 11.2585 114.727 11.2585Z" fill="#ADD1C8"/>
<path d="M151.711 277.305C151.711 280.111 150.58 282.655 148.75 284.505C146.901 286.377 144.334 287.532 141.499 287.532C135.859 287.532 131.287 282.953 131.287 277.305C131.287 273.675 133.176 270.489 136.025 268.674C137.605 267.665 139.484 267.082 141.499 267.082C147.139 267.08 151.711 271.657 151.711 277.305Z" fill="#C1E2DA"/>
<path d="M209.707 18.1836H71.0515V262.535H209.707V18.1836Z" fill="white"/>
<path d="M148.75 284.503C146.901 286.375 144.334 287.53 141.499 287.53C135.859 287.53 131.287 282.951 131.287 277.303C131.287 273.673 133.176 270.487 136.025 268.672C137.028 273.026 139.994 280.308 148.75 284.503Z" fill="#ADD1C8"/>
<path d="M256.721 43.0441V125.754C256.721 127.175 255.557 128.34 254.134 128.34H86.8876C85.469 128.34 84.3054 127.175 84.3054 125.754V43.0441C84.3054 41.6184 85.469 40.4531 86.8876 40.4531H254.134C255.56 40.4531 256.721 41.6184 256.721 43.0441Z" fill="#DDF1EC"/>
<path d="M256.721 43.0441V125.752C256.721 127.175 255.369 128.34 253.715 128.34H170.514V40.4531H253.715C255.369 40.4531 256.721 41.6184 256.721 43.0441Z" fill="#69C0BB"/>
<path d="M211.355 72.5585H181.919C180.889 72.5585 180.045 71.713 180.045 70.6816C180.045 69.6502 180.889 68.8047 181.919 68.8047H211.355C212.385 68.8047 213.229 69.6502 213.229 70.6816C213.229 71.713 212.385 72.5585 211.355 72.5585Z" fill="white"/>
<path d="M204.082 78.1893H181.694C180.788 78.1893 180.045 77.4455 180.045 76.5381V76.0868C180.045 75.1794 180.788 74.4355 181.694 74.4355H204.082C204.988 74.4355 205.731 75.1794 205.731 76.0868V76.5381C205.731 77.4455 204.99 78.1893 204.082 78.1893Z" fill="white"/>
<path d="M182.309 51.5234C183.014 50.5911 183.945 50.125 185.074 50.125C186.203 50.125 187.122 50.5911 187.827 51.5085C188.533 52.4284 188.877 53.5714 188.877 54.9425C188.877 56.3136 188.53 57.459 187.827 58.3764C187.122 59.2963 186.205 59.7624 185.074 59.7624C183.945 59.7624 183.014 59.2963 182.309 58.3764C181.603 57.459 181.259 56.3136 181.259 54.9425C181.257 53.5862 181.603 52.4408 182.309 51.5234ZM187.107 52.1631C186.574 51.4168 185.896 51.0449 185.072 51.0449C184.247 51.0449 183.569 51.4168 183.037 52.1631C182.504 52.9094 182.239 53.8416 182.239 54.9449C182.239 56.0631 182.504 56.9954 183.024 57.7417C183.556 58.4731 184.235 58.8475 185.072 58.8475C185.908 58.8475 186.587 58.4756 187.107 57.7417C187.639 56.9954 187.904 56.0631 187.904 54.9449C187.904 53.8391 187.639 52.9069 187.107 52.1631Z" fill="white"/>
<path d="M196.465 51.2834C197.089 52.0421 197.408 53.1206 197.408 54.4917C197.46 57.3951 195.893 59.7902 193.365 59.7629C192.608 59.7629 191.942 59.577 191.397 59.1902V58.2455C191.981 58.6447 192.608 58.8455 193.284 58.8455C195.489 58.8455 196.408 56.8348 196.448 54.8636C195.955 55.7017 194.984 56.2471 193.722 56.2471C192.885 56.2471 192.167 55.967 191.58 55.4215C191.008 54.8636 190.716 54.1446 190.716 53.2793C190.716 52.3595 191.021 51.6156 191.62 51.0156C192.231 50.4156 192.989 50.123 193.88 50.123C194.977 50.1255 195.841 50.5123 196.465 51.2834ZM192.33 51.6826C191.905 52.0942 191.692 52.6272 191.692 53.2793C191.692 53.919 191.905 54.4248 192.343 54.8116C192.781 55.1984 193.313 55.3843 193.964 55.3843C194.509 55.3843 195.014 55.2108 195.48 54.8661C195.945 54.519 196.252 54.095 196.423 53.5744C196.262 51.9776 195.385 51.0454 193.937 51.0454C193.301 51.0454 192.771 51.2586 192.33 51.6826Z" fill="white"/>
<path d="M199.376 53.5466C199.641 53.2813 200.094 53.2813 200.359 53.5466C200.624 53.8119 200.624 54.2657 200.359 54.5309C200.094 54.7962 199.641 54.7962 199.376 54.5309C199.111 54.2657 199.111 53.8144 199.376 53.5466ZM199.376 58.5004C199.641 58.2352 200.094 58.2352 200.359 58.5004C200.624 58.7657 200.624 59.2195 200.359 59.4848C200.094 59.7501 199.641 59.7501 199.376 59.4848C199.111 59.2195 199.111 58.7657 199.376 58.5004Z" fill="white"/>
<path d="M203.976 59.6032V51.3493L201.889 52.5469V51.6022L204.082 50.2832H204.946V59.6032H203.976Z" fill="white"/>
<path d="M208.336 51.5234C209.042 50.5911 209.97 50.125 211.101 50.125C212.23 50.125 213.149 50.5911 213.854 51.5085C214.56 52.4284 214.904 53.5714 214.904 54.9425C214.904 56.3136 214.558 57.459 213.854 58.3764C213.149 59.2963 212.233 59.7624 211.101 59.7624C209.973 59.7624 209.042 59.2963 208.336 58.3764C207.63 57.459 207.286 56.3136 207.286 54.9425C207.286 53.5862 207.633 52.4408 208.336 51.5234ZM213.136 52.1631C212.604 51.4168 211.926 51.0449 211.101 51.0449C210.277 51.0449 209.599 51.4168 209.066 52.1631C208.534 52.9094 208.269 53.8416 208.269 54.9449C208.269 56.0631 208.534 56.9954 209.054 57.7417C209.586 58.4731 210.265 58.8475 211.101 58.8475C211.938 58.8475 212.617 58.4756 213.136 57.7417C213.669 56.9954 213.934 56.0631 213.934 54.9449C213.934 53.8391 213.669 52.9069 213.136 52.1631Z" fill="white"/>
<path d="M220.633 59.6032V50.2832H224.542C226.404 50.2832 227.52 51.3221 227.52 52.8667C227.52 54.4511 226.404 55.4899 224.542 55.4899H221.616V59.6032H220.633ZM221.616 54.5973H224.473C225.79 54.5973 226.547 53.9725 226.547 52.894C226.547 51.7882 225.79 51.1758 224.473 51.1758H221.616V54.5973Z" fill="white"/>
<path d="M229.474 59.6032V50.2832H230.444L233.809 54.7957L237.173 50.2832H238.131V59.6032H237.161V51.7758L234.116 55.8494H233.516L230.447 51.7758V59.6032H229.474Z" fill="white"/>
<path d="M133.941 128.34H86.8876C85.469 128.34 84.3054 127.175 84.3054 125.754V69.5488C97.1345 84.7252 122.248 114.48 133.941 128.34Z" fill="#CEEAE3"/>
<path d="M127.093 51.3438C117.678 51.3438 110.045 58.9877 110.045 68.4168C110.045 77.846 127.093 98.8092 127.093 98.8092C127.093 98.8092 144.141 77.846 144.141 68.4168C144.141 58.9877 136.508 51.3438 127.093 51.3438ZM127.093 76.222C122.691 76.222 119.124 72.6492 119.124 68.2408C119.124 63.8324 122.691 60.2596 127.093 60.2596C131.495 60.2596 135.062 63.8324 135.062 68.2408C135.06 72.6492 131.492 76.222 127.093 76.222Z" fill="#E13D51"/>
<path d="M125.657 112.976H96.2235C95.1936 112.976 94.3494 112.131 94.3494 111.1C94.3494 110.068 95.1936 109.223 96.2235 109.223H125.657C126.687 109.223 127.531 110.068 127.531 111.1C127.534 112.133 126.689 112.976 125.657 112.976Z" fill="#A8C9C2"/>
<path d="M118.386 118.609H95.9982C95.0921 118.609 94.3494 117.865 94.3494 116.958V116.507C94.3494 115.599 95.0921 114.855 95.9982 114.855H118.386C119.292 114.855 120.035 115.599 120.035 116.507V116.958C120.035 117.865 119.292 118.609 118.386 118.609Z" fill="#A8C9C2"/>
<path d="M174.139 144.625V227.335C174.139 228.758 172.975 229.924 171.554 229.924H4.31074C2.88721 229.921 1.72363 228.758 1.72363 227.333V144.625C1.72363 143.204 2.88721 142.039 4.31074 142.039H171.554C172.975 142.039 174.139 143.202 174.139 144.625Z" fill="#DDF1EC"/>
<path d="M174.139 144.624V227.331C174.139 228.757 172.975 229.922 171.554 229.922H97.1692V142.035H171.554C172.975 142.035 174.139 143.2 174.139 144.624Z" fill="#69C0BB"/>
<path d="M135.089 203.889C133.611 203.889 132.24 203.106 131.489 201.821L120.497 183.003C119.334 181.012 120.002 178.453 121.993 177.288C123.981 176.122 126.536 176.794 127.699 178.785L134.752 190.857L148.032 163.497C149.04 161.422 151.535 160.557 153.607 161.566C155.68 162.575 156.544 165.074 155.536 167.15L138.845 201.541C138.171 202.927 136.792 203.83 135.253 203.889C135.196 203.887 135.144 203.889 135.089 203.889Z" fill="white"/>
<path d="M135.089 213.572C120.812 213.572 109.198 201.939 109.198 187.642C109.198 173.344 120.814 161.713 135.089 161.713C149.367 161.713 160.98 173.346 160.98 187.642C160.983 201.941 149.367 213.572 135.089 213.572ZM135.089 164.75C122.485 164.75 112.231 175.02 112.231 187.642C112.231 200.265 122.485 210.535 135.089 210.535C147.693 210.535 157.947 200.265 157.947 187.642C157.947 175.02 147.693 164.75 135.089 164.75Z" fill="white"/>
<path d="M50.7103 229.919H4.31074C2.88721 229.919 1.72363 228.756 1.72363 227.331V163.33L50.7103 229.919Z" fill="#CEEAE3"/>
<path d="M24.1634 156.383C19.0412 156.383 14.8894 160.541 14.8894 165.671C14.8894 170.8 19.0412 174.958 24.1634 174.958C29.2856 174.958 33.4374 170.8 33.4374 165.671C33.4374 160.541 29.2856 156.383 24.1634 156.383ZM30.5878 165.966H24.1634C24 165.966 23.8663 165.832 23.8663 165.668V158.751C23.8663 158.587 24 158.453 24.1634 158.453C24.3268 158.453 24.4605 158.587 24.4605 158.751V165.373H30.5878C30.7512 165.373 30.8849 165.507 30.8849 165.671C30.8824 165.834 30.7512 165.966 30.5878 165.966Z" fill="#E13D51"/>
<path d="M71.8803 165.137H42.4442C41.4143 165.137 40.5701 164.291 40.5701 163.26C40.5701 162.228 41.4143 161.383 42.4442 161.383H71.8778C72.9077 161.383 73.7519 162.228 73.7519 163.26C73.7544 164.291 72.9102 165.137 71.8803 165.137Z" fill="#A8C9C2"/>
<path d="M64.6067 170.766H42.2189C41.3128 170.766 40.5701 170.022 40.5701 169.114V168.663C40.5701 167.756 41.3128 167.012 42.2189 167.012H64.6067C65.5128 167.012 66.2555 167.756 66.2555 168.663V169.114C66.2579 170.024 65.5152 170.766 64.6067 170.766Z" fill="#A8C9C2"/>
<path d="M23.2377 192.33C18.628 192.33 14.8896 196.074 14.8896 200.691C14.8896 205.307 23.2377 215.574 23.2377 215.574C23.2377 215.574 31.5858 205.31 31.5858 200.691C31.5858 196.071 27.8475 192.33 23.2377 192.33ZM23.2377 204.511C21.0839 204.511 19.336 202.761 19.336 200.604C19.336 198.444 21.0839 196.696 23.2377 196.696C25.3941 196.696 27.1394 198.447 27.1394 200.604C27.1394 202.763 25.3916 204.511 23.2377 204.511Z" fill="#E13D51"/>
<path d="M69.642 202.642H40.2059C39.176 202.642 38.3318 201.797 38.3318 200.766C38.3318 199.732 39.176 198.889 40.2059 198.889H69.642C70.6719 198.889 71.5161 199.734 71.5161 200.766C71.5161 201.797 70.6719 202.642 69.642 202.642Z" fill="#A8C9C2"/>
<path d="M62.3684 208.273H39.9806C39.0745 208.273 38.3318 207.53 38.3318 206.622V206.171C38.3318 205.263 39.0745 204.52 39.9806 204.52H62.3684C63.2745 204.52 64.0172 205.263 64.0172 206.171V206.622C64.0172 207.53 63.277 208.273 62.3684 208.273Z" fill="#A8C9C2"/>
<path d="M240.255 78.1902C240.255 78.1902 237.512 69.3289 235.955 68.3768C234.398 67.4247 227.904 64.2189 227.518 65.0842C227.131 65.9495 231.023 70.1595 231.89 71.5628C232.754 72.9661 233.187 74.3521 232.58 73.7472C231.974 73.1397 228.689 71.1116 228.342 71.5628C227.995 72.0141 229.986 73.7472 230.937 75.1331C231.887 76.5191 232.927 78.8572 236.299 79.3778C239.676 79.8985 240.255 78.1902 240.255 78.1902Z" fill="#FFC49B"/>
<path d="M340.219 152.796C340.219 152.796 339.397 160.799 338.496 162.314C337.595 163.829 333.752 168.666 332.118 169.616C330.482 170.565 333.119 163.241 332.784 161.816C332.45 160.39 331.438 164.416 330.717 164.511C329.997 164.605 330.182 160.983 330.155 159.664C330.128 158.344 333.663 155.089 334.908 152.282C336.154 149.473 340.219 152.796 340.219 152.796Z" fill="#FFC49B"/>
<path d="M315.157 70.6744C315.157 70.6744 308.512 103.338 271.944 114.012C260.528 117.344 234.595 79.7044 234.595 79.7044C234.595 79.7044 235.507 76.2357 241.218 77.0316C241.218 77.0316 266.468 93.7724 269.649 95.5923C272.469 97.2064 291.019 74.8473 299.476 71.2397C307.933 67.6347 315.157 70.6744 315.157 70.6744Z" fill="#FF8528"/>
<path d="M358.816 276.011C358.816 276.011 363.354 280.157 362.468 283.102C361.582 286.048 357.489 288.011 356.935 291.614C356.383 295.214 354.169 297.178 352.176 297.178C350.183 297.178 342.682 297.178 342.682 297.178C342.682 297.178 341.216 294.644 344.757 293.88C348.297 293.116 349.631 288.884 349.411 284.957C349.191 281.029 349.743 275.79 349.743 275.79L357.266 274.045L358.816 276.011Z" fill="#147973"/>
<path d="M303.16 286.738C303.16 286.738 303.974 296.175 301.981 297.157L276.491 297.105C276.491 297.105 276.491 294.159 280.586 293.505C284.681 292.85 291.873 290.45 293.089 285.102C294.309 279.754 303.16 286.738 303.16 286.738Z" fill="#147973"/>
<path d="M281.641 153.445C281.641 153.445 282.985 169.985 284.565 189.868C286.711 216.876 289.296 250.052 289.551 256.335C289.991 267.249 291.764 284.704 291.764 284.704C291.764 284.704 295.965 288.852 304.378 287.104C304.378 287.104 311.874 262.184 314.013 235.818C314.045 235.387 314.08 234.95 314.112 234.516C316.103 207.674 319.2 151.154 319.2 151.154L281.641 153.445Z" fill="#199F97"/>
<path d="M281.641 153.445C281.641 153.445 282.985 169.985 284.565 189.868L314.016 235.818C314.048 235.387 314.082 234.95 314.115 234.516C316.105 207.674 319.202 151.154 319.202 151.154L281.641 153.445Z" fill="#147973"/>
<path d="M287.781 155.409C287.781 155.409 312.013 215.311 327.947 243.462C343.88 271.613 348.859 279.467 348.859 279.467C348.859 279.467 357.987 275.867 358.816 273.413C358.816 273.413 352.724 219.067 342.053 205.817C336.025 198.332 328.942 175.866 328.61 168.009C328.279 160.152 326.454 144.604 326.454 144.604L287.781 155.409Z" fill="#199F97"/>
<path d="M319.663 63.0924C319.663 63.0924 303.267 71.0141 293.814 68.076C293.814 68.076 296.142 65.1354 300.212 62.9486C299.885 61.0494 299.63 59.4006 299.484 58.0022C299.083 54.7765 299.083 52.9468 299.083 52.9468L305.408 47.9632L311.407 43.1953C310.939 56.6039 319.663 63.0924 319.663 63.0924Z" fill="#FFC49B"/>
<path d="M328.303 147.672C328.34 148.679 326.196 149.824 325.248 150.253C318.235 153.338 311.689 155.487 304.272 156.204C295.51 157.101 285.149 155.128 281.587 155.2C281.223 155.2 280.896 155.056 280.606 154.806C280.351 154.627 280.171 144.052 280.351 130.751C280.351 130.215 280.351 129.677 280.389 129.139V128.96C280.46 123.764 280.644 118.314 280.896 112.862C281.404 100.889 282.352 89.3447 283.951 82.9652C285.877 75.4353 290.242 70.4542 294.203 66.8318L297.473 63.9657C300.746 64.6103 304.2 64.4318 307.653 62.7458C311.434 60.9185 315.506 58.9474 316.16 59.4482C321.104 63.0681 324.449 71.2055 326.231 81.604C326.239 81.6561 326.248 81.7057 326.256 81.7578C327.256 87.7033 327.756 94.3555 327.719 101.32C327.719 103.904 327.647 106.554 327.501 109.172C326.771 121.029 327.259 131.584 327.736 138.895C327.83 140.341 327.927 141.657 328.009 142.835C328.157 144.913 328.266 146.527 328.303 147.672Z" fill="#FFA968"/>
<path d="M327.739 138.893C300.561 107.467 317.42 84.6289 317.42 84.6289L326.256 81.7578C327.256 87.7034 327.756 94.3556 327.719 101.32C327.719 103.904 327.647 106.554 327.501 109.172C326.773 121.026 327.261 131.581 327.739 138.893Z" fill="#FF8528"/>
<path d="M311.52 48.3244C311.52 48.3244 307.376 55.889 299.488 58.0039C299.087 54.7782 299.087 52.9484 299.087 52.9484L305.413 47.9648L311.52 48.3244Z" fill="#E1B291"/>
<path d="M296.204 52.7297C296.204 52.7297 311.845 55.2909 313.313 45.6634C314.781 36.0335 317.789 29.8796 307.864 27.8366C297.939 25.7936 295.436 29.1804 294.151 32.2772C292.869 35.3715 292.171 51.8148 296.204 52.7297Z" fill="#FFC49B"/>
<path d="M318.995 26.6808C319.139 26.5172 319.465 26.3858 320.193 26.3461C320.193 26.3461 319.611 25.9817 318.832 25.9618C318.678 24.9478 318.141 23.1502 316.395 22.7138C316.395 22.7138 317.334 23.2147 317.455 24.2932C315.435 22.2155 311.107 20.703 299.12 21.6502C283.323 22.8998 288.529 33.0281 290.574 34.2356C292.619 35.443 297.768 32.133 301.578 32.4355C305.388 32.738 306.114 38.2522 307.406 39.0084C308.699 39.7646 308.191 38.4282 309.939 37.6348C311.687 36.8439 311.855 39.7448 311.35 41.6316C310.845 43.5184 313.249 46.0077 313.249 46.0077C313.249 46.0077 313.249 46.0077 315.678 43.3895C318.106 40.7712 320.394 29.676 319.29 27.3106C319.193 27.1073 319.096 26.8941 318.995 26.6808Z" fill="#293331"/>
<path d="M316.153 59.3691C316.153 59.3691 326.048 64.0626 330.794 71.2777C338.154 82.4696 346.686 123.256 346.844 127.034C347.003 130.81 340.618 157.476 340.618 157.476C340.618 157.476 334.141 157.05 332.473 153.777C332.473 153.777 333.767 126.38 332.946 124.617C332.126 122.856 305.95 87.8648 308.894 80.3993C311.838 72.9314 316.153 59.3691 316.153 59.3691Z" fill="#FFA968"/>
</g>
<defs>
<filter id="filter0_i_358_13581" x="61.4426" y="0" width="156.524" height="297.439" filterUnits="userSpaceOnUse" color-interpolation-filters="sRGB">
<feFlood flood-opacity="0" result="BackgroundImageFix"/>
<feBlend mode="normal" in="SourceGraphic" in2="BackgroundImageFix" result="shape"/>
<feColorMatrix in="SourceAlpha" type="matrix" values="0 0 0 0 0 0 0 0 0 0 0 0 0 0 0 0 0 0 127 0" result="hardAlpha"/>
<feOffset dy="-3"/>
<feComposite in2="hardAlpha" operator="arithmetic" k2="-1" k3="1"/>
<feColorMatrix type="matrix" values="0 0 0 0 0.0784314 0 0 0 0 0.47451 0 0 0 0 0.45098 0 0 0 0.13 0"/>
<feBlend mode="normal" in2="shape" result="effect1_innerShadow_358_13581"/>
</filter>
<clipPath id="clip0_358_13581">
<rect width="390" height="333" fill="white"/>
</clipPath>
</defs>
</svg>
