<svg width="497" height="333" viewBox="0 0 497 333" fill="none" xmlns="http://www.w3.org/2000/svg">
<g clip-path="url(#clip0_358_15374)">
<path d="M248.5 333C385.743 333 497 319.082 497 301.913C497 284.744 385.743 270.826 248.5 270.826C111.257 270.826 0 284.744 0 301.913C0 319.082 111.257 333 248.5 333Z" fill="#E9EAEB"/>
<path d="M360.758 293.663L322.503 135.034L325.175 128.789L363.073 293.644C363.17 294.066 362.849 294.468 362.414 294.468H361.781C361.297 294.468 360.875 294.137 360.758 293.663Z" fill="#199F97"/>
<path d="M188.108 294.467C187.323 294.467 186.725 293.763 186.852 292.987L198.119 224.758H202.948L189.511 293.315C189.381 293.987 188.794 294.467 188.108 294.467Z" fill="#199F97"/>
<path d="M296.197 294.467C295.411 294.467 294.814 293.763 294.941 292.987L306.208 224.758H311.037L297.6 293.315C297.467 293.987 296.879 294.467 296.197 294.467Z" fill="#199F97"/>
<path d="M322.402 224.905H187.839L215.716 50.2891H350.282L322.402 224.905Z" fill="white"/>
<path d="M332.472 223.572H177.925V228.708H332.472V223.572Z" fill="#199F97"/>
<path d="M269.009 86.8281C268.908 88.2101 268.703 89.5694 268.405 90.893C265.599 103.373 254.478 112.933 241.908 112.956C228 112.979 217.59 101.323 218.651 86.9157C219.713 72.5087 231.845 60.8138 245.752 60.7911C248.668 60.7846 251.428 61.2939 253.964 62.2379C255.104 62.6597 256.202 63.169 257.244 63.7562C259.494 65.0311 261.498 66.6759 263.19 68.6223C264.131 69.7026 264.976 70.8802 265.71 72.1324C266.138 72.8591 266.528 73.6117 266.879 74.3871C267.856 76.5476 268.531 78.8931 268.856 81.3683C269.022 82.6076 269.093 83.8857 269.077 85.1866C269.074 85.7251 269.048 86.2734 269.009 86.8281Z" fill="#ADD1C8"/>
<path d="M266.878 74.3841L243.833 86.8674C243.833 86.8674 253.341 70.1376 257.244 63.75C259.494 65.0249 261.498 66.6697 263.19 68.6161C264.131 69.6964 264.976 70.874 265.709 72.1262C266.138 72.8562 266.528 73.6088 266.878 74.3841Z" fill="white"/>
<path d="M269.272 71.2284L248.22 82.6314C248.22 82.6314 256.906 67.3485 260.472 61.5156C262.527 62.6803 264.359 64.1823 265.901 65.96C266.762 66.9495 267.531 68.0233 268.203 69.1684C268.596 69.8302 268.953 70.518 269.272 71.2284Z" fill="#E13D51"/>
<path d="M311.69 211.629L200.932 211.623L212.144 147.779L322.902 147.786L311.69 211.629ZM201.825 210.977L311.021 210.984L322.009 148.425L212.813 148.418L201.825 210.977Z" fill="#ADD1C8"/>
<path d="M305.085 202.876L206.854 202.869C206.854 202.869 224.279 193.533 229.059 194.023C233.839 194.512 240.71 198.292 245.126 198.438C249.542 198.584 254.328 185.335 259.244 185.961C264.161 186.584 266.012 198.305 268.557 197.16C271.103 196.014 278.75 195.518 283.153 197.16C287.557 198.801 293.973 191.943 297.844 192.157C301.714 192.375 305.085 202.876 305.085 202.876Z" fill="#E13D51"/>
<path d="M230.475 184.111H211.712L211.888 183.115L230.65 183.118L230.475 184.111Z" fill="#E13D51"/>
<path d="M230.101 186.236L211.339 186.233L211.514 185.24H230.276L230.101 186.236Z" fill="#E13D51"/>
<path d="M212.475 170.864L310.706 170.871C310.706 170.871 296.561 161.534 291.609 162.021C286.657 162.511 278.461 166.287 273.993 166.433C269.525 166.579 269.395 153.33 264.258 153.953C259.121 154.576 253.156 166.297 251.01 165.152C248.866 164.006 241.395 163.51 236.414 165.152C231.436 166.793 227.425 159.935 223.48 160.149C219.531 160.363 212.475 170.864 212.475 170.864Z" fill="#ADD1C8"/>
<path d="M235.774 153.933L217.011 153.93L217.187 152.938H235.949L235.774 153.933Z" fill="#ADD1C8"/>
<path d="M235.4 156.055H216.638L216.814 155.059L235.576 155.062L235.4 156.055Z" fill="#ADD1C8"/>
<path d="M218.843 138.875H214.534L218.278 118.703H222.587L218.843 138.875Z" fill="#ADD1C8"/>
<path d="M224.711 138.875H220.405L223.304 123.248H227.61L224.711 138.875Z" fill="#ADD1C8"/>
<path d="M230.581 138.875H226.272L229.296 122.58H233.605L230.581 138.875Z" fill="#ADD1C8"/>
<path d="M236.449 138.874H232.14L234.442 126.479H238.751L236.449 138.874Z" fill="#ADD1C8"/>
<path d="M242.32 138.876H238.011L240.479 125.578H244.788L242.32 138.876Z" fill="#ADD1C8"/>
<path d="M248.188 138.875H243.879L245.795 128.562H250.104L248.188 138.875Z" fill="#ADD1C8"/>
<path d="M276.477 138.875H272.168L275.912 118.703H280.221L276.477 138.875Z" fill="#E13D51"/>
<path d="M282.348 138.875H278.039L280.939 123.248H285.248L282.348 138.875Z" fill="#E13D51"/>
<path d="M288.216 138.875H283.907L286.933 122.58H291.239L288.216 138.875Z" fill="#E13D51"/>
<path d="M294.083 138.874H289.778L292.077 126.479H296.386L294.083 138.874Z" fill="#E13D51"/>
<path d="M299.954 138.876H295.645L298.113 125.578H302.422L299.954 138.876Z" fill="#E13D51"/>
<path d="M305.822 138.875H301.516L303.429 128.562H307.738L305.822 138.875Z" fill="#E13D51"/>
<path d="M297.22 73.0338H283.196L283.556 71.1133H297.581L297.22 73.0338Z" fill="#ADD1C8"/>
<path d="M314.427 73.0338H298.941L299.302 71.1133H314.787L314.427 73.0338Z" fill="#ADD1C8"/>
<path d="M325.464 73.0338H315.589L315.953 71.1133H325.824L325.464 73.0338Z" fill="#ADD1C8"/>
<path d="M334.68 73.0338H327.062L327.422 71.1133H335.043L334.68 73.0338Z" fill="#ADD1C8"/>
<path d="M295.681 81.2213H281.656L282.017 79.3008H296.041L295.681 81.2213Z" fill="#ADD1C8"/>
<path d="M312.888 81.2213H297.402L297.762 79.3008H313.248L312.888 81.2213Z" fill="#ADD1C8"/>
<path d="M323.925 81.2213H314.05L314.41 79.3008H324.285L323.925 81.2213Z" fill="#ADD1C8"/>
<path d="M333.14 81.2213H325.522L325.883 79.3008H333.504L333.14 81.2213Z" fill="#ADD1C8"/>
<path d="M305.555 68.5533H284.036L284.4 66.6328H305.916L305.555 68.5533Z" fill="#ADD1C8"/>
<path d="M320.009 68.5533H307.604L307.965 66.6328H320.369L320.009 68.5533Z" fill="#ADD1C8"/>
<path d="M335.533 68.5533H321.759L322.119 66.6328H335.894L335.533 68.5533Z" fill="#ADD1C8"/>
<path d="M303.919 77.261H282.4L282.76 75.3438H304.279L303.919 77.261Z" fill="#ADD1C8"/>
<path d="M318.372 77.261H305.968L306.328 75.3438H318.733L318.372 77.261Z" fill="#ADD1C8"/>
<path d="M333.897 77.261H320.122L320.483 75.3438H334.257L333.897 77.261Z" fill="#ADD1C8"/>
<path d="M294.142 89.4094H280.117L280.478 87.4922H294.502L294.142 89.4094Z" fill="#ADD1C8"/>
<path d="M311.349 89.4094H295.86L296.223 87.4922H311.709L311.349 89.4094Z" fill="#ADD1C8"/>
<path d="M322.386 89.4094H312.511L312.871 87.4922H322.746L322.386 89.4094Z" fill="#ADD1C8"/>
<path d="M331.601 89.4094H323.983L324.344 87.4922H331.962L331.601 89.4094Z" fill="#ADD1C8"/>
<path d="M302.38 85.4518H280.861L281.221 83.5312H302.74L302.38 85.4518Z" fill="#ADD1C8"/>
<path d="M316.833 85.4518H304.429L304.789 83.5312H317.193L316.833 85.4518Z" fill="#ADD1C8"/>
<path d="M332.358 85.4518H318.583L318.943 83.5312H332.718L332.358 85.4518Z" fill="#ADD1C8"/>
<path d="M292.7 97.0885H278.675L279.036 95.168H293.06L292.7 97.0885Z" fill="#ADD1C8"/>
<path d="M309.904 97.0885H294.418L294.778 95.168H310.264L309.904 97.0885Z" fill="#ADD1C8"/>
<path d="M320.941 97.0885H311.069L311.43 95.168H321.301L320.941 97.0885Z" fill="#ADD1C8"/>
<path d="M330.159 97.0885H322.542L322.902 95.168H330.52L330.159 97.0885Z" fill="#ADD1C8"/>
<path d="M300.938 93.1262H279.419L279.779 91.209H301.298L300.938 93.1262Z" fill="#ADD1C8"/>
<path d="M315.388 93.1262H302.987L303.347 91.209H315.752L315.388 93.1262Z" fill="#ADD1C8"/>
<path d="M330.913 93.1262H317.138L317.499 91.209H331.273L330.913 93.1262Z" fill="#ADD1C8"/>
<path d="M260.783 121.703H253.919L254.094 120.762H260.959L260.783 121.703Z" fill="#ADD1C8"/>
<path d="M269.203 121.703H261.625L261.8 120.762H269.379L269.203 121.703Z" fill="#ADD1C8"/>
<path d="M260.03 125.711H253.166L253.341 124.773H260.205L260.03 125.711Z" fill="#ADD1C8"/>
<path d="M268.45 125.711H260.871L261.046 124.773H268.625L268.45 125.711Z" fill="#ADD1C8"/>
<path d="M264.862 119.511H254.328L254.507 118.57H265.037L264.862 119.511Z" fill="#ADD1C8"/>
<path d="M271.937 119.511H265.865L266.041 118.57H272.113L271.937 119.511Z" fill="#ADD1C8"/>
<path d="M264.06 123.775H253.529L253.705 122.834H264.238L264.06 123.775Z" fill="#ADD1C8"/>
<path d="M271.135 123.775H265.063L265.242 122.834H271.311L271.135 123.775Z" fill="#ADD1C8"/>
<path d="M315.774 121.703H308.906L309.085 120.762H315.95L315.774 121.703Z" fill="#ADD1C8"/>
<path d="M324.194 121.703H316.615L316.791 120.762H324.37L324.194 121.703Z" fill="#ADD1C8"/>
<path d="M315.018 125.711H308.153L308.332 124.773H315.196L315.018 125.711Z" fill="#ADD1C8"/>
<path d="M323.441 125.711H315.862L316.037 124.773H323.616L323.441 125.711Z" fill="#ADD1C8"/>
<path d="M319.853 119.511H309.319L309.498 118.57H320.028L319.853 119.511Z" fill="#ADD1C8"/>
<path d="M326.925 119.511H320.856L321.032 118.57H327.104L326.925 119.511Z" fill="#ADD1C8"/>
<path d="M319.051 123.775H308.52L308.696 122.834H319.226L319.051 123.775Z" fill="#ADD1C8"/>
<path d="M326.126 123.775H320.054L320.23 122.834H326.302L326.126 123.775Z" fill="#ADD1C8"/>
<path d="M352.296 291.885C352.055 295.168 347.418 295.203 342.161 294.594C336.901 293.984 338.3 295.314 330.936 295.418C323.571 295.521 321.032 293.088 320.675 292.037C320.356 291.103 323.906 290.318 327.698 289.397C328.176 289.283 328.656 289.163 329.134 289.04C333.413 287.953 336.245 284.754 339.908 281.961C343.376 279.314 347.847 269.737 347.847 269.737L357.907 269.283C357.907 269.283 353.669 277.867 352.078 281.569C351.143 283.745 351.539 286.422 351.948 288.472C352.166 289.585 352.38 290.727 352.296 291.885Z" fill="#FFC49B"/>
<path d="M342.158 294.592C336.897 293.982 338.297 295.312 330.932 295.416C323.568 295.52 321.028 293.087 320.671 292.036C320.353 291.102 323.902 290.317 327.695 289.395L327.74 289.463C327.74 289.463 332.481 292.007 338.547 291.397C343.489 290.901 348.535 288.841 351.945 288.471C352.162 289.587 352.38 290.729 352.292 291.883C352.055 295.166 347.418 295.202 342.158 294.592Z" fill="#293331"/>
<path d="M421.779 292.563C421.542 295.846 416.905 295.885 411.645 295.281C406.384 294.678 407.784 296.005 400.419 296.115C393.054 296.225 390.512 293.796 390.155 292.745C389.836 291.81 393.382 291.022 397.175 290.097C397.652 289.984 398.13 289.861 398.61 289.741C402.887 288.651 405.718 285.449 409.375 282.649C412.839 279.999 409.378 264.313 409.378 264.313L420.444 263.236C420.444 263.236 419.915 276.443 419.922 282.451C419.925 284.819 421.016 287.1 421.425 289.15C421.646 290.266 421.863 291.408 421.779 292.563Z" fill="#FFC49B"/>
<path d="M411.645 295.282C406.384 294.678 407.784 296.005 400.419 296.115C393.054 296.226 390.512 293.796 390.155 292.745C389.836 291.811 393.382 291.022 397.175 290.098L397.221 290.166C397.221 290.166 401.965 292.703 408.03 292.09C412.973 291.59 418.015 289.523 421.425 289.15C421.643 290.266 421.863 291.408 421.776 292.563C421.542 295.846 416.905 295.885 411.645 295.282Z" fill="#293331"/>
<path d="M389.486 21.4338C387.58 13.6058 390.343 9.95945 392.833 8.01948C394.015 5.13873 395.363 3.06252 396.743 2.27745C399.26 0.850048 402.273 0.694332 404.38 0.817608C403.838 0.25638 402.77 0.055247 402.77 0.055247C404.078 -0.139398 406.994 1.15499 406.994 1.15499C425.179 -5.84575 428.036 20.9018 427.653 27.1174C427.273 33.3299 427.325 40.6485 436.784 45.5438C454.835 54.8868 430.786 90.0884 430.786 90.0884C431.244 85.0666 408.053 58.5656 395.954 50.6306C393.009 46.2997 391.963 38.6437 391.882 38.0435C392.392 44.1132 393.431 47.5163 394.36 49.4335C388.843 44.3662 388.024 32.1912 389.486 21.4338Z" fill="#293331"/>
<path d="M396.668 51.0324C396.607 51.0584 402.51 54.1208 406.952 52.9075C411.128 51.7688 413.859 46.3609 413.8 46.3479C412.031 45.9976 411.521 43.5678 411.56 33.1348L410.761 33.2905L397.318 35.9506C397.318 35.9506 397.623 40.1777 397.633 44.1582C397.636 47.5028 397.435 50.6755 396.668 51.0324Z" fill="#FFC49B"/>
<path d="M397.314 35.9512C397.314 35.9512 397.62 40.1782 397.629 44.1587C405.153 43.9478 409.128 37.0898 410.758 33.291L397.314 35.9512Z" fill="#E1B291"/>
<path d="M342.616 275.053C341.957 277.116 343.437 279.245 345.606 279.345L350.857 279.592L356.413 279.76C357.803 279.802 359.131 279.196 360.011 278.119C364.447 272.682 378.101 254.563 386.381 228.238C386.615 227.498 386.859 226.752 387.122 225.996C392.59 210.061 403.929 190.061 409.907 171.959C410.859 169.075 411.713 166.363 412.479 163.794C412.722 162.97 412.963 162.162 413.19 161.367C417.593 146.081 418.869 136.044 420.045 125.322L376.896 125.666C376.893 125.666 367.807 196.202 342.616 275.053Z" fill="#199F97"/>
<path d="M382.933 100.898C383.04 121.41 379.919 130.211 379.919 130.211C379.919 130.211 398.392 139.59 420.35 132.687C420.61 132.605 436.06 128.236 436.06 128.236C435.693 127.405 432.64 113.679 432.28 112.917C427.643 102.971 426.38 98.7955 425.831 95.7363C424.812 90.0267 424.789 84.1225 425.299 78.5492C426.64 63.8015 430.624 51.5616 430.624 51.5616C424.643 50.2023 419.038 47.8114 412.81 45.4789C411.378 47.2599 407.001 49.1253 403.202 49.0409C398.828 48.9436 397.409 47.075 397.636 45.0312C392.976 47.6233 389.255 50.0693 389.255 50.0693C385.293 56.9435 377.26 63.6199 376.679 74.1632C376.536 76.7584 382.929 100.323 382.933 100.898Z" fill="white"/>
<path d="M420.041 103.18C421.928 105.847 425.545 122.058 434.54 124.095C429.903 112.543 426.383 107.476 425.834 103.923C424.815 97.2924 424.792 90.4312 425.302 83.9592C422.292 78.6844 420.041 75.0704 420.041 75.0704C419.804 74.2172 415.255 60.1639 413.797 72.725C412.342 85.2958 417.934 100.199 420.041 103.18Z" fill="#5F9AA8"/>
<path d="M394.801 39.721C394.801 39.721 412.602 40.013 412.612 28.9376C412.625 17.8623 414.93 10.4398 403.565 9.78454C392.2 9.12924 389.989 13.353 389.083 17.0481C388.18 20.7463 390.171 39.3609 394.801 39.721Z" fill="#FFC49B"/>
<path d="M395.46 9.51218C395.46 9.51218 400.334 22.508 407.813 24.4285C415.291 26.349 418.535 24.3474 418.535 24.3474C418.535 24.3474 412.797 19.7959 411.609 11.8479C411.609 11.8479 399.136 3.32895 395.46 9.51218Z" fill="#293331"/>
<path d="M396.668 10.5659C396.668 10.5659 393.028 13.4662 392.142 16.2885C391.255 19.1076 390.856 24.9145 389.161 24.7199C389.161 24.7199 385.488 15.8862 389.615 10.8903C393.989 5.58951 396.668 10.5659 396.668 10.5659Z" fill="#293331"/>
<path d="M366.794 115.137L358.387 140.742L363.183 142.663L377.081 120.039L366.794 115.137Z" fill="#FFC49B"/>
<path d="M389.46 48.5605C389.46 48.5605 379.546 52.4891 376.679 58.6172C373.808 64.7453 369.467 105.841 367.736 110.062C366.005 114.283 364.706 117.624 364.706 117.624C364.706 117.624 369.704 121.832 374.73 122.14C379.757 122.451 389.46 48.5605 389.46 48.5605Z" fill="#FFA561"/>
<path d="M397.639 45.0312C397.639 45.0312 387.342 70.4487 387.037 75.5906C386.735 80.7357 385.826 159.707 385.826 159.707C385.826 159.707 386.433 163.337 379.465 161.825C372.5 160.313 370.681 158.798 370.681 158.798C370.681 158.798 377.344 110.085 375.526 93.1411C373.708 76.1972 389.456 48.5608 389.456 48.5608L397.639 45.0312Z" fill="#FFA561"/>
<path d="M350.854 279.591L356.887 279.776C357.965 279.809 358.998 279.345 359.686 278.514C363.742 273.609 377.887 255.238 386.381 228.241C386.615 227.501 386.859 226.755 387.122 225.999C392.59 210.064 403.929 190.064 409.907 171.962C410.859 169.078 411.713 166.366 412.479 163.797C412.722 162.973 412.963 162.165 413.19 161.37L406.835 156.553C406.835 156.553 387.758 187.414 381.852 216.458C376.721 241.684 356.173 272.042 350.854 279.591Z" fill="#147973"/>
<path d="M406.17 219.162C406.066 232.524 406.699 262.305 408.329 276.864C408.478 278.197 409.605 279.203 410.95 279.203H415.45C417.347 279.203 418.769 279.19 419.71 279.174C420.525 279.161 421.224 278.577 421.38 277.776C425.857 255.015 429.062 236.105 431.407 219.765C433.368 206.088 435.115 194.364 436.456 184.271C437.807 174.114 438.745 165.608 439.083 158.423C439.135 157.29 439.174 156.191 439.194 155.12C439.216 154.046 439.22 153.002 439.213 151.99L401.932 148.359C402.4 173.109 406.231 210.954 406.17 219.162Z" fill="#199F97"/>
<path d="M415.45 279.202C417.155 279.202 418.473 279.192 419.408 279.179C420.399 279.166 421.249 278.456 421.438 277.486C425.886 254.855 429.072 236.039 431.407 219.77C433.368 206.093 435.115 194.369 436.456 184.277C437.807 174.119 438.745 165.613 439.083 158.428L425.403 166.467C425.403 166.467 434.134 169.545 430.803 192.841C427.471 216.137 420.087 275.903 415.45 279.202Z" fill="#147973"/>
<path d="M413.69 158.195C413.69 158.195 416.317 167.674 425.403 166.464C434.488 165.254 447.409 159.807 447.409 159.807C447.409 159.807 443.525 147.551 438.697 131.447C432.852 111.953 425.617 86.8214 422.207 70.9675C421.249 66.5264 420.597 62.8152 420.353 60.1582L412.817 45.5469C412.817 45.5469 401.578 70.747 400.971 77.1021C400.364 83.4573 413.69 158.195 413.69 158.195Z" fill="#FFA561"/>
<path d="M422.763 76.1587L412.813 45.5508C412.839 45.5638 425.38 49.2782 431.686 52.4607C431.686 52.4607 435.628 57.5377 438.066 69.2521C438.066 69.2521 440.645 97.3783 434.891 107.665C434.891 107.665 416.72 111.295 387.644 101.31V94.6533C387.644 94.6533 419.444 96.3175 425.958 97.0734L422.763 76.1587Z" fill="#FFC49B"/>
<path d="M414.093 90.4164C414.499 100.703 416.921 120.674 438.525 131.363C438.583 131.389 438.638 131.422 438.697 131.444C432.852 111.951 425.617 86.8187 422.207 70.9648C418.239 76.8918 413.872 84.7522 414.093 90.4164Z" fill="#FF8528"/>
<path d="M412.813 45.5508C412.813 45.5508 431.254 46.8484 435.696 56.7332C440.138 66.6179 441.551 99.4967 435.897 109.18C435.897 109.18 428.114 111.396 414.349 108.823C414.18 108.791 414.011 108.759 413.839 108.726C413.839 108.726 409.449 97.985 413.385 95.8666C413.385 95.8666 424.993 96.4732 423.782 92.6387C422.574 88.8042 412.813 45.5508 412.813 45.5508Z" fill="#FFA561"/>
<path d="M366.573 98.7659L367.115 100.511L397.376 91.1066C397.376 91.1066 397.779 90.646 397.581 90.0361C397.36 89.3613 396.834 89.3613 396.834 89.3613L366.573 98.7659Z" fill="#E13D51"/>
<path d="M364.385 100.414L366.573 98.7656L367.116 100.511L364.385 100.414Z" fill="#E13D51"/>
<path d="M359.582 140.039C359.582 140.039 351.906 144.276 350.896 147.507C349.886 150.738 350.581 157.499 351.799 157.398C353.016 157.298 354.835 150.131 355.845 149.629C356.855 149.123 358.27 147.611 358.27 148.72C358.27 149.83 357.261 151.848 357.764 152.152C358.27 152.454 359.884 149.327 360.995 148.72C362.105 148.114 362.573 143.124 363.651 141.784C364.732 140.441 359.582 140.039 359.582 140.039Z" fill="#FFC49B"/>
<path d="M387.644 94.6525C387.644 94.6525 380.78 90.4287 377.899 91.0775C375.019 91.7263 367.681 97.0369 371.21 98.1886C374.74 99.3402 377.601 98.1334 378.958 98.9672C380.315 99.8041 381.319 101.329 387.644 101.309C393.97 101.29 387.644 94.6525 387.644 94.6525Z" fill="#FFC49B"/>
<path d="M186.355 311.036H148.613C146.798 308.824 147.467 300.655 147.743 297.988C147.798 297.45 147.837 297.138 147.837 297.138C147.837 297.138 160.725 286.838 162.494 294.725C162.55 294.971 162.615 295.215 162.686 295.451C164.917 302.828 174.921 306.18 180.698 307.114C184.455 307.724 185.842 309.677 186.355 311.036Z" fill="#293331"/>
<path d="M83.3671 188.51C84.7309 188.51 148.022 200.383 158.491 213.327C163.722 219.796 164.498 294.488 164.498 294.488C164.498 294.488 158.026 302.504 144.054 297.849C144.054 297.849 133.809 246.744 134.565 231.244C134.773 226.959 91.3227 230.625 83.3704 228.568C75.418 226.511 55.9869 209.226 60.2667 200.805C64.5465 192.386 83.3671 188.51 83.3671 188.51Z" fill="#FF8528"/>
<path d="M129.195 185C129.195 185 133.244 188.491 137.4 189.48C139.771 190.045 142.063 190.684 143.43 191.31C147.187 193.032 154.318 200.727 153.656 201.49C151.529 203.942 142.969 197.555 141.329 198.006C139.693 198.456 144.015 202.168 142.3 203.177C141.404 203.702 139.715 200.497 138.137 200.046C136.001 199.436 134.582 196.212 133.942 195.991C132.695 195.563 127.496 190.904 127.496 190.904L129.195 185Z" fill="#FFC49B"/>
<path d="M203.035 311.036H165.293C163.478 308.824 164.147 300.655 164.423 297.988C164.478 297.45 164.517 297.138 164.517 297.138C164.517 297.138 177.405 286.838 179.175 294.725C179.23 294.971 179.295 295.215 179.367 295.451C181.598 302.828 191.602 306.18 197.379 307.114C201.136 307.724 202.522 309.677 203.035 311.036Z" fill="#293331"/>
<path d="M102.016 188.51C103.379 188.51 166.67 200.383 177.139 213.327C182.37 219.796 183.146 294.488 183.146 294.488C183.146 294.488 176.675 302.504 162.702 297.849C162.702 297.849 152.457 246.744 153.214 231.244C153.422 226.959 109.971 230.625 102.019 228.568C94.0665 226.511 74.6354 209.226 78.9151 200.805C83.1949 192.386 102.016 188.51 102.016 188.51Z" fill="#FFA561"/>
<path d="M98.0573 111.671C93.5048 111.295 88.7314 110.085 84.6043 108.745C79.4477 107.074 75.2881 104.628 77.967 99.9211C80.4349 95.5805 84.4322 85.8839 84.1626 77.8516L93.7613 85.579L100.282 90.8279C100.282 90.8279 100.256 93.9228 99.5413 99.3436C99.4114 100.333 99.2588 101.4 99.0802 102.539C98.9341 103.46 99.3594 104.378 100.152 104.872C100.2 104.901 100.249 104.933 100.298 104.962C103.535 106.996 101.87 111.986 98.0573 111.671Z" fill="#FFC49B"/>
<path d="M100.278 89.5495C100.278 89.5495 100.613 90.6719 100.038 94.8211C94.2257 93.8738 88.7932 89.2413 88.7932 89.2413C91.7514 88.4303 92.8295 85.2348 95.031 85.5333L100.278 89.5495Z" fill="#E1B291"/>
<path d="M105.656 90.4949C105.656 90.4949 83.2989 94.2061 81.2013 80.2598C79.1036 66.3167 74.8043 57.4019 88.988 54.4433C103.172 51.4847 106.753 56.3898 108.588 60.8731C110.419 65.3564 111.416 89.168 105.656 90.4949Z" fill="#FFC49B"/>
<path d="M111.874 54.7046C112.835 58.0623 110.263 62.1531 105.951 63.4994C99.5478 65.4977 100.964 73.3452 98.0833 73.2381C95.203 73.1311 94.0406 68.7288 91.4688 72.2454C89.2737 75.2462 93.2969 78.8017 93.0177 80.4497C92.5436 83.2753 88.1145 89.053 84.1204 88.7643C80.1296 88.4756 72.6611 69.5236 74.1548 63.6616C75.6485 57.7995 81.6233 51.6163 87.2799 50.7631C92.9365 49.9099 100.788 52.3494 102.603 52.3494C104.415 52.3462 111.355 52.8912 111.874 54.7046Z" fill="#293331"/>
<path d="M117.42 184.329C117.047 187.547 116.368 189.737 115.303 190.447C111.972 192.676 107.552 195.45 102.62 198.194C85.1336 207.936 61.1921 217.338 56.3214 200.874C50.5998 181.536 54.3601 145.225 59.9679 122.672C63.1956 109.679 72.1286 96.0443 78.1684 96.0606C88.4587 96.0768 103.25 98.7921 109.221 113.511C111.533 119.214 114.933 138.97 116.667 157.072C117.7 167.859 118.141 178.052 117.42 184.329Z" fill="white"/>
<path d="M77.1292 96.1878L79.4574 90.9453C79.4574 90.9453 100.113 93.0475 103.616 104.905C103.62 104.901 87.6533 96.4408 77.1292 96.1878Z" fill="#E1EAE8"/>
<path d="M117.42 184.329C117.047 187.547 116.368 189.737 115.303 190.447C111.971 192.676 107.552 195.45 102.62 198.194C97.4728 195.07 86.9065 187.612 84.4354 178.82C81.2077 167.327 83.471 153.186 83.471 153.186L117.42 184.329Z" fill="#E1EAE8"/>
<path d="M81.3215 113.869C81.3215 113.869 83.114 163.26 85.926 173.028C90.7189 189.68 134.445 195.61 134.445 195.61C134.445 195.61 137.024 192.691 135.871 187.847C135.871 187.847 109.731 167.263 108.965 163.345C108.202 159.426 114.66 132.87 107.276 123.212C99.8922 113.558 86.28 105.191 81.3215 113.869Z" fill="white"/>
<path d="M26.5025 310.566L26.3596 310.563C25.1809 310.54 24.2717 309.58 24.3853 308.474L32.2403 230.1L39.0951 230.709L27.8111 309.508C27.7234 310.125 27.1617 310.579 26.5025 310.566Z" fill="#ADD1C8"/>
<path d="M66.9332 310.566L66.7903 310.563C65.6116 310.54 64.7023 309.58 64.816 308.474L72.6709 230.1L79.5257 230.709L68.245 309.505C68.1541 310.125 67.5923 310.579 66.9332 310.566Z" fill="#ADD1C8"/>
<path d="M142.839 310.566L142.982 310.563C144.161 310.54 145.07 309.58 144.956 308.474L137.101 230.1L130.247 230.709L141.527 309.505C141.615 310.125 142.18 310.579 142.839 310.566Z" fill="#ADD1C8"/>
<path d="M28.7202 218.999L21.268 153.54C20.2906 144.106 23.4501 134.87 37.0752 134.157L61.0459 132.697C75.2523 132.11 81.6687 143.925 83.4677 153.018L97.6968 224.975L28.7202 218.999Z" fill="#ADD1C8"/>
<path d="M32.7272 231.249H139.118C141.254 231.249 143.005 229.501 143.005 227.366V222.584C143.005 220.45 141.254 218.701 139.118 218.701H28.8403V227.366C28.8403 229.501 30.5906 231.249 32.7272 231.249Z" fill="#ADD1C8"/>
<path d="M31.8602 231.25H94.6801C96.3395 231.25 97.6968 229.894 97.6968 228.236V221.719C97.6968 220.061 96.3395 218.705 94.6801 218.705H28.8403V228.236C28.8403 229.891 30.2009 231.25 31.8602 231.25Z" fill="#ADD1C8"/>
</g>
<defs>
<clipPath id="clip0_358_15374">
<rect width="497" height="333" fill="white"/>
</clipPath>
</defs>
</svg>
