<svg width="88" height="88" viewBox="0 0 88 88" fill="none" xmlns="http://www.w3.org/2000/svg">
<path fill-rule="evenodd" clip-rule="evenodd" d="M62.4011 21.654C63.7801 21.654 65.1003 21.1 66.072 20.1175C67.0434 19.1354 67.5871 17.8056 67.5871 16.4214C67.5871 15.0372 67.0434 13.7075 66.072 12.7254C65.1003 11.7429 63.7801 11.1889 62.4011 11.1889C61.0221 11.1889 59.7018 11.7429 58.7301 12.7254C57.7588 13.7075 57.215 15.0372 57.215 16.4214C57.215 17.8056 57.7588 19.1354 58.7301 20.1175C59.7018 21.1 61.0221 21.654 62.4011 21.654ZM62.4011 13.1889C63.2425 13.1889 64.0517 13.5267 64.65 14.1318C65.2488 14.7372 65.5871 15.5606 65.5871 16.4214C65.5871 17.2823 65.2488 18.1057 64.65 18.7111C64.0517 19.3161 63.2425 19.654 62.4011 19.654C61.5597 19.654 60.7505 19.3161 60.1521 18.7111C59.5534 18.1057 59.215 17.2823 59.215 16.4214C59.215 15.5606 59.5534 14.7372 60.1521 14.1318C60.7505 13.5267 61.5597 13.1889 62.4011 13.1889Z" fill="#199F97"/>
<path fill-rule="evenodd" clip-rule="evenodd" d="M75.122 16.4214C75.122 9.32762 69.4437 3.57031 62.4011 3.57031C55.3584 3.57031 49.6802 9.32762 49.6802 16.4214C49.6802 18.8436 50.4731 21.4781 51.5973 24.0152C52.7272 26.5653 54.225 29.0906 55.7088 31.3142C57.1945 33.5407 58.6782 35.4827 59.7898 36.8676C59.9496 37.0666 60.1017 37.2543 60.2452 37.4297H57.6504C57.0981 37.4297 56.6504 37.8774 56.6504 38.4297C56.6504 38.982 57.0981 39.4297 57.6504 39.4297H62.3248C62.3333 39.4297 62.3418 39.4296 62.3502 39.4294C62.3671 39.4302 62.3841 39.4307 62.4011 39.4307C62.6858 39.4307 62.9575 39.3089 63.1472 39.0965C63.1471 39.0966 63.147 39.0966 63.1032 39.0576C63.1031 39.0576 63.1032 39.0575 63.1032 39.0576L63.1472 39.0965L63.1499 39.0935L63.1571 39.0853L63.184 39.0549C63.2074 39.0284 63.2416 38.9896 63.2858 38.939C63.3742 38.8378 63.5028 38.6894 63.6659 38.4981C63.9919 38.1154 64.4561 37.5606 65.0123 36.8676C66.1239 35.4827 67.6076 33.5407 69.0933 31.3142C70.5771 29.0906 72.075 26.5653 73.2048 24.0152C74.329 21.4781 75.122 18.8436 75.122 16.4214ZM62.4011 36.8966C62.1152 36.5566 61.7582 36.1248 61.3495 35.6157C60.2635 34.2626 58.817 32.3689 57.3724 30.2041C55.926 28.0365 54.4936 25.615 53.4258 23.2051C52.3523 20.7822 51.6802 18.4434 51.6802 16.4214C51.6802 10.4113 56.4838 5.57031 62.4011 5.57031C68.3184 5.57031 73.122 10.4113 73.122 16.4214C73.122 18.4434 72.4498 20.7822 71.3763 23.2051C70.3085 25.615 68.8761 28.0365 67.4297 30.2041C65.9851 32.3689 64.5387 34.2626 63.4526 35.6157C63.044 36.1248 62.687 36.5566 62.4011 36.8966Z" fill="#199F97"/>
<path fill-rule="evenodd" clip-rule="evenodd" d="M19.2907 60.654C20.6697 60.654 21.99 60.1 22.9617 59.1175C23.933 58.1354 24.4767 56.8056 24.4767 55.4214C24.4767 54.0372 23.933 52.7075 22.9617 51.7254C21.99 50.7429 20.6697 50.1889 19.2907 50.1889C17.9117 50.1889 16.5914 50.7429 15.6197 51.7254C14.6484 52.7075 14.1047 54.0372 14.1047 55.4214C14.1047 56.8056 14.6484 58.1354 15.6197 59.1175C16.5914 60.1 17.9117 60.654 19.2907 60.654ZM19.2907 52.1889C20.1321 52.1889 20.9413 52.5267 21.5397 53.1318C22.1384 53.7372 22.4767 54.5606 22.4767 55.4214C22.4767 56.2823 22.1384 57.1057 21.5397 57.7111C20.9413 58.3161 20.1321 58.654 19.2907 58.654C18.4493 58.654 17.6401 58.3161 17.0417 57.7111C16.443 57.1057 16.1047 56.2823 16.1047 55.4214C16.1047 54.5606 16.443 53.7372 17.0417 53.1318C17.6401 52.5267 18.4493 52.1889 19.2907 52.1889Z" fill="#199F97"/>
<path fill-rule="evenodd" clip-rule="evenodd" d="M32.0116 55.4214C32.0116 48.3276 26.3334 42.5703 19.2907 42.5703C12.2481 42.5703 6.56982 48.3276 6.56982 55.4214C6.56982 57.8436 7.36278 60.4781 8.48694 63.0152C9.61681 65.5653 11.1147 68.0906 12.5985 70.3142C14.0841 72.5407 15.5679 74.4827 16.6795 75.8676C17.2357 76.5606 17.6999 77.1154 18.0259 77.4981C18.189 77.6894 18.3176 77.8378 18.406 77.939L18.4653 78.0068L18.5077 78.0549L18.5347 78.0853L18.5419 78.0935L18.544 78.0958C18.5441 78.0959 18.5443 78.0961 18.6254 78.0241C18.6252 78.0239 18.6255 78.0243 18.6254 78.0241L18.5449 78.0969C18.7347 78.3092 19.0059 78.4307 19.2907 78.4307C19.3162 78.4307 19.3416 78.4297 19.3669 78.4278C19.3876 78.429 19.4085 78.4297 19.4296 78.4297H23.201C23.7533 78.4297 24.201 77.982 24.201 77.4297C24.201 76.8774 23.7533 76.4297 23.201 76.4297H21.4466C21.59 76.2543 21.7422 76.0666 21.902 75.8676C23.0136 74.4827 24.4973 72.5407 25.983 70.3142C27.4668 68.0906 28.9646 65.5653 30.0945 63.0152C31.2187 60.4781 32.0116 57.8436 32.0116 55.4214ZM19.2907 75.8966C19.0048 75.5566 18.6478 75.1248 18.2392 74.6157C17.1531 73.2626 15.7066 71.3689 14.2621 69.2041C12.8157 67.0365 11.3833 64.615 10.3155 62.2051C9.24198 59.7822 8.56982 57.4434 8.56982 55.4214C8.56982 49.4113 13.3734 44.5703 19.2907 44.5703C25.208 44.5703 30.0116 49.4113 30.0116 55.4214C30.0116 57.4434 29.3394 59.7822 28.2659 62.2051C27.1981 64.615 25.7658 67.0365 24.3193 69.2041C22.8748 71.3689 21.4283 73.2626 20.3423 74.6157C19.9336 75.1248 19.5766 75.5566 19.2907 75.8966Z" fill="#199F97"/>
<path d="M51.8074 37.4297C52.3597 37.4297 52.8074 37.8774 52.8074 38.4297C52.8074 38.982 52.3597 39.4297 51.8074 39.4297H47.133C45.6365 39.4297 44.2289 39.7863 42.9917 40.4154C42.4994 40.6657 41.8974 40.4696 41.6471 39.9773C41.3968 39.485 41.5929 38.883 42.0852 38.6326C43.598 37.8634 45.3156 37.4297 47.133 37.4297H51.8074Z" fill="#199F97"/>
<path d="M37.4449 43.1297C37.7088 42.6446 38.316 42.4652 38.8012 42.7291C39.2863 42.9931 39.4657 43.6003 39.2017 44.0854C38.5373 45.3068 38.1612 46.6993 38.1612 48.1797C38.1612 49.6601 38.5373 51.0526 39.2017 52.2739C39.4657 52.7591 39.2863 53.3663 38.8012 53.6302C38.316 53.8942 37.7088 53.7148 37.4449 53.2297C36.6257 51.7238 36.1612 50.0038 36.1612 48.1797C36.1612 46.3556 36.6257 44.6356 37.4449 43.1297Z" fill="#199F97"/>
<path d="M42.0852 57.7267C41.5929 57.4764 41.3968 56.8744 41.6471 56.3821C41.8974 55.8898 42.4994 55.6937 42.9917 55.944C44.2289 56.5731 45.6365 56.9297 47.133 56.9297H50.4137C50.966 56.9297 51.4137 57.3774 51.4137 57.9297C51.4137 58.482 50.966 58.9297 50.4137 58.9297H47.133C45.3156 58.9297 43.598 58.496 42.0852 57.7267Z" fill="#199F97"/>
<path d="M68.4577 56.9297C70.2752 56.9297 71.9927 57.3634 73.5055 58.1326C73.9978 58.383 74.194 58.985 73.9436 59.4773C73.6933 59.9696 73.0913 60.1657 72.599 59.9154C71.3618 59.2863 69.9543 58.9297 68.4577 58.9297H65.177C64.6247 58.9297 64.177 58.482 64.177 57.9297C64.177 57.3774 64.6247 56.9297 65.177 56.9297H68.4577Z" fill="#199F97"/>
<path d="M61.0761 56.9297C61.6284 56.9297 62.0761 57.3774 62.0761 57.9297C62.0761 58.482 61.6284 58.9297 61.0761 58.9297H54.5146C53.9624 58.9297 53.5146 58.482 53.5146 57.9297C53.5146 57.3774 53.9624 56.9297 54.5146 56.9297H61.0761Z" fill="#199F97"/>
<path d="M76.389 63.5854C76.1251 63.1003 76.3044 62.4931 76.7896 62.2291C77.2747 61.9652 77.8819 62.1446 78.1459 62.6297C78.9651 64.1356 79.4296 65.8556 79.4296 67.6797C79.4296 69.5038 78.9651 71.2238 78.1459 72.7297C77.8819 73.2148 77.2747 73.3942 76.7896 73.1302C76.3044 72.8663 76.1251 72.2591 76.389 71.7739C77.0534 70.5526 77.4296 69.1601 77.4296 67.6797C77.4296 66.1993 77.0534 64.8068 76.389 63.5854Z" fill="#199F97"/>
<path d="M72.599 75.444C73.0913 75.1937 73.6933 75.3898 73.9436 75.8821C74.194 76.3744 73.9978 76.9764 73.5055 77.2267C71.9927 77.996 70.2752 78.4297 68.4577 78.4297H64.6863C64.1341 78.4297 63.6863 77.982 63.6863 77.4297C63.6863 76.8774 64.1341 76.4297 64.6863 76.4297H68.4577C69.9543 76.4297 71.3618 76.0731 72.599 75.444Z" fill="#199F97"/>
<path d="M59.9721 76.4297C60.5244 76.4297 60.9721 76.8774 60.9721 77.4297C60.9721 77.982 60.5244 78.4297 59.9721 78.4297H52.4293C51.877 78.4297 51.4293 77.982 51.4293 77.4297C51.4293 76.8774 51.877 76.4297 52.4293 76.4297H59.9721Z" fill="#199F97"/>
<path d="M47.7151 76.4297C48.2673 76.4297 48.7151 76.8774 48.7151 77.4297C48.7151 77.982 48.2673 78.4297 47.7151 78.4297H40.1723C39.62 78.4297 39.1723 77.982 39.1723 77.4297C39.1723 76.8774 39.62 76.4297 40.1723 76.4297H47.7151Z" fill="#199F97"/>
<path d="M35.458 76.4297C36.0103 76.4297 36.458 76.8774 36.458 77.4297C36.458 77.982 36.0103 78.4297 35.458 78.4297H27.9152C27.3629 78.4297 26.9152 77.982 26.9152 77.4297C26.9152 76.8774 27.3629 76.4297 27.9152 76.4297H35.458Z" fill="#199F97"/>
</svg>
