<svg width="86" height="86" viewBox="0 0 86 86" fill="none" xmlns="http://www.w3.org/2000/svg">
<path d="M44.0297 42.3127C43.6392 41.9221 43.006 41.9221 42.6155 42.3127C42.225 42.7032 42.225 43.3363 42.6155 43.7269L44.1633 45.2747C43.3267 46.3866 42.9215 47.638 42.9429 48.8939C42.9692 50.4352 43.6364 51.9012 44.7832 53.0479C45.8811 54.1458 47.2518 54.5697 48.7294 54.6046C50.1756 54.6388 51.7794 54.3032 53.4468 53.8394C54.8537 53.4481 56.1326 53.2242 57.1895 53.244C58.2511 53.2638 58.9582 53.5247 59.3938 53.9602C60.1508 54.7173 60.6799 55.6393 60.7994 56.5572C60.9126 57.4268 60.6753 58.4007 59.6895 59.3866C58.7111 60.3649 57.7135 60.7638 56.801 60.7581C55.8855 60.7525 54.9022 60.3386 53.9588 59.3952C53.5683 59.0046 52.9351 59.0046 52.5446 59.3952C52.1541 59.7857 52.1541 60.4189 52.5446 60.8094C53.7756 62.0403 55.2384 62.7485 56.7886 62.7581C58.0459 62.7659 59.2604 62.3135 60.3534 61.4648L61.6829 62.7943C62.0735 63.1848 62.7066 63.1848 63.0972 62.7943C63.4877 62.4038 63.4877 61.7706 63.0972 61.3801L61.7604 60.0433C62.6497 58.8455 62.9458 57.5522 62.7827 56.299C62.5908 54.8248 61.7802 53.5183 60.808 52.546C59.8616 51.5997 58.5564 51.2691 57.2268 51.2443C55.8926 51.2194 54.4014 51.4979 52.9109 51.9126C51.286 52.3646 49.9162 52.6321 48.7767 52.6052C47.6685 52.579 46.841 52.2774 46.1974 51.6337C45.3793 50.8157 44.9592 49.8313 44.9426 48.8598C44.9262 47.8968 45.3046 46.8646 46.236 45.9327C47.2853 44.8828 48.3544 44.7397 49.2923 44.932C50.2929 45.1372 51.1728 45.7393 51.6323 46.1988C52.0229 46.5893 52.656 46.5893 53.0466 46.1988C53.4371 45.8082 53.437 45.1751 53.0465 44.7845C52.377 44.1151 51.1615 43.2736 49.694 42.9728C48.4065 42.7088 46.948 42.8711 45.5823 43.8652L44.0297 42.3127Z" fill="#199F97"/>
<path fill-rule="evenodd" clip-rule="evenodd" d="M13.8312 32.2171C15.6592 34.0451 17.898 35.2156 20.2506 35.727L18.772 46.3723C18.5565 47.9244 19.081 49.4877 20.189 50.5957L53.4299 83.8366C55.3825 85.7892 58.5483 85.7892 60.5009 83.8366L83.8355 60.5021C85.7881 58.5495 85.7881 55.3836 83.8355 53.431L50.5946 20.1901C49.4866 19.0821 47.9232 18.5576 46.3712 18.7732L35.726 20.2517C35.2148 17.8992 34.0448 15.6611 32.216 13.8324C27.1392 8.75554 18.908 8.75554 13.8312 13.8324C8.7544 18.9092 8.7544 27.1403 13.8312 32.2171ZM15.2454 15.2466C10.9497 19.5423 10.9497 26.5072 15.2454 30.8029C16.7546 32.3121 18.5913 33.2904 20.5266 33.7393L21.6177 25.8835C21.9254 23.6681 23.667 21.9266 25.8823 21.6189L33.738 20.5278C33.2889 18.5924 32.3101 16.7549 30.8018 15.2466C26.506 10.9508 19.5412 10.9508 15.2454 15.2466ZM26.1575 23.5999L34.0116 22.509C34.0724 23.8134 33.9023 25.1266 33.5012 26.3821C31.5312 25.6179 29.2098 26.0309 27.6198 27.6209C25.4719 29.7688 25.4719 33.2512 27.6198 35.3991C29.7677 37.547 33.2501 37.547 35.398 35.3991C37.5459 33.2512 37.5459 29.7688 35.398 27.6209C35.347 27.5699 35.2952 27.5201 35.2427 27.4715C35.8546 25.7869 36.1069 24.001 35.9996 22.2329L46.6463 20.7542C47.5776 20.6248 48.5156 20.9395 49.1804 21.6043L82.4212 54.8452C83.5928 56.0168 83.5928 57.9163 82.4212 59.0879L59.0867 82.4224C57.9151 83.594 56.0157 83.594 54.8441 82.4224L21.6032 49.1815C20.9384 48.5167 20.6237 47.5787 20.753 46.6475L23.5987 26.1586C23.7833 24.8294 24.8283 23.7845 26.1575 23.5999ZM29.034 29.0352C30.0306 28.0386 31.4787 27.7686 32.7199 28.2253C32.2227 29.1514 31.5833 30.0214 30.8018 30.8029C30.0193 31.5854 29.1495 32.2245 28.2243 32.7213C27.7674 31.48 28.0373 30.0318 29.034 29.0352ZM33.9838 33.9849C32.7454 35.2233 30.81 35.3397 29.4405 34.3341C30.4347 33.7693 31.3697 33.0634 32.216 32.2171C33.063 31.3701 33.7687 30.4353 34.3331 29.4419C35.3385 30.8113 35.222 32.7466 33.9838 33.9849Z" fill="#199F97"/>
</svg>
