<svg width="88" height="88" viewBox="0 0 88 88" fill="none" xmlns="http://www.w3.org/2000/svg">
<path d="M51.2025 11.8787C51.5931 12.2692 51.5932 12.9024 51.2027 13.293L42.5243 21.9734C42.3368 22.161 42.0824 22.2663 41.8172 22.2664C41.5519 22.2664 41.2976 22.161 41.11 21.9735L36.7976 17.661C36.4071 17.2705 36.4071 16.6373 36.7976 16.2468C37.1882 15.8563 37.8213 15.8563 38.2118 16.2468L41.817 19.8521L49.7883 11.8789C50.1788 11.4883 50.812 11.4883 51.2025 11.8787Z" fill="#199F97"/>
<path fill-rule="evenodd" clip-rule="evenodd" d="M28.1147 16.9282C28.1147 8.15505 35.2268 1.04297 44 1.04297C52.7732 1.04297 59.8853 8.15505 59.8853 16.9282C59.8853 25.7014 52.7732 32.8135 44 32.8135C35.2268 32.8135 28.1147 25.7014 28.1147 16.9282ZM44 3.04297C36.3314 3.04297 30.1147 9.25961 30.1147 16.9282C30.1147 24.5969 36.3314 30.8135 44 30.8135C51.6686 30.8135 57.8853 24.5969 57.8853 16.9282C57.8853 9.25961 51.6686 3.04297 44 3.04297Z" fill="#199F97"/>
<path fill-rule="evenodd" clip-rule="evenodd" d="M31.2076 46.271C31.7764 45.861 32.4598 45.6405 33.1609 45.6406H54.8365C56.2732 45.6406 57.5506 46.5551 58.0055 47.9248L61.0573 57.0747H26.9429L29.9919 47.9247C30.2135 47.2595 30.6389 46.6809 31.2076 46.271ZM32.3327 47.8319C32.5738 47.6581 32.8634 47.5646 33.1606 47.5647H54.8365C55.4488 47.5647 55.9875 47.9526 56.1797 48.5318L58.3873 55.1506H29.6121L31.8174 48.5329C31.9113 48.2509 32.0916 48.0056 32.3327 47.8319Z" fill="#199F97"/>
<path fill-rule="evenodd" clip-rule="evenodd" d="M27.939 62.7109C27.3207 62.7107 26.7085 62.8323 26.1372 63.0687C25.5659 63.3052 25.0467 63.6518 24.6094 64.0888C24.172 64.5259 23.825 65.0448 23.5882 65.616C23.3514 66.1871 23.2295 66.7993 23.2292 67.4176C23.229 68.0359 23.3506 68.6482 23.587 69.2195C23.8235 69.7908 24.1701 70.3099 24.6071 70.7473C25.0442 71.1846 25.5631 71.5316 26.1343 71.7684C26.7054 72.0052 27.3176 72.1272 27.9359 72.1274C29.1846 72.1278 30.3823 71.6322 31.2656 70.7495C32.1488 69.8668 32.6453 68.6694 32.6457 67.4207C32.6461 66.172 32.1505 64.9743 31.2678 64.0911C30.3851 63.2078 29.1877 62.7114 27.939 62.7109ZM26.9019 64.9167C27.2305 64.7808 27.5827 64.7108 27.9384 64.7109C28.6566 64.7112 29.3454 64.9967 29.8531 65.5048C30.3608 66.0129 30.6459 66.7018 30.6457 67.4201C30.6455 68.1383 30.3599 68.8271 29.8518 69.3348C29.3438 69.8425 28.6548 70.1276 27.9366 70.1274C27.5809 70.1273 27.2288 70.0571 26.9002 69.9209C26.5717 69.7847 26.2732 69.5851 26.0218 69.3335C25.7704 69.082 25.571 68.7833 25.4351 68.4547C25.2991 68.1261 25.2291 67.7739 25.2292 67.4183C25.2294 67.0626 25.2995 66.7105 25.4357 66.3819C25.572 66.0534 25.7715 65.7549 26.0231 65.5035C26.2747 65.2521 26.5733 65.0527 26.9019 64.9167Z" fill="#199F97"/>
<path fill-rule="evenodd" clip-rule="evenodd" d="M60.0663 62.7109C59.448 62.7107 58.8357 62.8323 58.2644 63.0687C57.6931 63.3052 57.174 63.6518 56.7366 64.0888C56.2993 64.5259 55.9523 65.0448 55.7155 65.616C55.4787 66.1871 55.3567 66.7993 55.3565 67.4176C55.3563 68.0359 55.4779 68.6482 55.7143 69.2195C55.9507 69.7908 56.2974 70.3099 56.7344 70.7473C57.1715 71.1846 57.6904 71.5316 58.2615 71.7684C58.8327 72.0052 59.4449 72.1272 60.0632 72.1274C61.3119 72.1278 62.5096 71.6322 63.3928 70.7495C64.2761 69.8668 64.7725 68.6694 64.773 67.4207C64.7734 66.172 64.2777 64.9743 63.3951 64.0911C62.5124 63.2078 61.315 62.7114 60.0663 62.7109ZM59.0292 64.9167C59.3578 64.7808 59.71 64.7108 60.0656 64.7109C60.7839 64.7112 61.4727 64.9967 61.9804 65.5048C62.4881 66.0129 62.7732 66.7018 62.773 67.4201C62.7727 68.1383 62.4872 68.8271 61.9791 69.3348C61.471 69.8425 60.7821 70.1276 60.0638 70.1274C59.7082 70.1273 59.356 70.0571 59.0275 69.9209C58.699 69.7847 58.4005 69.5851 58.1491 69.3335C57.8977 69.082 57.6983 68.7833 57.5623 68.4547C57.4263 68.1261 57.3564 67.7739 57.3565 67.4183C57.3566 67.0626 57.4268 66.7105 57.563 66.3819C57.6992 66.0534 57.8988 65.7549 58.1504 65.5035C58.4019 65.2521 58.7006 65.0527 59.0292 64.9167Z" fill="#199F97"/>
<path fill-rule="evenodd" clip-rule="evenodd" d="M25.235 46.4218C26.1438 43.4926 28.8536 41.4961 31.9206 41.4961H56.0794C59.1464 41.4961 61.8562 43.4926 62.765 46.4218L65.5654 55.4479C65.7146 55.9287 66.0862 56.3082 66.5638 56.4674C68.0187 56.9524 69 58.3139 69 59.8474V76.0002C69 77.3064 68.1652 78.4177 67 78.8295V82.5002C67 84.7094 65.2091 86.5002 63 86.5002H62C59.7909 86.5002 58 84.7094 58 82.5002V79.0002H30V82.5002C30 84.7094 28.2091 86.5002 26 86.5002H25C22.7909 86.5002 21 84.7094 21 82.5002V78.8295C19.8348 78.4177 19 77.3064 19 76.0002V59.8474C19 58.3139 19.9813 56.9524 21.4362 56.4674C21.9138 56.3082 22.2854 55.9287 22.4346 55.4479L25.235 46.4218ZM31.9206 43.4961C29.7299 43.4961 27.7943 44.9222 27.1452 47.0145L24.3448 56.0405C24.0047 57.1367 23.1574 58.0018 22.0686 58.3648C21.4305 58.5775 21 59.1747 21 59.8474V76.0002C21 76.5525 21.4477 77.0002 22 77.0002H66C66.5523 77.0002 67 76.5525 67 76.0002V59.8474C67 59.1747 66.5695 58.5775 65.9314 58.3648C64.8426 58.0018 63.9953 57.1367 63.6552 56.0405L60.8548 47.0145C60.2057 44.9222 58.2701 43.4961 56.0794 43.4961H31.9206ZM23 79.0002V82.5002C23 83.6048 23.8954 84.5002 25 84.5002H26C27.1046 84.5002 28 83.6048 28 82.5002V79.0002H23ZM60 79.0002V82.5002C60 83.6048 60.8954 84.5002 62 84.5002H63C64.1046 84.5002 65 83.6048 65 82.5002V79.0002H60Z" fill="#199F97"/>
</svg>
