<svg width="88" height="88" viewBox="0 0 88 88" fill="none" xmlns="http://www.w3.org/2000/svg">
<path fill-rule="evenodd" clip-rule="evenodd" d="M24.0355 32.2148C21.1755 32.2148 18.8569 34.5334 18.8569 37.3934C18.8569 40.2535 21.1755 42.572 24.0355 42.572C26.8955 42.572 29.2141 40.2535 29.2141 37.3934C29.2141 34.5334 26.8955 32.2148 24.0355 32.2148ZM20.8569 37.3934C20.8569 35.6379 22.28 34.2148 24.0355 34.2148C25.791 34.2148 27.2141 35.6379 27.2141 37.3934C27.2141 39.1489 25.791 40.572 24.0355 40.572C22.28 40.572 20.8569 39.1489 20.8569 37.3934Z" fill="#199F97"/>
<path fill-rule="evenodd" clip-rule="evenodd" d="M12.4287 25.7148C11.8764 25.7148 11.4287 26.1626 11.4287 26.7148V53.6434C11.4287 54.1957 11.8764 54.6434 12.4287 54.6434H35.643C36.1953 54.6434 36.643 54.1957 36.643 53.6434V26.7148C36.643 26.1626 36.1953 25.7148 35.643 25.7148H12.4287ZM13.4287 52.6434V27.7148H34.643V52.6434H31.9999V49.3555C31.9999 46.0418 29.3136 43.3555 25.9999 43.3555H22.0713C18.7576 43.3555 16.0713 46.0418 16.0713 49.3555V52.6434H13.4287ZM22.0713 45.3555C19.8621 45.3555 18.0713 47.1463 18.0713 49.3555V52.6412H29.9999V49.3555C29.9999 47.1463 28.209 45.3555 25.9999 45.3555H22.0713Z" fill="#199F97"/>
<path d="M45.7856 30.4297C45.7856 29.8774 46.2334 29.4297 46.7856 29.4297H75.5714C76.1236 29.4297 76.5714 29.8774 76.5714 30.4297C76.5714 30.982 76.1236 31.4297 75.5714 31.4297H46.7856C46.2334 31.4297 45.7856 30.982 45.7856 30.4297Z" fill="#199F97"/>
<path d="M46.7856 36.8555C46.2334 36.8555 45.7856 37.3032 45.7856 37.8555C45.7856 38.4078 46.2334 38.8555 46.7856 38.8555H68.1428C68.6951 38.8555 69.1428 38.4078 69.1428 37.8555C69.1428 37.3032 68.6951 36.8555 68.1428 36.8555H46.7856Z" fill="#199F97"/>
<path d="M11.4287 61.0703C11.4287 60.518 11.8764 60.0703 12.4287 60.0703H35.643C36.1953 60.0703 36.643 60.518 36.643 61.0703C36.643 61.6226 36.1953 62.0703 35.643 62.0703H12.4287C11.8764 62.0703 11.4287 61.6226 11.4287 61.0703Z" fill="#199F97"/>
<path d="M46.7856 44.2852C46.2334 44.2852 45.7856 44.7329 45.7856 45.2852C45.7856 45.8374 46.2334 46.2852 46.7856 46.2852H60.7142C61.2665 46.2852 61.7142 45.8374 61.7142 45.2852C61.7142 44.7329 61.2665 44.2852 60.7142 44.2852H46.7856Z" fill="#199F97"/>
<path d="M65.2856 45.2852C65.2856 44.7329 65.7334 44.2852 66.2856 44.2852H75.5714C76.1236 44.2852 76.5714 44.7329 76.5714 45.2852C76.5714 45.8374 76.1236 46.2852 75.5714 46.2852H66.2856C65.7334 46.2852 65.2856 45.8374 65.2856 45.2852Z" fill="#199F97"/>
<path fill-rule="evenodd" clip-rule="evenodd" d="M6 18.2852C4.89543 18.2852 4 19.1806 4 20.2852V68.428C4 69.5326 4.89543 70.428 6 70.428H65.2856V76.2984C65.2856 78.0802 67.4399 78.9725 68.6999 77.7126L70.9285 75.484L73.1571 77.7126C74.4171 78.9725 76.5714 78.0802 76.5714 76.2984V70.428H82C83.1046 70.428 84 69.5326 84 68.428V20.2852C84 19.1806 83.1046 18.2852 82 18.2852H6ZM76.5714 68.428L82 68.428V20.2852H6V68.428H65.2856V57.4043L65.2855 57.3593C65.2855 54.2429 67.8119 51.7165 70.9283 51.7165C74.0353 51.7165 76.5557 54.2275 76.5711 57.3308L76.5714 57.3555V68.428ZM67.2856 61.6691V76.2984L70.9285 72.6555L74.5714 76.2984V61.6688C73.5883 62.5006 72.3169 63.0022 70.9283 63.0022C69.5399 63.0022 68.2686 62.5008 67.2856 61.6691ZM67.2855 57.3381L67.2856 57.3555V57.3955C67.305 59.3907 68.9285 61.0022 70.9283 61.0022C72.9402 61.0022 74.5712 59.3712 74.5712 57.3593C74.5712 52.6682 67.3074 52.6612 67.2855 57.3381Z" fill="#199F97"/>
</svg>
