<svg width="488" height="270" viewBox="0 0 488 270" fill="none" xmlns="http://www.w3.org/2000/svg">
<path d="M244 269.55C378.757 269.55 488 261.084 488 250.64C488 240.197 378.757 231.73 244 231.73C109.243 231.73 0 240.197 0 250.64C0 261.084 109.243 269.55 244 269.55Z" fill="#E9EAEB"/>
<path d="M421.465 112.687V128.428C421.465 129.83 421.136 131.179 420.54 132.358C419.101 135.253 416.106 137.245 412.684 137.245H409.876C405.068 137.245 401.104 133.287 401.104 128.428V112.687C401.104 111.026 401.576 109.489 402.375 108.158C402.375 108.131 402.375 108.131 402.375 108.131C403.931 105.568 406.712 103.861 409.876 103.861H412.684C417.528 103.87 421.465 107.854 421.465 112.687Z" fill="#E5F0ED"/>
<g opacity="0.3">
<path d="M420.549 132.369C419.109 135.264 416.114 137.256 412.693 137.256H409.885C405.077 137.256 401.113 133.298 401.113 128.439V112.689C401.113 111.028 401.584 109.491 402.384 108.16C402.553 109.134 406.277 130.725 420.549 132.369Z" fill="#E5F0ED"/>
</g>
<path d="M282.392 224.015H325.761V183.896H280.517L282.392 224.015Z" fill="#083431"/>
<path d="M419.127 134.897L206.089 140.177V27.252H345.987C359.327 27.252 371.537 34.7559 377.616 46.6817L386.77 64.6464L419.127 134.897Z" fill="white"/>
<path d="M298.105 220.738C298.105 232.682 304.237 245.85 304.237 245.85C304.237 245.85 313.346 245.85 314.608 245.85C323.717 245.85 331.111 234.603 331.111 220.738C331.111 206.874 313.346 195.627 304.237 195.627C295.127 195.627 298.105 206.865 298.105 220.738Z" fill="#2B5451"/>
<path d="M304.228 245.85C313.342 245.85 320.731 234.607 320.731 220.738C320.731 206.87 313.342 195.627 304.228 195.627C295.113 195.627 287.725 206.87 287.725 220.738C287.725 234.607 295.113 245.85 304.228 245.85Z" fill="#199F97"/>
<path d="M304.441 239.658C311.307 239.658 316.874 231.187 316.874 220.737C316.874 210.287 311.307 201.816 304.441 201.816C297.574 201.816 292.008 210.287 292.008 220.737C292.008 231.187 297.574 239.658 304.441 239.658Z" fill="white"/>
<path d="M417.385 220.738C417.385 232.682 423.517 245.85 423.517 245.85C423.517 245.85 432.627 245.85 433.889 245.85C443.007 245.85 450.392 234.603 450.392 220.738C450.392 206.874 432.627 195.627 423.517 195.627C414.399 195.627 417.385 206.865 417.385 220.738Z" fill="#2B5451"/>
<path d="M407.014 220.738C407.014 234.612 414.399 245.85 423.517 245.85C432.626 245.85 440.02 234.603 440.02 220.738C440.02 206.874 432.635 195.627 423.517 195.627C414.399 195.627 407.014 206.865 407.014 220.738Z" fill="#199F97"/>
<path d="M143.463 220.738C143.463 232.682 149.595 245.85 149.595 245.85C149.595 245.85 158.704 245.85 159.966 245.85C169.084 245.85 176.469 234.603 176.469 220.738C176.469 206.874 158.704 195.627 149.595 195.627C140.477 195.627 143.463 206.865 143.463 220.738Z" fill="#2B5451"/>
<path d="M133.091 220.738C133.091 234.612 140.476 245.85 149.594 245.85C158.712 245.85 166.097 234.603 166.097 220.738C166.097 206.874 158.712 195.627 149.594 195.627C140.476 195.627 133.091 206.865 133.091 220.738Z" fill="#199F97"/>
<path d="M466.824 208.882C466.85 219.379 458.763 223.694 448.339 223.694L331.102 224.712C331.457 222.648 326.294 223.694 326.294 221.487C326.294 205.247 316.598 192.07 304.672 192.07C292.719 192.07 281.362 200.896 281.362 217.137C281.362 219.343 278.758 222.354 279.113 224.417L216.3 218.879C216.3 218.879 209.262 195.84 209.617 179.769C209.901 165.78 209.901 138.381 209.075 131.699C209.075 130.699 277.931 130.583 295.314 130.511C297.669 130.484 299.082 130.484 299.224 130.484L299.464 130.654L299.722 130.842C302.93 133.093 320.9 145.751 332.053 153.175C341.891 159.696 414.47 162.349 442.935 163.153C450.009 163.341 454.373 163.412 454.373 163.412C454.373 163.412 458.265 167.414 461.705 173.748C464.344 178.652 466.699 184.959 466.752 191.856C466.779 196.144 466.797 201.316 466.797 206.39C466.824 207.221 466.824 208.052 466.824 208.882Z" fill="white"/>
<path d="M401.949 130.493H306.209C303.997 130.493 301.988 129.189 301.073 127.17L277.371 74.1691C276.589 72.436 277.869 70.4707 279.753 70.4707H380.753C382.966 70.4707 385.001 71.8018 385.899 73.8564L402.873 112.85L407.121 122.596C408.721 126.321 406.001 130.493 401.949 130.493Z" fill="#B6DFF0"/>
<path d="M357.354 206.391C357.336 208.061 357.265 209.625 357.167 211.009C356.483 220.237 347.258 224.149 347.258 224.149H325.752C326.108 222.086 326.294 223.686 326.294 221.488C326.294 215.967 325.165 210.795 323.228 206.391C319.425 197.815 312.546 192.071 304.672 192.071C296.763 192.071 289.884 197.815 286.081 206.391C284.152 210.804 279.611 215.628 279.611 221.149C279.611 223.355 277.736 218.828 278.091 220.892L206.071 223.411V27.2617H268.262L268.556 64.6473C268.556 64.6473 269.604 70.2484 271.728 75.26C273.63 79.7266 276.154 85.685 278.909 92.1706C284.57 105.463 291.182 120.971 295.314 130.521C297.385 135.354 298.851 138.65 299.224 139.365C300.389 141.589 317.638 150.987 332.231 159.331C335.874 161.412 339.349 163.422 342.362 165.244C346.654 167.844 350.013 170.042 351.604 171.48C355.586 175.089 357.567 193.813 357.354 206.391Z" fill="#E5F0ED"/>
<path d="M454.373 163.422H340.895L299.464 130.655L299.224 130.494H413.697L446.286 156.856L454.373 163.422Z" fill="white"/>
<path d="M355.585 182.666L345.33 181.647C341.748 181.29 338.842 178.592 338.211 175.037L335.856 162.003C335.812 161.789 335.785 161.601 335.812 161.387C343.126 165.603 349.276 169.373 351.613 171.481C353.301 173.018 354.643 177.288 355.585 182.666Z" fill="#A8302D"/>
<path d="M386.779 64.6473H268.564C268.564 64.6473 268.111 57.0451 265.143 48.362C262.503 40.6884 257.935 32.1393 249.946 27.2617H346.547C362.295 27.2617 376.248 35.7126 381.793 48.362C382.051 48.8891 382.282 49.4072 382.477 49.9343C384.139 54.3294 385.641 59.2427 386.779 64.6473Z" fill="white"/>
<path d="M355.612 182.663L345.33 181.645C341.748 181.287 338.842 178.59 338.211 175.034L335.856 162.001C335.812 161.786 335.785 161.572 335.812 161.357C343.126 165.601 349.276 169.371 351.613 171.479C353.301 173.015 354.643 177.285 355.612 182.663Z" fill="#A2C2DD"/>
<path d="M466.823 215.062C466.85 220.005 460.602 224.481 446.908 224.229L324.401 224.237C324.756 223.265 325.707 221.865 325.707 220.826C325.707 218.226 325.174 215.967 323.246 213.889H466.806C466.823 214.28 466.823 214.671 466.823 215.062Z" fill="#2B5451"/>
<path d="M283.023 221.002C283.023 222.041 283.192 223.047 283.539 224.014H206.071V213.889H281.989C283.09 216.276 283.023 218.398 283.023 221.002Z" fill="#2B5451"/>
<path d="M386.93 177.326H433.337C434.821 177.326 435.95 178.52 435.728 179.842L434.084 189.474C433.844 190.891 432.493 191.937 430.902 191.937H392.671C390.218 191.937 388.058 190.488 387.347 188.37L384.592 180.181C384.112 178.759 385.285 177.326 386.93 177.326Z" fill="#083431"/>
<path d="M402.864 112.86C348.129 110.037 311.106 80.6018 299.926 70.4805H380.744C382.957 70.4805 384.992 71.8115 385.89 73.8662L402.864 112.86Z" fill="#D6F3FF"/>
<path d="M227.977 27.252V218.012L20.9468 220.737V27.252H227.977Z" fill="white"/>
<path d="M386.779 64.6466H268.564C268.564 64.6466 268.111 57.0444 265.143 48.3613H381.793C382.051 48.8884 382.282 49.4065 382.477 49.9336C384.139 54.3287 385.641 59.242 386.779 64.6466Z" fill="#E5F0ED"/>
<path d="M461.705 173.757C461.047 174.847 460.194 175.562 459.279 175.722L443.362 178.688C442.02 178.947 440.98 176.607 441.336 174.186L442.891 163.421L442.935 163.162L443.246 160.956C443.531 159.062 444.357 157.615 445.37 157.213L446.295 156.855L454.382 163.421C454.373 163.421 458.265 167.423 461.705 173.757Z" fill="#FFA865"/>
<path d="M351.595 159.32H20.9468V176.231H351.595V159.32Z" fill="#E13D51"/>
<path d="M227.977 62.0195H20.9468V78.9301H227.977V62.0195Z" fill="#E13D51"/>
<path d="M94.9932 118.748C94.9932 102.391 108.19 89.125 124.462 89.125C140.734 89.125 153.931 102.391 153.931 118.748C153.931 135.104 140.734 148.37 124.462 148.37C108.19 148.37 94.9932 135.113 94.9932 118.748Z" fill="#E13D51"/>
<path d="M124.462 144.977C117.495 144.977 110.945 142.253 106.013 137.295C101.08 132.337 98.3699 125.753 98.3699 118.749C98.3699 111.746 101.08 105.162 106.013 100.204C110.936 95.2461 117.495 92.5215 124.462 92.5215C131.429 92.5215 137.979 95.2461 142.911 100.204C147.835 105.153 150.554 111.746 150.554 118.749C150.554 125.753 147.844 132.337 142.911 137.295C137.979 142.253 131.429 144.977 124.462 144.977ZM124.462 94.9424C118.134 94.9424 112.189 97.4169 107.71 101.919C103.24 106.422 100.769 112.398 100.769 118.758C100.769 125.119 103.231 131.095 107.71 135.598C112.189 140.091 118.134 142.574 124.462 142.574C130.79 142.574 136.735 140.1 141.214 135.598C145.693 131.095 148.155 125.119 148.155 118.758C148.155 112.398 145.693 106.422 141.214 101.919C136.735 97.4169 130.79 94.9424 124.462 94.9424Z" fill="white"/>
<path d="M141.312 114.469H128.719V101.811H120.205V114.469H107.613V123.027H120.205V135.685H128.719V123.027H141.312V114.469Z" fill="white"/>
<path d="M375.066 184.612L355.612 182.673H355.585L345.33 181.655C341.748 181.297 338.842 178.6 338.211 175.044L335.856 162.011C335.812 161.796 335.785 161.609 335.812 161.394V161.367C335.696 158.616 338.194 156.392 341.002 156.963L371.306 163.145C373.244 163.547 374.772 164.994 375.288 166.888L378.851 180.118C379.5 182.521 377.545 184.871 375.066 184.612Z" fill="#FFA865"/>
<path d="M268.964 80.0103L289.36 130.501H254.363C254.363 130.501 247.182 129.295 246.267 114.546C245.28 98.8058 245.289 71.6398 245.289 71.6398L260.646 71.5684C266.494 72.4527 267.418 75.6866 268.964 80.0103Z" fill="#B6DFF0"/>
<path d="M278.98 104.58C278.98 104.58 280.748 124.984 270.724 130.576H289.449L278.98 104.58Z" fill="white"/>
<path d="M281.726 118.227C281.726 118.227 277.496 115.199 277.131 112.697V126.973H282.659L281.726 118.227Z" fill="#E5F0ED"/>
<path d="M277.131 112.689V128.43C277.131 129.832 276.802 131.181 276.207 132.36C274.767 135.255 271.772 137.247 268.351 137.247H265.543C260.735 137.247 256.771 133.289 256.771 128.43V112.689C256.771 111.028 257.242 109.491 258.042 108.16C258.042 108.133 258.042 108.133 258.042 108.133C259.597 105.57 262.379 103.863 265.543 103.863H268.351C273.194 103.872 277.131 107.856 277.131 112.689Z" fill="white"/>
<path d="M228.173 221.002C228.173 222.041 228.475 223.047 229.124 224.014H86.5859V213.889H233.816C230.261 215.967 228.173 218.398 228.173 221.002Z" fill="#2B5451"/>
<path d="M162.534 221.002C162.534 222.041 162.836 223.047 163.485 224.014H20.9468V213.889H168.177C164.613 215.967 162.534 218.398 162.534 221.002Z" fill="#2B5451"/>
<path d="M88.5676 224.015H37.6453C36.57 219.876 33.3262 190.391 61.8712 190.391C87.8033 190.383 89.7051 217.29 88.5676 224.015Z" fill="#083431"/>
<path d="M53.5797 220.738C53.5797 232.682 59.7118 245.85 59.7118 245.85C59.7118 245.85 68.8209 245.85 70.0828 245.85C79.2009 245.85 86.5859 234.603 86.5859 220.738C86.5859 206.874 68.8209 195.627 59.7118 195.627C50.5937 195.627 53.5797 206.865 53.5797 220.738Z" fill="#2B5451"/>
<path d="M43.2087 220.738C43.2087 234.612 50.5938 245.85 59.7118 245.85C68.821 245.85 76.2149 234.603 76.2149 220.738C76.2149 206.874 68.8299 195.627 59.7118 195.627C50.5938 195.627 43.2087 206.865 43.2087 220.738Z" fill="#199F97"/>
<path d="M59.9163 239.658C66.7827 239.658 72.3491 231.187 72.3491 220.737C72.3491 210.287 66.7827 201.816 59.9163 201.816C53.0498 201.816 47.4834 210.287 47.4834 220.737C47.4834 231.187 53.0498 239.658 59.9163 239.658Z" fill="white"/>
</svg>
