<svg width="36" height="26" viewBox="0 0 36 26" fill="none" xmlns="http://www.w3.org/2000/svg">
<path d="M12.37 16.2809C10.7757 16.2809 9.34088 15.9476 8.06545 15.2809C6.80451 14.5997 5.8117 13.6576 5.08702 12.4546C4.36234 11.2516 4 9.88924 4 8.36741C4 6.84559 4.36234 5.48319 5.08702 4.28022C5.8117 3.07726 6.80451 2.14242 8.06545 1.47572C9.34088 0.794518 10.7757 0.453918 12.37 0.453918C13.7614 0.453918 15.0151 0.70031 16.1311 1.19309C17.2471 1.68587 18.1747 2.39606 18.9139 3.32365L16.1746 5.80205C15.189 4.61358 13.9933 4.01934 12.5874 4.01934C11.7613 4.01934 11.0221 4.20051 10.3699 4.56285C9.73221 4.92519 9.23218 5.43971 8.86984 6.10642C8.522 6.75863 8.34807 7.51229 8.34807 8.36741C8.34807 9.22254 8.522 9.98345 8.86984 10.6502C9.23218 11.3024 9.73221 11.8096 10.3699 12.172C11.0221 12.5343 11.7613 12.7155 12.5874 12.7155C13.9933 12.7155 15.189 12.1213 16.1746 10.9328L18.9139 13.4112C18.1747 14.3388 17.2471 15.049 16.1311 15.5417C15.0151 16.0345 13.7614 16.2809 12.37 16.2809Z" fill="white"/>
<path fill-rule="evenodd" clip-rule="evenodd" d="M18.9141 0.758301H32.1753V4.07492H21.27L18.9141 0.758301ZM18.9141 15.9766H32.1753V12.6599H21.27L18.9141 15.9766ZM30.9496 6.66698H21.2632L21.2662 9.86435H30.9496V6.66698Z" fill="white"/>
<path d="M2.26832 21.6274H0.746094V20.9997H4.55166V21.6274H3.02944V25.4566H2.26832V21.6274Z" fill="white"/>
<path d="M14.1807 24.821V25.4566H10.838V20.9997H14.0943V21.6274H11.5991V22.8829H13.8197V23.5028H11.5991V24.821H14.1807Z" fill="white"/>
<path d="M22.7835 25.5193C22.3284 25.5193 21.9151 25.4199 21.5437 25.2212C21.1775 25.0224 20.8898 24.7504 20.6806 24.4051C20.4713 24.0546 20.3667 23.6623 20.3667 23.2281C20.3667 22.794 20.4713 22.4043 20.6806 22.059C20.8898 21.7085 21.1775 21.4339 21.5437 21.2351C21.9151 21.0363 22.3284 20.937 22.7835 20.937C23.5524 20.937 24.1383 21.1697 24.5411 21.6353L24.0546 22.1296C23.7198 21.7739 23.304 21.5961 22.807 21.5961C22.4879 21.5961 22.2002 21.6667 21.9439 21.8079C21.6928 21.9439 21.494 22.1375 21.3475 22.3886C21.2063 22.6344 21.1357 22.9143 21.1357 23.2281C21.1357 23.5368 21.2063 23.8166 21.3475 24.0677C21.494 24.3136 21.6928 24.5071 21.9439 24.6484C22.2002 24.7896 22.4879 24.8602 22.807 24.8602C23.2987 24.8602 23.7146 24.6797 24.0546 24.3188L24.5411 24.8131C24.1331 25.2839 23.5472 25.5193 22.7835 25.5193Z" fill="white"/>
<path d="M31.0567 20.9997H31.8178V22.8829H34.258V20.9997H35.0192V25.4566H34.258V23.5106H31.8178V25.4566H31.0567V20.9997Z" fill="white"/>
</svg>
