<svg width="480" height="333" viewBox="0 0 480 333" fill="none" xmlns="http://www.w3.org/2000/svg">
<path d="M239.5 329C371.516 329 478.536 310.625 478.536 287.959C478.536 265.293 371.516 246.918 239.5 246.918C107.484 246.918 0.464111 265.293 0.464111 287.959C0.464111 310.625 107.484 329 239.5 329Z" fill="#E9EAEB"/>
<path d="M48.2667 285.742C36.5698 285.742 27.0852 276.26 27.0852 264.562V42.1015C27.0852 30.4057 36.5675 20.9219 48.2667 20.9219H373.056C384.753 20.9219 394.238 30.4033 394.238 42.1015V264.564C394.238 276.26 384.755 285.744 373.056 285.744H48.2667V285.742Z" fill="#ADD1C8"/>
<path d="M375.078 39.0625H46.2432V267.598H375.078V39.0625Z" fill="white"/>
<path d="M361.886 52.2578H59.4373V254.41H361.886V52.2578Z" fill="#D6ECE6"/>
<path d="M371.044 158.081V152.804H293.982L237.684 193.375H99.1921L98.6705 106.261L143.777 151.365L151.24 143.903L108.726 101.392H364.899V96.1159H103.903V47.9961H93.3472V96.1159H93.3309L93.3472 98.7494V100.94L93.3612 100.952L93.608 142.357H52.3232V152.909H93.6732L93.9154 193.375H52.3232V203.93H93.9783L94.3183 260.349L99.595 260.319L99.255 203.93H233.598V260.332H238.874V203.93H290.976L319.451 217.156L277.949 258.654L285.413 266.116L329.643 221.89L362.677 237.232L367.123 227.66L293.309 193.375H246.71L295.684 158.081H371.044Z" fill="white"/>
<path d="M156.745 254.406H138.274V138.398H277.044V98.7539H295.514V156.867H156.745V254.406Z" fill="#199F97"/>
<path d="M297.966 99.5275C297.894 115.47 273.651 115.47 273.583 99.5275C273.653 83.5846 297.897 83.5846 297.966 99.5275Z" fill="#E13D51"/>
<path d="M292.387 99.5273C292.512 108.105 279.037 108.105 279.162 99.5273C279.037 90.9492 292.512 90.9492 292.387 99.5273Z" fill="white"/>
<path d="M312.912 31.6926C314.824 54.5301 285.774 84.0945 285.774 84.0945C215.483 9.4745 308.261 -23.8154 312.912 31.6926Z" fill="#E13D51"/>
<path d="M300.786 31.3445C300.449 51.0781 271.093 51.0735 270.76 31.3445C271.098 11.6132 300.453 11.6155 300.786 31.3445Z" fill="white"/>
<path d="M147.51 165.488V220.938L110.922 228.853L147.51 165.488Z" fill="#E13D51"/>
<path d="M184.095 228.853L147.509 220.938V165.488L184.095 228.853Z" fill="#E13D51"/>
<path d="M310.281 115.93C310.281 115.93 307.823 107.99 306.427 107.137C305.032 106.283 299.213 103.411 298.867 104.186C298.521 104.961 302.008 108.734 302.785 109.991C303.559 111.249 303.947 112.491 303.404 111.949C302.86 111.404 299.916 109.587 299.606 109.991C299.295 110.396 301.079 111.949 301.931 113.191C302.783 114.433 303.714 116.528 306.736 116.994C309.762 117.461 310.281 115.93 310.281 115.93Z" fill="#FFC49B"/>
<path d="M399.856 182.783C399.856 182.783 399.119 189.955 398.312 191.312C397.504 192.67 394.061 197.004 392.597 197.855C391.131 198.706 393.493 192.143 393.194 190.866C392.894 189.588 391.987 193.196 391.341 193.281C390.696 193.365 390.862 190.119 390.838 188.937C390.813 187.755 393.981 184.838 395.097 182.323C396.213 179.806 399.856 182.783 399.856 182.783Z" fill="#FFC49B"/>
<path d="M377.399 109.194C377.399 109.194 371.444 138.463 338.676 148.028C328.447 151.014 305.209 117.286 305.209 117.286C305.209 117.286 306.026 114.178 311.144 114.891C311.144 114.891 333.769 129.892 336.62 131.523C339.147 132.969 355.769 112.934 363.347 109.701C370.925 106.471 377.399 109.194 377.399 109.194Z" fill="#FF8528"/>
<path d="M416.52 293.191C416.52 293.191 420.587 296.906 419.792 299.546C418.998 302.185 415.331 303.945 414.834 307.173C414.34 310.399 412.356 312.158 410.57 312.158C408.785 312.158 402.063 312.158 402.063 312.158C402.063 312.158 400.75 309.888 403.922 309.203C407.094 308.519 408.29 304.727 408.093 301.207C407.895 297.688 408.39 292.994 408.39 292.994L415.132 291.43L416.52 293.191Z" fill="#147973"/>
<path d="M366.648 302.8C366.648 302.8 367.378 311.256 365.592 312.136L342.751 312.089C342.751 312.089 342.751 309.45 346.42 308.863C350.09 308.277 356.534 306.126 357.623 301.334C358.717 296.542 366.648 302.8 366.648 302.8Z" fill="#147973"/>
<path d="M347.365 183.365C347.365 183.365 348.57 198.186 349.985 216.002C351.909 240.203 354.225 269.932 354.453 275.562C354.848 285.342 356.437 300.983 356.437 300.983C356.437 300.983 360.201 304.7 367.739 303.133C367.739 303.133 374.457 280.803 376.373 257.177C376.402 256.791 376.433 256.4 376.462 256.011C378.246 231.959 381.021 181.312 381.021 181.312L347.365 183.365Z" fill="#199F97"/>
<path d="M347.365 183.365C347.365 183.365 348.57 198.186 349.985 216.002L376.376 257.177C376.404 256.791 376.435 256.4 376.464 256.011C378.248 231.959 381.023 181.312 381.023 181.312L347.365 183.365Z" fill="#147973"/>
<path d="M352.868 185.124C352.868 185.124 374.581 238.8 388.859 264.026C403.137 289.251 407.598 296.289 407.598 296.289C407.598 296.289 415.777 293.063 416.52 290.864C416.52 290.864 411.061 242.166 401.5 230.293C396.098 223.586 389.751 203.455 389.454 196.414C389.156 189.374 387.521 175.441 387.521 175.441L352.868 185.124Z" fill="#199F97"/>
<path d="M381.436 102.403C381.436 102.403 366.744 109.502 358.274 106.869C358.274 106.869 360.359 104.234 364.006 102.275C363.713 100.573 363.485 99.0953 363.354 97.8423C362.994 94.9518 362.994 93.3122 362.994 93.3122L368.663 88.8466L374.038 84.5742C373.618 96.5892 381.436 102.403 381.436 102.403Z" fill="#FFC49B"/>
<path d="M389.178 178.192C389.212 179.094 387.291 180.121 386.441 180.505C380.156 183.269 374.291 185.195 367.644 185.837C359.793 186.642 350.509 184.873 347.317 184.938C346.991 184.938 346.698 184.809 346.439 184.584C346.21 184.424 346.048 174.949 346.21 163.029C346.21 162.549 346.21 162.067 346.243 161.585V161.425C346.308 156.768 346.472 151.885 346.698 147C347.153 136.271 348.003 125.927 349.436 120.21C351.162 113.463 355.073 108.999 358.622 105.754L361.553 103.185C364.485 103.763 367.58 103.603 370.675 102.092C374.062 100.455 377.711 98.6885 378.297 99.1373C382.727 102.381 385.724 109.673 387.322 118.99C387.328 119.037 387.337 119.082 387.344 119.128C388.24 124.456 388.688 130.417 388.655 136.658C388.655 138.973 388.591 141.348 388.46 143.694C387.805 154.318 388.242 163.776 388.67 170.328C388.755 171.623 388.841 172.803 388.914 173.858C389.047 175.72 389.145 177.166 389.178 178.192Z" fill="#FFA968"/>
<path d="M388.672 170.322C364.319 142.162 379.426 121.698 379.426 121.698L387.344 119.125C388.24 124.453 388.688 130.414 388.655 136.654C388.655 138.969 388.59 141.344 388.46 143.69C387.807 154.312 388.244 163.77 388.672 170.322Z" fill="#FF8528"/>
<path d="M374.14 89.1698C374.14 89.1698 370.426 95.9483 363.358 97.8434C362.999 94.9529 362.999 93.3133 362.999 93.3133L368.667 88.8477L374.14 89.1698Z" fill="#E1B291"/>
<path d="M360.415 93.1131C360.415 93.1131 374.431 95.4082 375.747 86.7812C377.062 78.1521 379.757 72.6378 370.864 70.8071C361.97 68.9764 359.727 72.0113 358.576 74.7862C357.427 77.5589 356.801 92.2933 360.415 93.1131Z" fill="#FFC49B"/>
<path d="M380.837 69.7745C380.966 69.6279 381.259 69.5101 381.911 69.4746C381.911 69.4746 381.39 69.148 380.691 69.1302C380.553 68.2215 380.072 66.6108 378.508 66.2197C378.508 66.2197 379.349 66.6685 379.457 67.635C377.647 65.7732 373.769 64.4179 363.028 65.2666C348.872 66.3864 353.538 75.4621 355.37 76.544C357.202 77.626 361.817 74.66 365.231 74.9311C368.645 75.2021 369.295 80.1432 370.453 80.8208C371.611 81.4985 371.156 80.301 372.722 79.59C374.289 78.8813 374.439 81.4807 373.987 83.1714C373.534 84.8621 375.688 87.0927 375.688 87.0927C375.688 87.0927 375.688 87.0927 377.865 84.7466C380.041 82.4005 382.091 72.4583 381.101 70.3388C381.015 70.1566 380.928 69.9656 380.837 69.7745Z" fill="#293331"/>
<path d="M378.291 99.0664C378.291 99.0664 387.158 103.272 391.41 109.737C398.006 119.766 405.65 156.313 405.792 159.699C405.934 163.083 400.213 186.977 400.213 186.977C400.213 186.977 394.41 186.595 392.914 183.663C392.914 183.663 394.075 159.113 393.338 157.533C392.604 155.956 369.149 124.601 371.786 117.911C374.424 111.219 378.291 99.0664 378.291 99.0664Z" fill="#FFA968"/>
</svg>
