<svg width="334" height="333" viewBox="0 0 334 333" fill="none" xmlns="http://www.w3.org/2000/svg">
<path d="M167 332C259.232 332 334 320.359 334 306C334 291.641 259.232 280 167 280C74.7684 280 0 291.641 0 306C0 320.359 74.7684 332 167 332Z" fill="#E9EAEB"/>
<path d="M281 0H53V305.84H281V0Z" fill="#ADD1C8"/>
<path d="M270.133 9.91406H66.3696V292.121H270.133V9.91406Z" fill="white"/>
<path d="M126.695 0V10.36C126.695 16.0816 131.337 20.72 137.061 20.72H192.745C198.472 20.72 203.111 16.0816 203.111 10.36V0H126.695Z" fill="#DBEFEA"/>
<path d="M127.853 141.592H91V104.797H127.853V141.592ZM92.7362 139.859H126.117V106.53H92.7362V139.859Z" fill="#ABDDDA"/>
<path d="M110.531 134.196C109.748 134.196 109.001 133.849 108.497 133.239L96.9689 119.318C96.0401 118.197 96.1984 116.535 97.3209 115.608C98.4435 114.68 100.108 114.838 101.036 115.959L110.177 127.001L126.716 99.2864C127.461 98.0367 129.082 97.627 130.333 98.3714C131.585 99.1159 131.995 100.734 131.25 101.983L112.799 132.909C112.36 133.645 111.589 134.121 110.735 134.188C110.667 134.194 110.6 134.196 110.531 134.196Z" fill="#E13D51"/>
<g opacity="0.5">
<path d="M200.745 113.381H152.69V116.971H200.745V113.381Z" fill="#B4B4B4"/>
<path d="M241.576 113.381H230.653V116.971H241.576V113.381Z" fill="#B4B4B4"/>
<path d="M200.745 129.414H152.69V133.004H200.745V129.414Z" fill="#B4B4B4"/>
<path d="M241.575 129.414H225.292V133.004H241.575V129.414Z" fill="#B4B4B4"/>
<path d="M241.576 121.398H228.191V124.989H241.576V121.398Z" fill="#B4B4B4"/>
<path d="M201.575 121.398H188.191V124.989H201.575V121.398Z" fill="#B4B4B4"/>
<path d="M182.429 121.398H152.69V124.989H182.429V121.398Z" fill="#B4B4B4"/>
</g>
<path d="M127.853 80.7955H91V44H127.853V80.7955ZM92.7362 79.062H126.117V45.7335H92.7362V79.062Z" fill="#ABDDDA"/>
<path d="M110.611 73.4002C109.824 73.4002 109.072 73.0509 108.565 72.4382L96.9724 58.4379C96.0382 57.3107 96.1974 55.6399 97.3263 54.7072C98.4552 53.7746 100.129 53.9335 101.063 55.0606L110.255 66.1647L126.887 38.2937C127.637 37.0369 129.266 36.6249 130.525 37.3735C131.784 38.1222 132.196 39.7491 131.447 41.0059L112.892 72.1057C112.45 72.846 111.675 73.3249 110.816 73.3918C110.747 73.3981 110.68 73.4002 110.611 73.4002Z" fill="#E13D51"/>
<g opacity="0.5">
<path d="M200.745 52.5859H152.69V56.176H200.745V52.5859Z" fill="#B4B4B4"/>
<path d="M241.576 52.5859H230.653V56.176H241.576V52.5859Z" fill="#B4B4B4"/>
<path d="M200.745 68.6211H152.69V72.2112H200.745V68.6211Z" fill="#B4B4B4"/>
<path d="M241.575 68.6211H225.292V72.2112H241.575V68.6211Z" fill="#B4B4B4"/>
<path d="M241.576 60.6035H228.191V64.1936H241.576V60.6035Z" fill="#B4B4B4"/>
<path d="M201.575 60.6035H188.191V64.1936H201.575V60.6035Z" fill="#B4B4B4"/>
<path d="M182.429 60.6035H152.69V64.1936H182.429V60.6035Z" fill="#B4B4B4"/>
</g>
<path d="M127.853 202.387H91V165.592H127.853V202.387ZM92.7362 200.656H126.117V167.325H92.7362V200.656Z" fill="#ABDDDA"/>
<path d="M110.329 194.676C109.557 194.676 108.82 194.334 108.323 193.734L96.9603 180.011C96.0447 178.906 96.2007 177.268 97.3072 176.354C98.4137 175.44 100.054 175.596 100.97 176.701L109.98 187.584L126.282 160.268C127.017 159.036 128.614 158.632 129.848 159.366C131.082 160.1 131.486 161.695 130.751 162.926L112.564 193.408C112.131 194.133 111.372 194.603 110.53 194.668C110.462 194.672 110.397 194.676 110.329 194.676Z" fill="#E13D51"/>
<g opacity="0.5">
<path d="M198.91 171.904H152.69V175.494H198.91V171.904Z" fill="#B4B4B4"/>
<path d="M200.745 187.938H152.69V191.528H200.745V187.938Z" fill="#B4B4B4"/>
<path d="M198.31 179.922H185.873V183.512H198.31V179.922Z" fill="#B4B4B4"/>
<path d="M182.429 179.922H152.69V183.512H182.429V179.922Z" fill="#B4B4B4"/>
</g>
<path d="M127.853 263.182H91V226.387H127.853V263.182ZM92.7362 261.449H126.117V228.12H92.7362V261.449Z" fill="#ABDDDA"/>
<g opacity="0.5">
<path d="M200.745 233.176H152.69V236.766H200.745V233.176Z" fill="#B4B4B4"/>
<path d="M200.745 249.211H152.69V252.801H200.745V249.211Z" fill="#B4B4B4"/>
<path d="M206.771 241.193H185.873V244.783H206.771V241.193Z" fill="#B4B4B4"/>
<path d="M182.429 241.193H152.69V244.783H182.429V241.193Z" fill="#B4B4B4"/>
</g>
<path d="M259.89 199.063C259.89 199.063 261.76 204.809 261.597 206.124C261.437 207.439 260.264 211.929 259.426 213.078C258.587 214.227 258.174 208.397 257.511 207.519C256.847 206.641 257.375 209.714 256.907 209.999C256.438 210.284 255.464 207.738 255.045 206.842C254.626 205.943 256.07 202.634 256.074 200.326C256.079 198.016 259.89 199.063 259.89 199.063Z" fill="#FFC49B"/>
<path d="M215.938 153.415C215.42 146.826 222.589 142.308 228.25 145.734C228.367 145.804 228.48 145.876 228.595 145.95C237.071 151.396 255.355 176.81 256.615 179.356C257.872 181.902 261.587 202.156 261.587 202.156C261.587 202.156 256.997 203.832 254.85 202.093C254.85 202.093 247.406 182.885 246.304 181.924C245.203 180.964 216.528 164.899 216.283 158.876C216.22 157.284 216.092 155.37 215.938 153.415Z" fill="#FF8528"/>
<path d="M142.126 155.304L144.619 162.453L180.636 149.933L178.143 142.784L142.126 155.304Z" fill="#E13D51"/>
<path d="M135 161.791L144.62 162.454L142.128 155.305L135 161.791Z" fill="#FFC49B"/>
<path d="M183.158 143.702L183.945 145.963C184.429 147.354 183.694 148.872 182.301 149.356L180.634 149.935L178.142 142.785L179.954 142.156C181.267 141.7 182.699 142.393 183.158 143.702Z" fill="#FFC49B"/>
<path d="M267.11 302.166C267.11 302.166 270.527 305.281 269.859 307.492C269.194 309.704 266.109 311.179 265.692 313.882C265.275 316.586 263.609 318.061 262.109 318.061C260.609 318.061 254.957 318.061 254.957 318.061C254.957 318.061 253.853 316.16 256.52 315.585C259.187 315.011 260.192 311.835 260.026 308.885C259.859 305.935 260.276 302.002 260.276 302.002L265.943 300.691L267.11 302.166Z" fill="#147973"/>
<path d="M225.19 310.219C225.19 310.219 225.803 317.305 224.303 318.041L205.106 318.002C205.106 318.002 205.106 315.791 208.19 315.298C211.274 314.806 216.69 313.005 217.607 308.99C218.523 304.975 225.19 310.219 225.19 310.219Z" fill="#147973"/>
<path d="M208.981 210.129C208.981 210.129 209.994 222.549 211.184 237.48C212.801 257.761 214.746 282.672 214.94 287.392C215.272 295.588 216.608 308.695 216.608 308.695C216.608 308.695 219.774 311.809 226.109 310.496C226.109 310.496 231.755 291.785 233.366 271.986C233.391 271.662 233.415 271.333 233.442 271.007C234.942 250.851 237.274 208.41 237.274 208.41L208.981 210.129Z" fill="#199F97"/>
<path d="M208.981 210.129C208.981 210.129 209.994 222.549 211.184 237.48L233.366 271.986C233.391 271.662 233.415 271.333 233.442 271.007C234.942 250.851 237.274 208.41 237.274 208.41L208.981 210.129Z" fill="#147973"/>
<path d="M213.606 211.604C213.606 211.604 231.858 256.585 243.857 277.723C255.858 298.862 259.608 304.762 259.608 304.762C259.608 304.762 266.483 302.058 267.108 300.214C267.108 300.214 262.52 259.406 254.482 249.456C249.941 243.835 244.607 226.965 244.356 221.065C244.106 215.165 242.731 203.49 242.731 203.49L213.606 211.604Z" fill="#199F97"/>
<path d="M229.343 144.13C229.343 144.13 217.115 150.324 209.953 148.258C209.953 148.258 211.66 146.016 214.695 144.313C214.42 142.891 214.204 141.656 214.074 140.61C213.725 138.193 213.698 136.821 213.698 136.821L218.387 132.987L222.833 129.316C222.675 139.389 229.343 144.13 229.343 144.13Z" fill="#FFC49B"/>
<path d="M241.49 207.051C236.553 210.034 231.878 212.278 226.409 213.538C219.957 215.066 212.026 214.615 209.373 215.019C209.1 215.056 208.843 214.984 208.599 214.824C208.391 214.718 207.22 206.86 206.047 196.941C205.995 196.543 205.94 196.139 205.917 195.735L205.901 195.602C205.445 191.724 205.046 187.652 204.699 183.57C204.415 180.394 204.183 177.251 204.023 174.301C203.82 170.611 203.735 167.217 203.82 164.427C203.857 163.151 203.93 162.007 204.046 161.012C204.744 155.218 207.512 151.078 210.119 147.997L212.281 145.541C214.787 145.699 217.348 145.227 219.762 143.636C222.402 141.9 225.252 140.033 225.79 140.345C229.838 142.556 233.132 148.284 235.486 155.85C236.836 160.205 237.872 165.147 238.533 170.381C238.747 172.006 238.928 173.671 239.066 175.329C239.092 175.637 239.115 175.942 239.14 176.246C239.456 180.782 239.976 185.032 240.551 188.828C241.326 193.948 242.205 198.236 242.828 201.256C243.14 202.792 243.378 203.982 243.52 204.833C243.643 205.574 242.154 206.639 241.49 207.051Z" fill="#FFA968"/>
<path d="M222.99 133.165C222.99 133.165 219.982 138.905 214.072 140.612C213.723 138.195 213.696 136.823 213.696 136.823L218.385 132.988L222.99 133.165Z" fill="#E1B291"/>
<path d="M211.523 136.701C211.523 136.701 223.339 138.391 224.301 131.139C225.262 123.887 227.436 119.222 219.932 117.837C212.429 116.45 210.592 119.031 209.673 121.374C208.753 123.717 208.474 136.073 211.523 136.701Z" fill="#FFC49B"/>
<path d="M228.297 116.805C228.402 116.68 228.646 116.577 229.195 116.536C229.195 116.536 228.751 116.271 228.164 116.267C228.034 115.508 227.601 114.167 226.282 113.865C226.282 113.865 226.995 114.226 227.103 115.034C225.552 113.504 222.269 112.433 213.257 113.324C201.379 114.497 205.451 122.024 207.009 122.9C208.566 123.776 212.394 121.214 215.268 121.384C218.143 121.554 218.77 125.684 219.756 126.231C220.74 126.781 220.337 125.784 221.644 125.163C222.949 124.543 223.117 126.72 222.766 128.143C222.415 129.567 224.26 131.401 224.26 131.401C224.26 131.401 224.26 131.401 226.049 129.399C227.839 127.397 229.396 119.033 228.531 117.275C228.451 117.119 228.375 116.963 228.297 116.805Z" fill="#293331"/>
<path d="M224.545 165.072C224.545 165.072 214.582 172.64 204.021 174.3C203.818 170.609 203.733 167.216 203.818 164.426L224.545 165.072Z" fill="#FF8528"/>
<path d="M163.361 155.304C163.205 155.136 161.172 148.354 157.659 148.85C155.366 149.172 151.62 150.498 152.615 153.513C153.005 154.699 159.991 158.783 159.991 158.783L163.361 155.304Z" fill="#FFC49B"/>
<path d="M225.778 150.447C231.459 153.84 230.999 162.292 224.923 164.916C224.798 164.97 224.673 165.023 224.547 165.072C215.194 168.818 183.852 168.993 181.046 168.543C178.239 168.094 159.547 159.394 159.547 159.394C159.547 159.394 160.836 154.686 163.499 153.945C163.499 153.945 183.495 159.004 184.917 158.663C186.338 158.323 216.057 144.278 221.118 147.567C222.456 148.437 224.093 149.442 225.778 150.447Z" fill="#FFA968"/>
</svg>
