<svg width="186" height="185" viewBox="0 0 186 185" fill="none" xmlns="http://www.w3.org/2000/svg">
<path d="M93 184.445C144.362 184.445 186 177.978 186 170C186 162.023 144.362 155.556 93 155.556C41.6375 155.556 0 162.023 0 170C0 177.978 41.6375 184.445 93 184.445Z" fill="#E9EAEB"/>
<path d="M156.485 0H29.5146V169.911H156.485V0Z" fill="#ADD1C8"/>
<path d="M150.433 5.50684H36.96V162.288H150.433V5.50684Z" fill="white"/>
<path d="M70.5547 0V5.75556C70.5547 8.93423 73.1395 11.5111 76.3273 11.5111H107.337C110.526 11.5111 113.11 8.93423 113.11 5.75556V0H70.5547Z" fill="#DBEFEA"/>
<path d="M71.1996 78.6617H50.6768V58.2197H71.1996V78.6617ZM51.6436 77.6986H70.2327V59.1828H51.6436V77.6986Z" fill="#ABDDDA"/>
<path d="M61.5538 74.5532C61.1177 74.5532 60.7013 74.3602 60.4206 74.0217L54.0011 66.2874C53.4838 65.6647 53.5719 64.7417 54.1971 64.2265C54.8222 63.7112 55.7489 63.799 56.2662 64.4217L61.3566 70.556L70.5666 55.159C70.9818 54.4647 71.8842 54.2371 72.5812 54.6507C73.2783 55.0643 73.5067 55.963 73.0915 56.6573L62.8168 73.8381C62.5721 74.247 62.1429 74.5116 61.6674 74.5485C61.6291 74.552 61.592 74.5532 61.5538 74.5532Z" fill="#E13D51"/>
<g opacity="0.5">
<path d="M111.792 62.9902H85.0312V64.9847H111.792V62.9902Z" fill="#B4B4B4"/>
<path d="M134.53 62.9902H128.447V64.9847H134.53V62.9902Z" fill="#B4B4B4"/>
<path d="M111.792 71.8984H85.0312V73.8929H111.792V71.8984Z" fill="#B4B4B4"/>
<path d="M134.531 71.8984H125.463V73.8929H134.531V71.8984Z" fill="#B4B4B4"/>
<path d="M134.531 67.4443H127.077V69.4388H134.531V67.4443Z" fill="#B4B4B4"/>
<path d="M112.254 67.4443H104.801V69.4388H112.254V67.4443Z" fill="#B4B4B4"/>
<path d="M101.593 67.4443H85.0312V69.4388H101.593V67.4443Z" fill="#B4B4B4"/>
</g>
<path d="M71.1996 44.8863H50.6768V24.4443H71.1996V44.8863ZM51.6436 43.9232H70.2327V25.4074H51.6436V43.9232Z" fill="#ABDDDA"/>
<path d="M61.5983 40.778C61.1597 40.778 60.741 40.584 60.4588 40.2436L54.003 32.4656C53.4828 31.8394 53.5714 30.9112 54.2001 30.393C54.8288 29.8749 55.7607 29.9632 56.2809 30.5893L61.4 36.7583L70.662 21.2744C71.0796 20.5761 71.987 20.3473 72.688 20.7632C73.389 21.1791 73.6187 22.0829 73.2012 22.7812L62.8684 40.0589C62.6223 40.4701 62.1908 40.7362 61.7126 40.7733C61.6741 40.7768 61.6368 40.778 61.5983 40.778Z" fill="#E13D51"/>
<g opacity="0.5">
<path d="M111.792 29.2148H85.0312V31.2093H111.792V29.2148Z" fill="#B4B4B4"/>
<path d="M134.53 29.2148H128.447V31.2093H134.53V29.2148Z" fill="#B4B4B4"/>
<path d="M111.792 38.123H85.0312V40.1175H111.792V38.123Z" fill="#B4B4B4"/>
<path d="M134.531 38.123H125.463V40.1175H134.531V38.123Z" fill="#B4B4B4"/>
<path d="M134.531 33.6689H127.077V35.6634H134.531V33.6689Z" fill="#B4B4B4"/>
<path d="M112.254 33.6689H104.801V35.6634H112.254V33.6689Z" fill="#B4B4B4"/>
<path d="M101.593 33.6689H85.0312V35.6634H101.593V33.6689Z" fill="#B4B4B4"/>
</g>
<path d="M71.1996 112.437H50.6768V91.9951H71.1996V112.437ZM51.6436 111.475H70.2327V92.9582H51.6436V111.475Z" fill="#ABDDDA"/>
<path d="M61.441 108.153C61.0111 108.153 60.6007 107.963 60.324 107.629L53.9963 100.006C53.4864 99.3919 53.5733 98.4821 54.1895 97.9742C54.8057 97.4663 55.7191 97.5529 56.229 98.1666L61.2466 104.213L70.325 89.0375C70.7343 88.3531 71.6237 88.1288 72.3108 88.5364C72.9979 88.9441 73.2231 89.83 72.8138 90.5144L62.686 107.448C62.4447 107.851 62.0217 108.112 61.553 108.149C61.5153 108.151 61.4787 108.153 61.441 108.153Z" fill="#E13D51"/>
<g opacity="0.5">
<path d="M110.771 95.502H85.0312V97.4965H110.771V95.502Z" fill="#B4B4B4"/>
<path d="M111.792 104.41H85.0312V106.405H111.792V104.41Z" fill="#B4B4B4"/>
<path d="M110.437 99.9561H103.511V101.951H110.437V99.9561Z" fill="#B4B4B4"/>
<path d="M101.593 99.9561H85.0312V101.951H101.593V99.9561Z" fill="#B4B4B4"/>
</g>
<path d="M71.1996 146.213H50.6768V125.771H71.1996V146.213ZM51.6436 145.25H70.2327V126.735H51.6436V145.25Z" fill="#ABDDDA"/>
<g opacity="0.5">
<path d="M111.792 129.544H85.0312V131.538H111.792V129.544Z" fill="#B4B4B4"/>
<path d="M111.792 138.452H85.0312V140.447H111.792V138.452Z" fill="#B4B4B4"/>
<path d="M115.149 133.998H103.511V135.993H115.149V133.998Z" fill="#B4B4B4"/>
<path d="M101.593 133.998H85.0312V135.993H101.593V133.998Z" fill="#B4B4B4"/>
</g>
<path d="M144.729 110.59C144.729 110.59 145.77 113.783 145.68 114.513C145.59 115.244 144.937 117.739 144.47 118.377C144.003 119.015 143.773 115.776 143.404 115.288C143.034 114.8 143.328 116.508 143.067 116.666C142.807 116.825 142.264 115.41 142.031 114.912C141.797 114.413 142.602 112.575 142.604 111.292C142.606 110.009 144.729 110.59 144.729 110.59Z" fill="#FFC49B"/>
<path d="M120.253 85.2307C119.965 81.5699 123.957 79.0603 127.109 80.9636C127.174 81.0024 127.237 81.0423 127.301 81.0833C132.021 84.1092 142.204 98.228 142.905 99.6424C143.606 101.057 145.674 112.309 145.674 112.309C145.674 112.309 143.118 113.24 141.922 112.274C141.922 112.274 137.777 101.603 137.164 101.069C136.55 100.536 120.581 91.6108 120.445 88.2646C120.41 87.3802 120.339 86.3169 120.253 85.2307Z" fill="#FF8528"/>
<path d="M79.1479 86.2802L80.5361 90.252L100.593 83.2964L99.205 79.3247L79.1479 86.2802Z" fill="#E13D51"/>
<path d="M75.1797 89.8841L80.5369 90.2522L79.149 86.2803L75.1797 89.8841Z" fill="#FFC49B"/>
<path d="M101.998 79.8345L102.436 81.0905C102.706 81.8632 102.297 82.7066 101.521 82.9756L100.593 83.297L99.2051 79.3251L100.214 78.9752C100.945 78.7222 101.743 79.1074 101.998 79.8345Z" fill="#FFC49B"/>
<path d="M148.75 167.87C148.75 167.87 150.652 169.6 150.281 170.829C149.91 172.058 148.192 172.877 147.96 174.379C147.728 175.881 146.8 176.701 145.964 176.701C145.129 176.701 141.981 176.701 141.981 176.701C141.981 176.701 141.367 175.644 142.852 175.325C144.337 175.006 144.897 173.242 144.804 171.603C144.712 169.964 144.944 167.779 144.944 167.779L148.1 167.051L148.75 167.87Z" fill="#147973"/>
<path d="M125.406 172.344C125.406 172.344 125.746 176.28 124.911 176.689L114.221 176.668C114.221 176.668 114.221 175.439 115.938 175.166C117.656 174.892 120.672 173.891 121.182 171.661C121.692 169.431 125.406 172.344 125.406 172.344Z" fill="#147973"/>
<path d="M116.379 116.738C116.379 116.738 116.943 123.638 117.606 131.933C118.506 143.2 119.59 157.04 119.697 159.662C119.883 164.215 120.626 171.497 120.626 171.497C120.626 171.497 122.39 173.227 125.917 172.498C125.917 172.498 129.061 162.102 129.959 151.103C129.972 150.923 129.986 150.741 130.001 150.559C130.836 139.362 132.135 115.783 132.135 115.783L116.379 116.738Z" fill="#199F97"/>
<path d="M116.379 116.738C116.379 116.738 116.943 123.638 117.606 131.933L129.959 151.103C129.972 150.923 129.986 150.741 130.001 150.559C130.836 139.362 132.135 115.783 132.135 115.783L116.379 116.738Z" fill="#147973"/>
<path d="M118.954 117.557C118.954 117.557 129.118 142.547 135.801 154.29C142.484 166.034 144.572 169.312 144.572 169.312C144.572 169.312 148.401 167.81 148.749 166.785C148.749 166.785 146.194 144.114 141.717 138.586C139.189 135.463 136.218 126.092 136.079 122.814C135.939 119.536 135.173 113.05 135.173 113.05L118.954 117.557Z" fill="#199F97"/>
<path d="M127.718 80.0727C127.718 80.0727 120.909 83.5135 116.92 82.3658C116.92 82.3658 117.871 81.1201 119.561 80.1741C119.407 79.3843 119.287 78.6982 119.215 78.1169C119.021 76.7743 119.006 76.0119 119.006 76.0119L121.617 73.8817L124.093 71.8428C124.005 77.4388 127.718 80.0727 127.718 80.0727Z" fill="#FFC49B"/>
<path d="M134.483 115.028C131.733 116.685 129.13 117.932 126.084 118.632C122.491 119.481 118.074 119.23 116.597 119.455C116.445 119.475 116.302 119.436 116.166 119.347C116.05 119.287 115.398 114.922 114.745 109.412C114.716 109.191 114.685 108.966 114.673 108.742L114.663 108.668C114.409 106.513 114.187 104.251 113.994 101.983C113.836 100.219 113.707 98.4728 113.618 96.8339C113.504 94.7835 113.457 92.8984 113.504 91.3484C113.525 90.6395 113.566 90.0035 113.63 89.4508C114.019 86.2322 115.561 83.9323 117.013 82.2204L118.216 80.8562C119.612 80.944 121.038 80.6818 122.382 79.7974C123.853 78.8332 125.44 77.7961 125.74 77.9693C127.994 79.1979 129.828 82.38 131.139 86.5833C131.891 89.0029 132.468 91.7485 132.836 94.6559C132.955 95.5585 133.056 96.484 133.132 97.4049C133.147 97.5758 133.16 97.7456 133.174 97.9143C133.35 100.434 133.639 102.796 133.96 104.904C134.391 107.749 134.881 110.131 135.227 111.809C135.401 112.662 135.534 113.323 135.613 113.796C135.682 114.208 134.852 114.799 134.483 115.028Z" fill="#FFA968"/>
<path d="M124.18 73.9798C124.18 73.9798 122.505 77.1688 119.214 78.117C119.02 76.7744 119.005 76.012 119.005 76.012L121.616 73.8818L124.18 73.9798Z" fill="#E1B291"/>
<path d="M117.794 75.9443C117.794 75.9443 124.374 76.8835 124.91 72.8546C125.445 68.8257 126.656 66.2339 122.477 65.4646C118.299 64.6942 117.276 66.128 116.764 67.4295C116.252 68.7311 116.096 75.5956 117.794 75.9443Z" fill="#FFC49B"/>
<path d="M127.136 64.8912C127.194 64.8216 127.33 64.7647 127.636 64.7419C127.636 64.7419 127.389 64.5948 127.061 64.5926C126.989 64.1709 126.748 63.4255 126.013 63.2579C126.013 63.2579 126.41 63.4585 126.471 63.9076C125.607 63.0574 123.779 62.4624 118.76 62.9571C112.145 63.609 114.413 67.7906 115.28 68.2773C116.148 68.7639 118.279 67.3404 119.88 67.435C121.481 67.5296 121.83 69.8239 122.379 70.1282C122.927 70.4336 122.703 69.8797 123.431 69.5344C124.157 69.1902 124.251 70.3994 124.056 71.1904C123.86 71.9813 124.887 73.0002 124.887 73.0002C124.887 73.0002 124.887 73.0002 125.884 71.8879C126.881 70.7755 127.748 66.1289 127.266 65.1522C127.222 65.0655 127.179 64.9789 127.136 64.8912Z" fill="#293331"/>
<path d="M125.046 91.7067C125.046 91.7067 119.498 95.9111 113.617 96.8331C113.503 94.7828 113.456 92.8977 113.503 91.3477L125.046 91.7067Z" fill="#FF8528"/>
<path d="M90.9734 86.2797C90.8864 86.1862 89.7548 82.4183 87.7981 82.6941C86.5212 82.8731 84.4353 83.6093 84.9891 85.2847C85.2065 85.9434 89.0968 88.2126 89.0968 88.2126L90.9734 86.2797Z" fill="#FFC49B"/>
<path d="M125.733 83.5812C128.896 85.4663 128.64 90.1619 125.257 91.6196C125.187 91.6493 125.117 91.6789 125.047 91.7063C119.839 93.7874 102.385 93.8843 100.822 93.6347C99.2586 93.3851 88.8496 88.5515 88.8496 88.5515C88.8496 88.5515 89.567 85.9359 91.05 85.5244C91.05 85.5244 102.186 88.335 102.977 88.1458C103.769 87.9566 120.319 80.1541 123.137 81.9811C123.882 82.4643 124.794 83.0228 125.733 83.5812Z" fill="#FFA968"/>
</svg>
