<?xml version="1.0" standalone="no"?>
<!DOCTYPE svg PUBLIC "-//W3C//DTD SVG 20010904//EN"
 "http://www.w3.org/TR/2001/REC-SVG-20010904/DTD/svg10.dtd">
<svg version="1.0" xmlns="http://www.w3.org/2000/svg"
 width="116.000000pt" height="116.000000pt" viewBox="0 0 116.000000 116.000000"
 preserveAspectRatio="xMidYMid meet">
<metadata>
Created by potrace 1.14, written by Peter Selinger 2001-2017
</metadata>
<g transform="translate(0.000000,116.000000) scale(0.100000,-0.100000)"
fill="#000000" stroke="none">
<path d="M202 867 c-72 -27 -144 -93 -173 -159 -31 -71 -32 -192 -2 -259 30
-66 86 -124 151 -156 51 -25 68 -28 157 -28 83 0 109 4 151 23 52 24 109 73
103 89 -2 5 -25 28 -52 52 l-48 44 -22 -20 c-90 -83 -222 -61 -276 45 -16 30
-16 124 0 154 51 101 183 128 265 56 l35 -31 36 34 c20 19 43 39 50 46 22 19
14 36 -30 69 -89 66 -234 83 -345 41z"/>
<path d="M641 819 c24 -33 46 -62 51 -65 4 -3 103 -5 220 -5 l213 -1 3 66 3
66 -266 0 -266 0 42 -61z"/>
<path d="M693 634 c-2 -6 -3 -36 -1 -65 l3 -54 190 0 190 0 3 65 3 65 -192 0
c-132 0 -193 -3 -196 -11z"/>
<path d="M671 370 c-15 -19 -37 -50 -50 -67 l-22 -33 265 0 266 0 0 65 c0 45
-4 65 -12 66 -7 1 -105 2 -217 3 l-203 1 -27 -35z"/>
</g>
</svg>
